SplineFontDB: 3.0
FontName: Topmarks-Book
FullName: Topmarks Book
FamilyName: Topmarks
Weight: Medium
Copyright: Copyright (c) 2012-13 by vernon adams.
Version: 
ItalicAngle: 0
UnderlinePosition: 0
UnderlineWidth: 0
Ascent: 1638
Descent: 410
UFOAscent: 1560
UFODescent: -656
LayerCount: 2
Layer: 0 0 "Back"  1
Layer: 1 0 "Fore"  0
OS2Version: 0
OS2_WeightWidthSlopeOnly: 0
OS2_UseTypoMetrics: 0
CreationTime: 1377634096
ModificationTime: 1377634096
PfmFamily: 0
TTFWeight: 400
TTFWidth: 5
LineGap: 0
VLineGap: 0
OS2TypoAscent: 1968
OS2TypoAOffset: 0
OS2TypoDescent: -656
OS2TypoDOffset: 0
OS2TypoLinegap: 0
OS2WinAscent: 1968
OS2WinAOffset: 0
OS2WinDescent: 656
OS2WinDOffset: 0
HheadAscent: 1968
HheadAOffset: 0
HheadDescent: -656
HheadDOffset: 0
OS2Vendor: 'newt'
Lookup: 4 0 0 "fracDiagonalFractionslookup0"  {"fracDiagonalFractionslookup0 subtable"  } ['frac' ('latn' <'dflt' > 'grek' <'dflt' > 'DFLT' <'dflt' > ) ]
Lookup: 260 0 0 "markMarkPositioninglookup0"  {"markMarkPositioninglookup0 subtable"  } ['mark' ('latn' <'dflt' > 'grek' <'dflt' > 'DFLT' <'dflt' > ) ]
DEI: 91125
LangName: 1033 "" "" "" "" "" "Version " "" "Topmarks is a trademark of vernon adams." "vernon adams" "vernon adams" "Copyright (c) 2011 by vernon adams. All rights reserved." "" "" "Copyright (c) 2013, vernon adams (<URL|email>),+AAoA-with Reserved Font Name Topmarks.+AAoACgAA-This Font Software is licensed under the SIL Open Font License, Version 1.1.+AAoA-This license is copied below, and is also available with a FAQ at:+AAoA-http://scripts.sil.org/OFL" "http://scripts.sil.org/OFL" 
PickledData: "(dp1
S'com.typemytype.robofont.compileSettings.autohint'
p2
I1
sS'com.typemytype.robofont.compileSettings.decompose'
p3
I1
sS'com.typemytype.robofont.foreground.layerStrokeColor'
p4
(F0.5
F0
F0.5
F0.69999999999999996
tp5
sS'com.typemytype.robofont.guides'
p6
((dp7
S'angle'
p8
I0
sS'name'
p9
NsS'magnetic'
p10
I5
sS'isGlobal'
p11
I1
sS'y'
I110
sS'x'
I482
s(dp12
g8
I0
sg9
Nsg10
I5
sg11
I1
sS'y'
I-22
sS'x'
I482

StartChar: A
Encoding: 65 65 0
Width: 1397
VWidth: 0
GlyphClass: 2
Flags: W
AnchorPoint: "top" 702 1536 basechar 0
AnchorPoint: "bottom" 736 0 basechar 0
AnchorPoint: "ogonek" 1260 0 basechar 0
LayerCount: 2
Fore
SplineSet
435.417 615 m 1
 956.417 615 l 1
 869.39 870.64 781.563 1125.48 698.417 1385 c 1
 609.373 1129.71 522.552 872.198 435.417 615 c 1
40.4167 0 m 1
 609.417 1560 l 1
 787.417 1560 l 1
 1357.42 0 l 1
 1176.42 0 l 1
 1008.42 479 l 1
 383.417 479 l 1
 216.417 0 l 1
 40.4167 0 l 1
EndSplineSet
EndChar

StartChar: AE
Encoding: 198 198 1
Width: 1981
VWidth: 0
GlyphClass: 2
Flags: W
PickledData: "(dp1
S'com.fontlab.hintData'
p2
(dp3
S'hhints'
p4
((dp5
S'position'
p6
I0
sS'width'
p7
I148
s(dp8
g6
I398
sg7
I148
s(dp9
g6
I672
sg7
I148
s(dp10
g6
I1308
sg7
I148
stp11
ss."
HStem: 0 148<1080 1855 1227 1855 1227 1855> 398 148<506 1032 506 1050 430 1032> 672 148<1187 1791 1187 1187> 1308 148<926 974 926 926 1133 1133 1133 1832>
LayerCount: 2
Fore
SplineSet
506 546 m 1
 1032 546 l 1
 974 1308 l 1
 926 1308 l 1
 506 546 l 1
15 0 m 1
 823 1456 l 1
 1832 1456 l 1
 1832 1308 l 1
 1133 1308 l 1
 1169 820 l 1
 1791 820 l 1
 1791 672 l 1
 1187 672 l 1
 1227 148 l 1
 1855 148 l 1
 1855 0 l 1
 1080 0 l 1
 1050 398 l 1
 430 398 l 1
 211 0 l 1
 15 0 l 1
EndSplineSet
EndChar

StartChar: B
Encoding: 66 66 11
Width: 1360
VWidth: 0
GlyphClass: 2
Flags: W
PickledData: "(dp1
S'com.typemytype.robofont.layerData'
p2
(dp3
S'b'
(dp4
S'name'
p5
S'B'
sS'lib'
p6
(dp7
sS'unicodes'
p8
(tsS'width'
p9
I1360
sS'contours'
p10
(tsS'components'
p11
(tsS'anchors'
p12
(tsssS'com.fontlab.hintData'
p13
(dp14
S'vhints'
p15
((dp16
S'position'
p17
I188
sg9
I172
s(dp18
g17
I921
sg9
I181
s(dp19
g17
I986
sg9
I182
stp20
sS'hhints'
p21
((dp22
g17
I0
sg9
I138
s(dp23
g17
I684
sg9
I141
s(dp24
g17
I1318
sg9
I138
stp25
ss."
HStem: 0 138<372 637 637 643> 684 141 1318 138
VStem: 188 172 921 181 986 182
AnchorPoint: "top" 704 1536 basechar 0
AnchorPoint: "bottom" 680 0 basechar 0
LayerCount: 2
Fore
SplineSet
372 881 m 1
 562 881 l 2
 840 881 971 962 971 1154 c 0
 971 1339 883 1422 596 1422 c 2
 372 1422 l 1
 372 881 l 1
372 138 m 1
 637 138 l 2
 901 138 1036 229 1036 435 c 0
 1036 645 897 736 592 736 c 2
 372 736 l 1
 372 138 l 1
198 0 m 1
 198 1560 l 1
 596 1560 l 2
 966 1560 1150 1454 1150 1184 c 0
 1150 983 1059 882 897 824 c 1
 1098 782 1218 669 1218 432 c 0
 1218 122 985 0 643 0 c 2
 198 0 l 1
EndSplineSet
EndChar

StartChar: C
Encoding: 67 67 12
Width: 1404
VWidth: 0
GlyphClass: 2
Flags: W
PickledData: "(dp1
S'com.fontlab.hintData'
p2
(dp3
S'vhints'
p4
((dp5
S'position'
p6
I126
sS'width'
p7
I183
stp8
sS'hhints'
p9
((dp10
g6
I-22
sg7
I152
s(dp11
g6
I1331
sg7
I152
stp12
ss."
HStem: -22 152 1331 152
VStem: 126 183<579 990.5 579 1046.5>
AnchorPoint: "top" 794 1534 basechar 0
AnchorPoint: "bottom" 830 -2 basechar 0
LayerCount: 2
Fore
SplineSet
309 783 m 0
 309 375 535 126 837 126 c 0
 949 126 1088 161 1213 230 c 1
 1266 100 l 1
 1120 18 988 -24 824 -24 c 0
 446 -24 126 256 126 783 c 0
 126 1310 446 1586 824 1586 c 0
 988 1586 1120 1548 1266 1466 c 1
 1205 1332 l 1
 1078 1402 957 1436 843 1436 c 0
 544 1436 309 1198 309 783 c 0
EndSplineSet
EndChar

StartChar: D
Encoding: 68 68 18
Width: 1526
VWidth: 0
GlyphClass: 2
Flags: W
PickledData: "(dp1
S'com.fontlab.hintData'
p2
(dp3
S'vhints'
p4
((dp5
S'position'
p6
I188
sS'width'
p7
I172
s(dp8
g6
I1208
sg7
I182
stp9
sS'hhints'
p10
((dp11
g6
I0
sg7
I138
s(dp12
g6
I1318
sg7
I138
stp13
ss."
HStem: 0 138<372 610> 1318 138
VStem: 188 172 1208 182
AnchorPoint: "top" 704 1536 basechar 0
AnchorPoint: "bottom" 680 0 basechar 0
LayerCount: 2
Fore
SplineSet
198 0 m 1
 198 1560 l 1
 523 1560 l 2
 1049 1560 1400 1327 1400 778 c 0
 1400 295 1076 0 610 0 c 2
 198 0 l 1
372 138 m 1
 621 138 l 2
 991 138 1218 388 1218 775 c 0
 1218 1232 959 1422 527 1422 c 2
 372 1422 l 1
 372 138 l 1
EndSplineSet
EndChar

StartChar: Delta
Encoding: 916 916 20
Width: 1294
VWidth: 0
GlyphClass: 2
Flags: W
PickledData: "(dp1
S'com.fontlab.hintData'
p2
(dp3
S'hhints'
p4
((dp5
S'position'
p6
I0
sS'width'
p7
I162
stp8
ss."
HStem: 0 162
LayerCount: 2
Fore
SplineSet
245 135 m 1
 1050 135 l 1
 675 1187 l 1
 643 1294 l 1
 612 1187 l 1
 245 135 l 1
50 0 m 1
 50 80 l 1
 560 1456 l 1
 735 1456 l 1
 1244 80 l 1
 1244 0 l 1
 50 0 l 1
EndSplineSet
EndChar

StartChar: E
Encoding: 69 69 21
Width: 1192
VWidth: 0
GlyphClass: 2
Flags: W
PickledData: "(dp1
S'com.fontlab.hintData'
p2
(dp3
S'vhints'
p4
((dp5
S'position'
p6
I188
sS'width'
p7
I172
stp8
sS'hhints'
p9
((dp10
g6
I0
sg7
I138
s(dp11
g6
I672
sg7
I148
s(dp12
g6
I1318
sg7
I138
stp13
ss."
HStem: 0 138<372 1095 372 1095> 672 148 1318 138
VStem: 188 172
AnchorPoint: "top" 660 1536 basechar 0
AnchorPoint: "bottom" 830 0 basechar 0
AnchorPoint: "ogonek" 854 0 basechar 0
LayerCount: 2
Fore
SplineSet
198 0 m 1
 198 1560 l 1
 1045 1560 l 1
 1045 1422 l 1
 372 1422 l 1
 372 870 l 1
 1007 870 l 1
 1007 732 l 1
 372 732 l 1
 372 138 l 1
 1095 138 l 1
 1095 0 l 1
 198 0 l 1
EndSplineSet
EndChar

StartChar: Eth
Encoding: 208 208 31
Width: 1518
VWidth: 0
GlyphClass: 2
Flags: W
PickledData: "(dp1
S'com.fontlab.hintData'
p2
(dp3
S'vhints'
p4
((dp5
S'position'
p6
I203
sS'width'
p7
I172
s(dp8
g6
I1258
sg7
I182
stp9
sS'hhints'
p10
((dp11
g6
I0
sg7
I148
s(dp12
g6
I658
sg7
I137
s(dp13
g6
I1308
sg7
I148
stp14
ss."
HStem: 0 148 658 137 1308 148
VStem: 203 172 1258 182
LayerCount: 2
Fore
SplineSet
43 800 m 1
 610 800 l 1
 610 672 l 1
 43 672 l 1
 43 800 l 1
EndSplineSet
Refer: 18 68 N 1 0 0 1 0 0 2
EndChar

StartChar: Euro
Encoding: 8364 8364 32
Width: 1394
VWidth: 0
GlyphClass: 2
Flags: W
PickledData: "(dp1
S'com.fontlab.hintData'
p2
(dp3
S'vhints'
p4
((dp5
S'position'
p6
I209
sS'width'
p7
I176
stp8
sS'hhints'
p9
((dp10
g6
I-21
sg7
I146
s(dp11
g6
I516
sg7
I138
s(dp12
g6
I784
sg7
I138
s(dp13
g6
I1303
sg7
I145
stp14
ss."
HStem: -21 146 516 138 784 138 1303 145
VStem: 209 176
LayerCount: 2
Fore
SplineSet
850 516 m 1
 13 516 l 1
 33 644 l 1
 222 644 l 1
 222 794 l 1
 10 794 l 1
 32 922 l 1
 903 922 l 1
 883 794 l 1
 313 794 l 1
 313 644 l 1
 869 644 l 1
 850 516 l 1
EndSplineSet
Refer: 12 67 N 1 0 0 1 25 0 2
EndChar

StartChar: F
Encoding: 70 70 33
Width: 1104
VWidth: 0
GlyphClass: 2
Flags: W
PickledData: "(dp1
S'com.fontlab.hintData'
p2
(dp3
S'vhints'
p4
((dp5
S'position'
p6
I188
sS'width'
p7
I172
stp8
sS'hhints'
p9
((dp10
g6
I0
sg7
I21
s(dp11
g6
I667
sg7
I148
s(dp12
g6
I1318
sg7
I138
stp13
ss."
HStem: 0 21<198 198 198 372> 667 148 1318 138
VStem: 188 172
AnchorPoint: "top" 704 1536 basechar 0
AnchorPoint: "bottom" 680 0 basechar 0
LayerCount: 2
Fore
SplineSet
198 0 m 1
 198 1560 l 1
 1024 1560 l 1
 1024 1422 l 1
 372 1422 l 1
 372 925 l 1
 990 925 l 1
 990 777 l 1
 372 777 l 1
 372 0 l 1
 198 0 l 1
EndSplineSet
EndChar

StartChar: G
Encoding: 71 71 34
Width: 1507
VWidth: 0
GlyphClass: 2
Flags: W
PickledData: "(dp1
S'com.fontlab.hintData'
p2
(dp3
S'vhints'
p4
((dp5
S'position'
p6
I126
sS'width'
p7
I178
s(dp8
g6
I1155
sg7
I172
stp9
sS'hhints'
p10
((dp11
g6
I-22
sg7
I152
s(dp12
g6
I608
sg7
I149
s(dp13
g6
I1331
sg7
I152
stp14
ss."
HStem: -22 152 608 149 1331 152
VStem: 126 178 1155 172
AnchorPoint: "top" 660 1536 basechar 0
AnchorPoint: "bottom" 830 0 basechar 0
AnchorPoint: "ogonek" 854 0 basechar 0
LayerCount: 2
Fore
SplineSet
126 752 m 0
 126 1298.31 455.31 1586.6 847.35 1586.6 c 0
 992.803 1586.6 1146.89 1546.91 1296 1466 c 1
 1228 1327 l 1
 1099.1 1394.94 973.151 1436.4 857.871 1436.4 c 0
 543.875 1436.4 309 1186.58 309 766 c 0
 309 370 494 126 850 126 c 0
 966 126 1078 139 1164 178 c 1
 1164 653 l 1
 752 653 l 1
 752 812 l 1
 1327 812 l 1
 1327 88 l 1
 1182 15 1028 -24 837 -24 c 0
 391 -24 126 258 126 752 c 0
EndSplineSet
EndChar

StartChar: H
Encoding: 72 72 39
Width: 1510
VWidth: 0
GlyphClass: 2
Flags: W
PickledData: "(dp1
S'com.fontlab.hintData'
p2
(dp3
S'vhints'
p4
((dp5
S'position'
p6
I204
sS'width'
p7
I172
s(dp8
g6
I1146
sg7
I172
stp9
sS'hhints'
p10
((dp11
g6
I0
sg7
I21
s(dp12
g6
I674
sg7
I148
s(dp13
g6
I1436
sg7
I20
stp14
ss."
HStem: 0 21<198 198 198 372 1138 1138 1138 1312> 674 148 1436 20
VStem: 204 172 1146 172
AnchorPoint: "top" 797 1536 basechar 0
AnchorPoint: "bottom" 792 0 basechar 0
LayerCount: 2
Fore
SplineSet
198 0 m 1
 198 1560 l 1
 372 1560 l 1
 372 889 l 1
 1138 889 l 1
 1138 1560 l 1
 1312 1560 l 1
 1312 0 l 1
 1138 0 l 1
 1138 741 l 1
 372 741 l 1
 372 0 l 1
 198 0 l 1
EndSplineSet
EndChar

StartChar: I
Encoding: 73 73 41
Width: 902
VWidth: 0
GlyphClass: 2
Flags: W
PickledData: "(dp1
S'com.typemytype.robofont.layerData'
p2
(dp3
S'b'
(dp4
S'name'
p5
S'I'
sS'lib'
p6
(dp7
sS'unicodes'
p8
(tsS'width'
p9
F902
sS'contours'
p10
(tsS'components'
p11
(tsS'anchors'
p12
(tsssS'com.fontlab.hintData'
p13
(dp14
S'vhints'
p15
((dp16
S'position'
p17
I196
sg9
I172
stp18
sS'hhints'
p19
((dp20
g17
I0
sg9
I21
s(dp21
g17
I1436
sg9
I20
stp22
ss."
HStem: 0 21<156 746 156 156> 1436 20
VStem: 196 172
AnchorPoint: "top" 494 1536 basechar 0
AnchorPoint: "bottom" 496 1 basechar 0
LayerCount: 2
Fore
SplineSet
746 0 m 1
 156 0 l 1
 156 124 l 1
 364 124 l 1
 364 1436 l 1
 156 1436 l 1
 156 1560 l 1
 746 1560 l 1
 746 1436 l 1
 538 1436 l 1
 538 124 l 1
 746 124 l 1
 746 0 l 1
EndSplineSet
EndChar

StartChar: J
Encoding: 74 74 52
Width: 1201
VWidth: 0
GlyphClass: 2
Flags: W
PickledData: "(dp1
S'com.typemytype.robofont.layerData'
p2
(dp3
S'b'
(dp4
S'name'
p5
S'J'
sS'lib'
p6
(dp7
sS'unicodes'
p8
(tsS'width'
p9
F1201.25
sS'contours'
p10
(tsS'components'
p11
(tsS'anchors'
p12
(tsssS'com.fontlab.hintData'
p13
(dp14
S'vhints'
p15
((dp16
S'position'
p17
I581
sg9
I165
stp18
sS'hhints'
p19
((dp20
g17
I-207
sg9
I129
s(dp21
g17
I1318
sg9
I138
stp22
ss."
HStem: -207 129 1318 138
VStem: 581 165
AnchorPoint: "top" 668 1536 basechar 0
LayerCount: 2
Fore
SplineSet
121.25 130 m 1
 208.25 248 l 1
 276.25 166 370.25 126 455.25 126 c 0
 616.25 126 693 209 693.25 467 c 2
 693.25 1436 l 1
 288.25 1436 l 1
 288.25 1560 l 1
 1131.25 1560 l 1
 1131.25 1436 l 1
 860.25 1436 l 1
 860.25 434 l 2
 860 123 716.25 -24 465.25 -24 c 0
 342.25 -24 206.25 24 121.25 130 c 1
EndSplineSet
EndChar

StartChar: K
Encoding: 75 75 54
Width: 1258
VWidth: 0
GlyphClass: 2
Flags: W
PickledData: "(dp1
S'com.fontlab.hintData'
p2
(dp3
S'vhints'
p4
((dp5
S'position'
p6
I188
sS'width'
p7
I172
stp8
sS'hhints'
p9
((dp10
g6
I0
sg7
I21
s(dp11
g6
I1436
sg7
I20
stp12
ss."
HStem: 0 21<198 198 198 372 1021 1021 1021 1239> 1436 20
VStem: 188 172
AnchorPoint: "top" 671 1536 basechar 0
AnchorPoint: "bottom" 730 0 basechar 0
LayerCount: 2
Fore
SplineSet
198 0 m 1
 198 1560 l 1
 372 1560 l 1
 372 850 l 1
 988 1560 l 1
 1199 1560 l 1
 548 818 l 1
 1239 0 l 1
 1021 0 l 1
 372 779 l 1
 372 0 l 1
 198 0 l 1
EndSplineSet
EndChar

StartChar: L
Encoding: 76 76 56
Width: 1070
VWidth: 0
GlyphClass: 2
Flags: W
PickledData: "(dp1
S'com.fontlab.hintData'
p2
(dp3
S'vhints'
p4
((dp5
S'position'
p6
I188
sS'width'
p7
I172
stp8
sS'hhints'
p9
((dp10
g6
I0
sg7
I138
s(dp11
g6
I1436
sg7
I20
stp12
ss."
HStem: 0 138<372 1051 372 1051> 1436 20
VStem: 188 172
AnchorPoint: "top" 584 1536 basechar 0
AnchorPoint: "bottom" 700 0 basechar 0
LayerCount: 2
Fore
SplineSet
198 0 m 1
 198 1560 l 1
 372 1560 l 1
 372 138 l 1
 1051 138 l 1
 1051 0 l 1
 198 0 l 1
EndSplineSet
EndChar

StartChar: Lslash
Encoding: 321 321 61
Width: 1076
VWidth: 0
GlyphClass: 2
Flags: W
PickledData: "(dp1
S'com.fontlab.hintData'
p2
(dp3
S'vhints'
p4
((dp5
S'position'
p6
I212
sS'width'
p7
I167
stp8
sS'hhints'
p9
((dp10
g6
I0
sg7
I148
s(dp11
g6
I1007
sg7
I20
s(dp12
g6
I1436
sg7
I20
stp13
ss."
HStem: 0 148 1007 20<653 653> 1436 20
VStem: 212 167
LayerCount: 2
Fore
SplineSet
653 890 m 1
 25 489 l 1
 25 626 l 1
 653 1027 l 1
 653 890 l 1
EndSplineSet
Refer: 56 76 N 1 0 0 1 0 0 2
EndChar

StartChar: M
Encoding: 77 77 62
Width: 1942
VWidth: 0
GlyphClass: 2
Flags: W
PickledData: "(dp1
S'com.fontlab.hintData'
p2
(dp3
S'vhints'
p4
((dp5
S'position'
p6
I204
sS'width'
p7
I170
s(dp8
g6
I1582
sg7
I168
stp9
sS'hhints'
p10
((dp11
g6
I0
sg7
I21
s(dp12
g6
I1436
sg7
I20
stp13
ss."
HStem: 0 21<198 198 198 365 1579 1579 1579 1744> 1436 20
VStem: 204 170 1582 168
AnchorPoint: "top" 974 1536 basechar 0
AnchorPoint: "bottom" 980 0 basechar 0
LayerCount: 2
Fore
SplineSet
198 0 m 1
 198 1560 l 1
 424 1560 l 1
 606.527 1179.86 790.9 801.567 972 420 c 1
 1152.46 806.201 1345.93 1179.4 1532 1560 c 1
 1744 1560 l 1
 1744 0 l 1
 1579 0 l 1
 1579 1333 l 1
 1393.82 964.181 1213.25 590.754 1030 220 c 1
 909 220 l 1
 435 1190 l 1
 365 1350 l 1
 365 0 l 1
 198 0 l 1
EndSplineSet
EndChar

StartChar: N
Encoding: 78 78 63
Width: 1583
VWidth: 0
GlyphClass: 2
Flags: W
PickledData: "(dp1
S'com.fontlab.hintData'
p2
(dp3
S'vhints'
p4
((dp5
S'position'
p6
I195
sS'width'
p7
I172
s(dp8
g6
I1211
sg7
I171
stp9
sS'hhints'
p10
((dp11
g6
I0
sg7
I21
s(dp12
g6
I1436
sg7
I20
stp13
ss."
HStem: 0 21<198 198 198 370 1178 1178 1178 1385> 1436 20
VStem: 195 172 1211 171
AnchorPoint: "top" 813 1536 basechar 0
AnchorPoint: "bottom" 808 0 basechar 0
LayerCount: 2
Fore
SplineSet
198 0 m 1
 198 1560 l 1
 403 1560 l 1
 673.066 1111.4 945.709 665.376 1214 215 c 1
 1214 1560 l 1
 1385 1560 l 1
 1385 0 l 1
 1178 0 l 1
 439 1217 l 1
 370 1341 l 1
 370 0 l 1
 198 0 l 1
EndSplineSet
EndChar

StartChar: O
Encoding: 79 79 68
Width: 1646
VWidth: 0
GlyphClass: 2
Flags: W
PickledData: "(dp1
S'com.fontlab.hintData'
p2
(dp3
S'vhints'
p4
((dp5
S'position'
p6
I121
sS'width'
p7
I184
s(dp8
g6
I1331
sg7
I184
stp9
sS'hhints'
p10
((dp11
g6
I-25
sg7
I152
s(dp12
g6
I1331
sg7
I152
stp13
ss."
HStem: -25 152 1331 152
VStem: 121 184 1331 184
AnchorPoint: "top" 660 1536 basechar 0
AnchorPoint: "bottom" 830 0 basechar 0
AnchorPoint: "ogonek" 854 0 basechar 0
LayerCount: 2
Fore
SplineSet
823 126 m 0
 536 126 310 353 310 782 c 0
 310 1211 536 1436 823 1436 c 0
 1110 1436 1336 1211 1336 782 c 0
 1336 353 1110 126 823 126 c 0
823 -24 m 0
 1278 -24 1520 340 1520 782 c 0
 1520 1226 1278 1586 823 1586 c 0
 368 1586 126 1226 126 782 c 0
 126 340 368 -24 823 -24 c 0
EndSplineSet
EndChar

StartChar: OE
Encoding: 338 338 69
Width: 1998
VWidth: 0
GlyphClass: 2
Flags: W
PickledData: "(dp1
S'com.fontlab.hintData'
p2
(dp3
S'vhints'
p4
((dp5
S'position'
p6
I124
sS'width'
p7
I184
s(dp8
g6
I1127
sg7
I172
stp9
sS'hhints'
p10
((dp11
g6
I-23
sg7
I148
s(dp12
g6
I0
sg7
I148
s(dp13
g6
I672
sg7
I148
s(dp14
g6
I1308
sg7
I148
s(dp15
g6
I1335
sg7
I148
stp16
ss."
HStem: -23 148 0 148 672 148 1308 148 1335 148
VStem: 124 184 1127 172
LayerCount: 2
Fore
SplineSet
1007 1292 m 1
 946 1317 880 1330 813 1330 c 0
 546 1330 300 1128 300 729 c 0
 300 330 546 126 813 126 c 0
 880 126 946 139 1007 165 c 1
 1007 0 l 1
 948 -16 883 -24 813 -24 c 0
 358 -24 116 336 116 728 c 0
 116 1122 358 1480 813 1480 c 0
 883 1480 948 1472 1007 1456 c 1
 1007 1292 l 1
EndSplineSet
Refer: 21 69 N 1 0 0 1 807 0 2
EndChar

StartChar: Oslash
Encoding: 216 216 77
Width: 1626
VWidth: 0
GlyphClass: 2
Flags: W
PickledData: "(dp1
S'com.fontlab.hintData'
p2
(dp3
S'vhints'
p4
((dp5
S'position'
p6
I122
sS'width'
p7
I184
s(dp8
g6
I1331
sg7
I184
stp9
sS'hhints'
p10
((dp11
g6
I-25
sg7
I152
s(dp12
g6
I1331
sg7
I152
stp13
ss."
HStem: -25 152 1331 152
VStem: 122 184 1331 184
LayerCount: 2
Fore
SplineSet
521 -175 m 1
 418 -142 l 1
 1125 1604 l 1
 1232 1571 l 1
 521 -175 l 1
EndSplineSet
Refer: 68 79 N 1 0 0 1 0 0 2
EndChar

StartChar: P
Encoding: 80 80 79
Width: 1242
VWidth: 0
GlyphClass: 2
Flags: W
PickledData: "(dp1
S'com.typemytype.robofont.layerData'
p2
(dp3
S'b'
(dp4
S'name'
p5
S'P'
sS'lib'
p6
(dp7
sS'unicodes'
p8
(tsS'width'
p9
I1242
sS'contours'
p10
(tsS'components'
p11
(tsS'anchors'
p12
(tsssS'com.fontlab.hintData'
p13
(dp14
S'vhints'
p15
((dp16
S'position'
p17
I188
sg9
I172
s(dp18
g17
I975
sg9
I184
stp19
sS'hhints'
p20
((dp21
g17
I0
sg9
I21
s(dp22
g17
I587
sg9
I149
s(dp23
g17
I1318
sg9
I138
stp24
ss."
HStem: 0 21<198 198 198 372> 587 149 1318 138
VStem: 188 172 975 184
AnchorPoint: "top" 704 1536 basechar 0
AnchorPoint: "bottom" 680 0 basechar 0
LayerCount: 2
Fore
SplineSet
372 840 m 1
 640 840 l 2
 881 840 985 936 985 1122 c 0
 985 1326 899 1422 620 1422 c 2
 372 1422 l 1
 372 840 l 1
198 0 m 1
 198 1560 l 1
 597 1560 l 2
 1012 1560 1169 1420 1169 1124 c 0
 1169 838 991 691 621 691 c 2
 372 691 l 1
 372 0 l 1
 198 0 l 1
EndSplineSet
EndChar

StartChar: Q
Encoding: 81 81 80
Width: 1646
VWidth: 0
GlyphClass: 2
Flags: W
PickledData: "(dp1
S'com.typemytype.robofont.layerData'
p2
(dp3
S'b'
(dp4
S'name'
p5
S'Q'
sS'lib'
p6
(dp7
sS'unicodes'
p8
(tsS'width'
p9
I1646
sS'contours'
p10
(tsS'components'
p11
(tsS'anchors'
p12
(tsssS'com.fontlab.hintData'
p13
(dp14
S'vhints'
p15
((dp16
S'position'
p17
I126
sg9
I184
s(dp18
g17
I1336
sg9
I184
stp19
sS'hhints'
p20
((dp21
g17
I-25
sg9
I152
s(dp22
g17
I1331
sg9
I152
stp23
ss."
HStem: -25 152 1331 152
VStem: 126 184 1336 184
LayerCount: 2
Fore
SplineSet
1211 -287 m 1
 1339 -218 l 1
 988 457 l 1
 850 382 l 1
 1211 -287 l 1
EndSplineSet
Refer: 68 79 N 1 0 0 1 4 0 2
EndChar

StartChar: R
Encoding: 82 82 81
Width: 1345
VWidth: 0
GlyphClass: 2
Flags: W
PickledData: "(dp1
S'com.typemytype.robofont.layerData'
p2
(dp3
S'b'
(dp4
S'name'
p5
S'R'
sS'lib'
p6
(dp7
sS'unicodes'
p8
(tsS'width'
p9
I1345
sS'contours'
p10
(tsS'components'
p11
(tsS'anchors'
p12
(tsssS'com.fontlab.hintData'
p13
(dp14
S'vhints'
p15
((dp16
S'position'
p17
I188
sg9
I172
s(dp18
g17
I974
sg9
I182
stp19
sS'hhints'
p20
((dp21
g17
I0
sg9
I21
s(dp22
g17
I652
sg9
I147
s(dp23
g17
I1318
sg9
I138
stp24
ss."
HStem: 0 21<198 198 198 372 1050 1050 1050 1242> 652 147 1318 138
VStem: 188 172 974 182
AnchorPoint: "top" 704 1536 basechar 0
AnchorPoint: "bottom" 680 0 basechar 0
LayerCount: 2
Fore
SplineSet
372 903 m 1
 681 903 l 2
 870 903 1002 963 1002 1162 c 0
 1002 1373 887 1422 692 1422 c 2
 372 1422 l 1
 372 903 l 1
198 0 m 1
 198 1560 l 1
 603 1560 l 2
 925 1560 1173 1508 1173 1176 c 0
 1173 981.61 1083.17 833.251 836.854 779.907 c 1
 1242 0 l 1
 1050 0 l 1
 672 756 l 1
 372 756 l 1
 372 0 l 1
 198 0 l 1
EndSplineSet
EndChar

StartChar: S
Encoding: 83 83 85
Width: 1102
VWidth: 0
GlyphClass: 2
Flags: W
PickledData: "(dp1
S'com.fontlab.hintData'
p2
(dp3
S'vhints'
p4
((dp5
S'position'
p6
I146
sS'width'
p7
I184
s(dp8
g6
I931
sg7
I179
stp9
sS'hhints'
p10
((dp11
g6
I-22
sg7
I146
s(dp12
g6
I1334
sg7
I149
stp13
ss."
HStem: -22 146 1334 149
VStem: 146 184 931 179
AnchorPoint: "top" 604 1536 basechar 0
AnchorPoint: "bottom" 587 -1 basechar 0
LayerCount: 2
Fore
SplineSet
572 -24 m 0
 382 -24 202 65 111 139 c 1
 162 290 l 1
 255 208 423 126 568 126 c 0
 752 126 850 249 850 423 c 0
 850 553 799 634 499 735 c 0
 219 829 107 946 107 1178 c 2
 107 1184 l 1
 109 1442 308 1586 564 1586 c 0
 737 1586 871 1527 977 1444 c 1
 911 1310 l 1
 829 1373 709 1436 584 1436 c 0
 403 1436 284 1348 281 1194 c 0
 281 1189 280 1184 280 1180 c 0
 280 1034 346 972 599 885 c 0
 934 771 1019 636 1019 420 c 0
 1019 158 852 -24 572 -24 c 0
EndSplineSet
EndChar

StartChar: T
Encoding: 84 84 91
Width: 1124
VWidth: 0
GlyphClass: 2
Flags: W
PickledData: "(dp1
S'com.fontlab.hintData'
p2
(dp3
S'vhints'
p4
((dp5
S'position'
p6
I489
sS'width'
p7
I172
stp8
sS'hhints'
p9
((dp10
g6
I0
sg7
I21
s(dp11
g6
I1318
sg7
I138
stp12
ss."
HStem: 0 21<477.575 477.575 477.575 651.575> 1318 138
VStem: 489 172
AnchorPoint: "top" 581 1536 basechar 0
AnchorPoint: "bottom" 569 0 basechar 0
LayerCount: 2
Fore
SplineSet
477.575 0 m 1
 477.575 1422 l 1
 26.5753 1422 l 1
 26.5753 1560 l 1
 1097.58 1560 l 1
 1097.58 1422 l 1
 651.575 1422 l 1
 651.575 0 l 1
 477.575 0 l 1
EndSplineSet
EndChar

StartChar: Thorn
Encoding: 222 222 94
Width: 1261
VWidth: 0
GlyphClass: 2
Flags: W
PickledData: "(dp1
S'com.fontlab.hintData'
p2
(dp3
S'vhints'
p4
((dp5
S'position'
p6
I213
sS'width'
p7
I172
s(dp8
g6
I1003
sg7
I184
stp9
sS'hhints'
p10
((dp11
g6
I0
sg7
I21
s(dp12
g6
I443
sg7
I149
s(dp13
g6
I1164
sg7
I148
s(dp14
g6
I1436
sg7
I20
stp15
ss."
HStem: 0 21<213 213 213 385> 443 149<385 651 385 689> 1164 148<385 600 600 642 385 600> 1436 20<213 385 385 385>
VStem: 213 172<0 443 0 592 592 1164 1312 1456> 1003 184<774 994>
LayerCount: 2
Fore
SplineSet
385 592 m 1
 689 592 l 2
 899 592 1003 674 1003 874 c 0
 1003 1114 872 1164 642 1164 c 2
 385 1164 l 1
 385 592 l 1
213 0 m 1
 213 1456 l 1
 385 1456 l 1
 385 1312 l 1
 600 1312 l 2
 941 1312 1187 1231 1187 876 c 0
 1187 554 973 443 651 443 c 2
 385 443 l 1
 385 0 l 1
 213 0 l 1
EndSplineSet
EndChar

StartChar: U
Encoding: 85 85 95
Width: 1462
VWidth: 0
GlyphClass: 2
Flags: W
PickledData: "(dp1
S'com.fontlab.hintData'
p2
(dp3
S'vhints'
p4
((dp5
S'position'
p6
I168
sS'width'
p7
I172
s(dp8
g6
I1110
sg7
I171
stp9
sS'hhints'
p10
((dp11
g6
I-22
sg7
I145
s(dp12
g6
I1436
sg7
I20
stp13
ss."
HStem: -22 145 1436 20
VStem: 168 172 1110 171
AnchorPoint: "top" 656 1536 basechar 0
AnchorPoint: "bottom" 826 0 basechar 0
AnchorPoint: "ogonek" 850 0 basechar 0
LayerCount: 2
Fore
SplineSet
742.774 -24 m 0
 373.774 -24 174.775 157 174.775 541 c 2
 174.775 1560 l 1
 348.774 1560 l 1
 348.774 546 l 2
 348.774 260 480.775 126 741.775 126 c 0
 983.775 126 1114.77 279 1114.77 539 c 2
 1114.77 1560 l 1
 1287.77 1560 l 1
 1287.77 551 l 1
 1285.77 191 1090.77 -24 742.774 -24 c 0
EndSplineSet
EndChar

StartChar: V
Encoding: 86 86 106
Width: 1388
VWidth: 0
GlyphClass: 2
Flags: W
PickledData: "(dp1
S'com.fontlab.hintData'
p2
(dp3
S'hhints'
p4
((dp5
S'position'
p6
I1
sS'width'
p7
I21
s(dp8
g6
I1436
sg7
I20
stp9
ss."
HStem: 1 21 1436 20
LayerCount: 2
Fore
SplineSet
609.429 0 m 1
 55.4286 1560 l 1
 243.429 1560 l 1
 655.429 335 l 1
 701.429 185 l 1
 748.874 332 l 1
 1149.43 1560 l 1
 1333.43 1560 l 1
 795.429 0 l 1
 609.429 0 l 1
EndSplineSet
EndChar

StartChar: W
Encoding: 87 87 107
Width: 2120
VWidth: 0
GlyphClass: 2
Flags: W
PickledData: "(dp1
S'com.fontlab.hintData'
p2
(dp3
S'hhints'
p4
((dp5
S'position'
p6
I1
sS'width'
p7
I21
s(dp8
g6
I1436
sg7
I20
stp9
ss."
HStem: 1 21 1436 20
AnchorPoint: "top" 1023 1536 basechar 0
AnchorPoint: "bottom" 1017 0 basechar 0
LayerCount: 2
Fore
SplineSet
469.897 0 m 1
 66.8966 1560 l 1
 249.897 1560 l 1
 542.897 349 l 1
 580.897 178 l 1
 715.049 637.847 847.467 1099.43 980.897 1560 c 1
 1153.9 1560 l 1
 1284.69 1099.46 1417.87 641.31 1546.9 179 c 1
 1659.22 637.014 1766.62 1099.94 1876.9 1560 c 1
 2053.9 1560 l 1
 1650.9 0 l 1
 1438.9 0 l 1
 1061.9 1354 l 1
 680.897 0 l 1
 469.897 0 l 1
EndSplineSet
EndChar

StartChar: X
Encoding: 88 88 112
Width: 1360
VWidth: 0
GlyphClass: 2
Flags: W
PickledData: "(dp1
S'com.fontlab.hintData'
p2
(dp3
S'hhints'
p4
((dp5
S'position'
p6
I0
sS'width'
p7
I21
s(dp8
g6
I1436
sg7
I20
stp9
ss."
HStem: 0 21<60.625 264.625 60.625 60.625 1098.62 1299.62 1098.62 1098.62> 1436 20
LayerCount: 2
Fore
SplineSet
1098.62 0 m 1
 680.625 697 l 1
 264.625 0 l 1
 60.625 0 l 1
 584.625 815 l 1
 99.625 1560 l 1
 305.625 1560 l 1
 693.625 928 l 1
 1093.62 1560 l 1
 1289.62 1560 l 1
 791.625 816 l 1
 1299.62 0 l 1
 1098.62 0 l 1
EndSplineSet
EndChar

StartChar: Y
Encoding: 89 89 113
Width: 1269
VWidth: 0
GlyphClass: 2
Flags: W
PickledData: "(dp1
S'com.fontlab.hintData'
p2
(dp3
S'vhints'
p4
((dp5
S'position'
p6
I530
sS'width'
p7
I172
stp8
sS'hhints'
p9
((dp10
g6
I0
sg7
I21
s(dp11
g6
I1436
sg7
I20
stp12
ss."
HStem: 0 21<546.526 546.526 546.526 720.526> 1436 20
VStem: 530 172
AnchorPoint: "top" 620 1536 basechar 0
AnchorPoint: "bottom" 625 0 basechar 0
LayerCount: 2
Fore
SplineSet
546.526 0 m 1
 546.526 652 l 1
 25.5263 1560 l 1
 217.526 1560 l 1
 633.526 797 l 1
 1053.53 1560 l 1
 1243.53 1560 l 1
 720.526 655 l 1
 720.526 0 l 1
 546.526 0 l 1
EndSplineSet
EndChar

StartChar: Z
Encoding: 90 90 118
Width: 1143
VWidth: 0
GlyphClass: 2
Flags: W
PickledData: "(dp1
S'com.fontlab.hintData'
p2
(dp3
S'hhints'
p4
((dp5
S'position'
p6
I0
sS'width'
p7
I138
s(dp8
g6
I1318
sg7
I138
stp9
ss."
HStem: 0 138<320.381 1076.38 320.381 1076.38> 1318 138
AnchorPoint: "top" 700 1536 basechar 0
AnchorPoint: "bottom" 676 0 basechar 0
LayerCount: 2
Fore
SplineSet
92.381 0 m 1
 92.381 92 l 1
 852.381 1422 l 1
 124.381 1422 l 1
 124.381 1560 l 1
 1084.38 1560 l 1
 1084.38 1472 l 1
 320.381 138 l 1
 1076.38 138 l 1
 1076.38 0 l 1
 92.381 0 l 1
EndSplineSet
EndChar

StartChar: a
Encoding: 97 97 122
Width: 1164
VWidth: 0
GlyphClass: 2
Flags: W
PickledData: "(dp1
S'com.typemytype.robofont.layerData'
p2
(dp3
S'b'
(dp4
S'name'
p5
S'a'
sS'lib'
p6
(dp7
sS'unicodes'
p8
(tsS'width'
p9
I1164
sS'contours'
p10
((dp11
S'points'
p12
((dp13
S'segmentType'
p14
S'curve'
p15
sS'x'
I455
sS'smooth'
p16
I01
sS'y'
I-562
s(dp17
S'y'
I-562
sS'x'
I802
sg16
I00
s(dp18
S'y'
I-309
sS'x'
I965
sg16
I00
s(dp19
g14
S'curve'
p20
sS'x'
I965
sg16
I00
sS'y'
I9
s(dp21
g14
S'line'
p22
sS'x'
I965
sg16
I00
sS'y'
I976
s(dp23
S'y'
I1017
sS'x'
I887
sg16
I00
s(dp24
S'y'
I1052
sS'x'
I775
sg16
I00
s(dp25
g14
S'curve'
p26
sS'x'
I648
sg16
I01
sS'y'
I1052
s(dp27
S'y'
I1052
sS'x'
I323
sg16
I00
s(dp28
S'y'
I804
sS'x'
I81
sg16
I00
s(dp29
g14
S'curve'
p30
sS'x'
I81
sg16
I01
sS'y'
I438
s(dp31
S'y'
I162
sS'x'
I81
sg16
I00
s(dp32
S'y'
I-22
sS'x'
I247
sg16
I00
s(dp33
g14
S'curve'
p34
sS'x'
I482
sg16
I01
sS'y'
I-22
s(dp35
S'y'
I-22
sS'x'
I615
sg16
I00
s(dp36
S'y'
I34
sS'x'
I726
sg16
I00
s(dp37
g14
S'curve'
p38
sS'x'
I795
sg16
I00
sS'y'
I126
s(dp39
g14
S'line'
p40
sS'x'
I795
sg16
I00
sS'y'
I-12
s(dp41
S'y'
I-272
sS'x'
I795
sg16
I00
s(dp42
S'y'
I-420
sS'x'
I680
sg16
I00
s(dp43
g14
S'curve'
p44
sS'x'
I447
sg16
I01
sS'y'
I-420
s(dp45
S'y'
I-420
sS'x'
I368
sg16
I00
s(dp46
S'y'
I-407
sS'x'
I278
sg16
I00
s(dp47
g14
S'curve'
p48
sS'x'
I173
sg16
I00
sS'y'
I-370
s(dp49
g14
S'line'
p50
sS'x'
I155
sg16
I00
sS'y'
I-513
s(dp51
S'y'
I-549
sS'x'
I268
sg16
I00
s(dp52
S'y'
I-562
sS'x'
I367
sg16
I00
stp53
s(dp54
g12
((dp55
g14
S'curve'
p56
sS'x'
I257
sg16
I01
sS'y'
I439
s(dp57
S'y'
I737
sS'x'
I257
sg16
I00
s(dp58
S'y'
I920
sS'x'
I424
sg16
I00
s(dp59
g14
S'curve'
p60
sS'x'
I646
sg16
I01
sS'y'
I920
s(dp61
S'y'
I920
sS'x'
I718
sg16
I00
s(dp62
S'y'
I907
sS'x'
I755
sg16
I00
s(dp63
g14
S'curve'
p64
sS'x'
I795
sg16
I00
sS'y'
I894
s(dp65
g14
S'line'
p66
sS'x'
I795
sg16
I01
sS'y'
I453
s(dp67
S'y'
I260
sS'x'
I795
sg16
I00
s(dp68
S'y'
I110
sS'x'
I691
sg16
I00
s(dp69
g14
S'curve'
p70
sS'x'
I506
sg16
I01
sS'y'
I110
s(dp71
S'y'
I110
sS'x'
I353
sg16
I00
s(dp72
S'y'
I239
sS'x'
I257
sg16
I00
stp73
stp74
sS'components'
p75
(tsS'anchors'
p76
(tsssS'com.fontlab.hintData'
p77
(dp78
S'vhints'
p79
((dp80
S'position'
p81
I110
sg9
I170
s(dp82
g81
I844
sg9
I164
stp83
sS'hhints'
p84
((dp85
g81
I-22
sg9
I136
s(dp86
g81
I912
sg9
I136
stp87
ss."
HStem: -22 136 912 136
VStem: 110 170 844 164
AnchorPoint: "top" 674 1123 basechar 0
AnchorPoint: "bottom" 614 0 basechar 0
AnchorPoint: "ogonek" 992 0 basechar 0
LayerCount: 2
Fore
SplineSet
527 110 m 0
 680 110 765 220 795 303 c 1
 795 894 l 1
 755 907 720 920 648 920 c 0
 426 920 272 737 272 439 c 0
 272 239 374 110 527 110 c 0
505 -22 m 0
 270 -22 96 162 96 438 c 0
 96 804 325 1052 650 1052 c 0
 777 1052 887 1017 965 976 c 1
 965 348 l 2
 965 170 983 121 1110 121 c 1
 1082 -14 l 1
 919 -14 851 46 824 158 c 1
 758 45 654 -22 505 -22 c 0
EndSplineSet
EndChar

StartChar: acute
Encoding: 180 180 126
Width: 618
VWidth: 0
GlyphClass: 2
Flags: W
PickledData: "(dp1
S'com.fontlab.hintData'
p2
(dp3
S'vhints'
p4
((dp5
S'position'
p6
I182
sS'width'
p7
I438
stp8
sS'hhints'
p9
((dp10
g6
I1172
sg7
I320
stp11
ss."
HStem: 1172 320
VStem: 182 438
LayerCount: 2
Fore
SplineSet
93 1136 m 1
 319 1456 l 1
 531 1456 l 1
 223 1136 l 1
 93 1136 l 1
EndSplineSet
EndChar

StartChar: ae
Encoding: 230 230 129
Width: 1716
VWidth: 0
GlyphClass: 2
Flags: W
PickledData: "(dp1
S'com.fontlab.hintData'
p2
(dp3
S'vhints'
p4
((dp5
S'position'
p6
I91
sS'width'
p7
I169
s(dp8
g6
I781
sg7
I172
stp9
sS'hhints'
p10
((dp11
g6
I-22
sg7
I137
s(dp12
g6
I489
sg7
I117
s(dp13
g6
I907
sg7
I141
stp14
ss."
HStem: -22 137 489 117 907 141
VStem: 91 169<230.5 379.5 230.5 444.711> 781 172
LayerCount: 2
Fore
SplineSet
919 566 m 1
 1152 566 1428 597 1428 758 c 0
 1428 852 1363 916 1248 916 c 0
 1082 916 933 794 919 566 c 1
474 114 m 0
 694 114 775 276 775 493 c 1
 637 490 l 2
 452 485 260 465 260 294 c 0
 260 167 347 114 474 114 c 0
451 -22 m 0
 232 -22 91 96 91 286 c 0
 91 603.422 420.523 609.007 738.292 609.007 c 0
 749.883 609.007 761.457 609 773 609 c 1
 773 632 l 2
 773 831 667 916 531 916 c 0
 422 916 309 898 198 798 c 1
 130 908 l 1
 273 1021 394 1052 541 1052 c 0
 692.067 1052 819.945 975.808 873.384 849.049 c 1
 945.559 972.27 1067.62 1052 1247 1052 c 0
 1454 1052 1591 922 1591 755 c 0
 1591 510 1253 445 921 445 c 1
 945 233 1073 114 1257 114 c 0
 1408 114 1499 179 1564 232 c 1
 1632 122 l 1
 1512 25 1402 -22 1246 -22 c 0
 1066.25 -22 926.381 60.3711 851.805 212.839 c 1
 781.696 86.6114 659.434 -22 451 -22 c 0
EndSplineSet
EndChar

StartChar: ampersand
Encoding: 38 38 132
Width: 1541
VWidth: 0
GlyphClass: 2
Flags: W
PickledData: "(dp1
S'com.fontlab.hintData'
p2
(dp3
S'vhints'
p4
((dp5
S'position'
p6
I63
sS'width'
p7
I180
s(dp8
g6
I247
sg7
I166
s(dp9
g6
I790
sg7
I164
s(dp10
g6
I1204
sg7
I167
stp11
sS'hhints'
p12
((dp13
g6
I-27
sg7
I143
s(dp14
g6
I-12
sg7
I21
s(dp15
g6
I1340
sg7
I133
stp16
ss."
HStem: -27 143 -12 21<1381 1381> 1340 133
VStem: 63 180 247 166 790 164 1204 167
LayerCount: 2
Fore
SplineSet
637.506 1452.01 m 0
 486.714 1452.01 431.649 1379.04 431.649 1287.51 c 0
 431.649 1187.32 496.55 1063.68 571 984 c 1
 671 1044 812 1168 812 1289 c 0
 812 1398.06 734.339 1452.01 637.506 1452.01 c 0
285.536 417.577 m 0
 285.536 196.94 453.239 115 630 115 c 0
 802 115 898 197 985 292 c 1
 534 817 l 1
 380.2 707.418 285.536 585.823 285.536 417.577 c 0
278.53 1290.81 m 0
 278.53 1451.97 387.627 1586.01 630.66 1586.01 c 0
 823.795 1586.01 966 1477.83 966 1293 c 0
 966 1117 775 963 652 887 c 1
 1064 401 l 1
 1125 496 1179 662 1199 801 c 0
 1206 846 1210 888 1210 930 c 1
 1359 909 l 1
 1351 669 1272 430 1169 286 c 1
 1238 210 1299 151 1402 115 c 0
 1431 105 1466 96 1505 87 c 1
 1381 -12 l 1
 1241 10 1165 101 1084 187 c 1
 977 71 838 -24 627 -24 c 0
 338 -24 127 139 127 401 c 0
 127 658 317 829 456 921 c 1
 341.592 1029.08 278.53 1167.95 278.53 1290.81 c 0
EndSplineSet
EndChar

StartChar: approxequal
Encoding: 8776 8776 134
Width: 1328
VWidth: 0
GlyphClass: 2
Flags: W
PickledData: "(dp1
S'com.fontlab.hintData'
p2
(dp3
S'vhints'
p4
((dp5
S'position'
p6
I164
sS'width'
p7
I114
s(dp8
g6
I1055
sg7
I110
stp9
sS'hhints'
p10
((dp11
g6
I262
sg7
I118
s(dp12
g6
I426
sg7
I120
s(dp13
g6
I634
sg7
I118
s(dp14
g6
I799
sg7
I118
stp15
ss."
HStem: 262 118<836 937 836 966.5> 426 120<400.5 514> 634 118<830.5 935.5 830.5 964> 799 118<398 513.5>
VStem: 164 114<261 289> 1055 110<518 546>
LayerCount: 2
Fore
SplineSet
277 634 m 1
 162 661 l 1
 195 808 289 917 453 917 c 0
 636 917 774 752 887 752 c 0
 984 752 1024 832 1053 918 c 1
 1163 890 l 1
 1133 745 1047 634 881 634 c 0
 697 634 578 799 449 799 c 0
 347 799 302 721 277 634 c 1
278 261 m 1
 164 289 l 1
 199 433 293 546 455 546 c 0
 655 546 783 380 889 380 c 0
 985 380 1025 463 1055 546 c 1
 1165 518 l 1
 1132 375 1050 262 883 262 c 0
 698 262 576 426 452 426 c 0
 349 426 303 349 278 261 c 1
EndSplineSet
EndChar

StartChar: asciicircum
Encoding: 94 94 136
Width: 1390
VWidth: 0
GlyphClass: 2
Flags: W
LayerCount: 2
Fore
SplineSet
172 550 m 1
 644 1432 l 1
 741 1432 l 1
 1220 550 l 1
 1065 550 l 1
 691 1260 l 1
 328 550 l 1
 172 550 l 1
EndSplineSet
EndChar

StartChar: asciitilde
Encoding: 126 126 137
Width: 1331
VWidth: 0
GlyphClass: 2
Flags: W
PickledData: "(dp1
S'com.fontlab.hintData'
p2
(dp3
S'vhints'
p4
((dp5
S'position'
p6
I217
sS'width'
p7
I115
s(dp8
g6
I1126
sg7
I125
stp9
sS'hhints'
p10
((dp11
g6
I410
sg7
I135
s(dp12
g6
I571
sg7
I134
stp13
ss."
HStem: 410 135<866 940 856.5 968.5> 571 134<394 474.5 368 490.5>
VStem: 217 115 1126 125
LayerCount: 2
Fore
SplineSet
265 385 m 1
 150 440 l 1
 182 593 291 705 445 705 c 0
 504 705 558 683 605 664 c 0
 704 623 821 545 892 545 c 0
 988 545 1041 641 1059 723 c 1
 1184 684 l 1
 1147 528 1046 410 891 410 c 0
 841 410 791 433 751 452 c 0
 652 498 534 571 447 571 c 0
 341 571 285 475 265 385 c 1
EndSplineSet
EndChar

StartChar: asterisk
Encoding: 42 42 138
Width: 1068
VWidth: 0
GlyphClass: 2
Flags: W
PickledData: "(dp1
S'com.fontlab.hintData'
p2
(dp3
S'hhints'
p4
((dp5
S'position'
p6
I1436
sS'width'
p7
I20
stp8
ss."
HStem: 1436 20<463 617 617 617>
LayerCount: 2
Fore
SplineSet
708 742 m 1
 550 1008 l 1
 395 740 l 1
 271 815 l 1
 468 1063 l 1
 176 1151 l 1
 217 1276 l 1
 499 1153 l 1
 463 1456 l 1
 617 1456 l 1
 596 1158 l 1
 828 1279 l 1
 892 1154 l 1
 630 1066 l 1
 834 815 l 1
 708 742 l 1
EndSplineSet
EndChar

StartChar: at
Encoding: 64 64 139
Width: 1953
VWidth: 0
GlyphClass: 2
Flags: W
PickledData: "(dp1
S'com.fontlab.hintData'
p2
(dp3
S'vhints'
p4
((dp5
S'position'
p6
I186
sS'width'
p7
I127
s(dp8
g6
I562
sg7
I139
s(dp9
g6
I1169
sg7
I99
s(dp10
g6
I1657
sg7
I112
stp11
sS'hhints'
p12
((dp13
g6
I-61
sg7
I101
s(dp14
g6
I302
sg7
I108
s(dp15
g6
I310
sg7
I75
s(dp16
g6
I1088
sg7
I95
s(dp17
g6
I1430
sg7
I94
stp18
ss."
HStem: -61 101<804 1128> 302 108<832.5 917.5> 310 75<1318 1432.5 1318 1457.5> 1088 95<940.5 1080 908 1087.5> 1430 94<806.5 1175.5>
VStem: 186 127<517 926.5 517 959> 562 139<574 756.5 561.5 798> 1169 99<462 506 443 525> 1657 112<707.5 1024.5>
LayerCount: 2
Fore
SplineSet
888 410 m 0
 1068 410 1197 667 1197 866 c 0
 1197 981 1143 1088 1032 1088 c 0
 849 1088 701 878 701 635 c 0
 701 488 777 410 888 410 c 0
1002 -61 m 0
 544 -61 186 264 186 727 c 0
 186 1191 556 1524 1006 1524 c 0
 1420 1524 1769 1253 1769 839 c 0
 1769 525 1568 310 1347 310 c 0
 1229 310 1169 399 1169 525 c 1
 1113 392 973 302 862 302 c 0
 643 302 562 493 562 655 c 0
 562 941 787 1183 1029 1183 c 0
 1131 1183 1212 1136 1249 1067 c 1
 1267 1152 l 1
 1407 1152 l 1
 1321 756 1268 541 1268 471 c 0
 1268 415 1289 385 1347 385 c 0
 1518 385 1657 573 1657 842 c 0
 1657 1207 1347 1430 1004 1430 c 0
 609 1430 313 1128 313 725 c 0
 313 309 601 40 1007 40 c 0
 1268 40 1401 124 1520 230 c 1
 1577 170 l 1
 1454 31 1254 -61 1002 -61 c 0
EndSplineSet
EndChar

StartChar: b
Encoding: 98 98 141
Width: 1173
VWidth: 0
GlyphClass: 2
Flags: W
PickledData: "(dp1
S'com.typemytype.robofont.layerData'
p2
(dp3
S'b'
(dp4
S'name'
p5
S'b'
sS'lib'
p6
(dp7
sS'unicodes'
p8
(tsS'width'
p9
I1173
sS'contours'
p10
((dp11
S'points'
p12
((dp13
S'segmentType'
p14
S'curve'
p15
sS'x'
F569
sS'smooth'
p16
I01
sS'y'
F-22
s(dp17
S'y'
F-22
sS'x'
F336
sg16
I00
s(dp18
S'y'
F71
sS'x'
F168
sg16
I00
s(dp19
g14
S'curve'
p20
sS'x'
F168
sg16
I00
sS'y'
F71
s(dp21
g14
S'line'
p22
sS'x'
F168
sg16
I00
sS'y'
F1560
s(dp23
g14
S'line'
p24
sS'x'
F338
sg16
I00
sS'y'
F1560
s(dp25
g14
S'line'
p26
sS'x'
F338
sg16
I00
sS'y'
F868
s(dp27
S'y'
F1002
sS'x'
F430
sg16
I00
s(dp28
S'y'
F1052
sS'x'
F541
sg16
I00
s(dp29
g14
S'curve'
p30
sS'x'
F676
sg16
I01
sS'y'
F1052
s(dp31
S'y'
F1052
sS'x'
F899
sg16
I00
s(dp32
S'y'
F865
sS'x'
F1077
sg16
I00
s(dp33
g14
S'curve'
p34
sS'x'
F1077
sg16
I01
sS'y'
F545
s(dp35
S'y'
F215
sS'x'
F1077
sg16
I00
s(dp36
S'y'
F-22
sS'x'
F873
sg16
I00
stp37
s(dp38
g12
((dp39
g14
S'curve'
p40
sS'x'
F563
sg16
I01
sS'y'
F114
s(dp41
S'y'
F114
sS'x'
F787
sg16
I00
s(dp42
S'y'
F318
sS'x'
F903
sg16
I00
s(dp43
g14
S'curve'
p44
sS'x'
F903
sg16
I01
sS'y'
F550
s(dp45
S'y'
F793
sS'x'
F903
sg16
I00
s(dp46
S'y'
F920
sS'x'
F795
sg16
I00
s(dp47
g14
S'curve'
p48
sS'x'
F653
sg16
I01
sS'y'
F920
s(dp49
S'y'
F920
sS'x'
F500
sg16
I00
s(dp50
S'y'
F791
sS'x'
F338
sg16
I00
s(dp51
g14
S'curve'
p52
sS'x'
F338
sg16
I01
sS'y'
F601
s(dp53
g14
S'line'
p54
sS'x'
F338
sg16
I00
sS'y'
F151
s(dp55
S'y'
F151
sS'x'
F338
sg16
I00
s(dp56
S'y'
F114
sS'x'
F415
sg16
I00
stp57
stp58
sS'components'
p59
(tsS'anchors'
p60
(tsssS'com.fontlab.hintData'
p61
(dp62
S'vhints'
p63
((dp64
S'position'
p65
I188
sg9
I165
s(dp66
g65
I924
sg9
I170
stp67
sS'hhints'
p68
((dp69
g65
I-22
sg9
I136
s(dp70
g65
I912
sg9
I136
s(dp71
g65
I1505
sg9
I20
stp72
ss."
HStem: -22 136 912 136 1505 20
VStem: 188 165 924 170
AnchorPoint: "top" 816 1536 basechar 0
AnchorPoint: "bottom" 852 0 basechar 0
LayerCount: 2
Fore
SplineSet
573 115 m 0
 825 150 903 318 903 550 c 0
 903 793 795 920 653 920 c 0
 500 920 338 791 338 601 c 2
 338 133 l 1
 338 133 477 102 573 115 c 0
569 -10 m 0
 336 -10 168 41 168 41 c 1
 168 1560 l 1
 338 1560 l 1
 338 868 l 1
 430 1002 541 1052 676 1052 c 0
 899 1052 1077 865 1077 545 c 0
 1077 215 873 -10 569 -10 c 0
EndSplineSet
EndChar

StartChar: backslash
Encoding: 92 92 142
Width: 954
VWidth: 0
GlyphClass: 2
Flags: W
PickledData: "(dp1
S'com.fontlab.hintData'
p2
(dp3
S'hhints'
p4
((dp5
S'position'
p6
I1431
sS'width'
p7
I20
stp8
ss."
HStem: 1431 20
LayerCount: 2
Fore
SplineSet
712 0 m 1
 83 1456 l 1
 250 1456 l 1
 875 0 l 1
 712 0 l 1
EndSplineSet
EndChar

StartChar: bar
Encoding: 124 124 143
Width: 564
VWidth: 0
GlyphClass: 2
Flags: W
PickledData: "(dp1
S'com.fontlab.hintData'
p2
(dp3
S'vhints'
p4
((dp5
S'position'
p6
I199
sS'width'
p7
I176
stp8
sS'hhints'
p9
((dp10
g6
I-482
sg7
I21
stp11
ss."
HStem: -482 21
VStem: 199 176
LayerCount: 2
Fore
SplineSet
200 -200 m 1
 200 1541 l 1
 364 1541 l 1
 364 -200 l 1
 200 -200 l 1
EndSplineSet
EndChar

StartChar: braceleft
Encoding: 123 123 144
Width: 747
VWidth: 0
GlyphClass: 2
Flags: W
PickledData: "(dp1
S'com.fontlab.hintData'
p2
(dp3
S'vhints'
p4
((dp5
S'position'
p6
I275
sS'width'
p7
I186
stp8
sS'hhints'
p9
((dp10
g6
I-230
sg7
I142
s(dp11
g6
I555
sg7
I135
s(dp12
g6
I1332
sg7
I143
stp13
ss."
HStem: -230 142 555 135 1332 143
VStem: 275 186
LayerCount: 2
Fore
SplineSet
657 -225 m 1
 433 -219 275 -128 275 69 c 2
 275 319 l 2
 275 449 223 548 83 560 c 1
 83 695 l 1
 198 703 274 783 275 912 c 1
 275 1156 l 2
 275 1350 396 1480 658 1480 c 1
 658 1337 l 1
 545 1335 442 1281 442 1148 c 2
 442 875 l 2
 442 736 368 657 263 625 c 1
 380 582 442 467 442 360 c 2
 442 128 l 2
 442 -42 546 -82 657 -82 c 1
 657 -225 l 1
EndSplineSet
EndChar

StartChar: braceright
Encoding: 125 125 145
Width: 747
VWidth: 0
GlyphClass: 2
Flags: W
PickledData: "(dp1
S'com.fontlab.hintData'
p2
(dp3
S'vhints'
p4
((dp5
S'position'
p6
I272
sS'width'
p7
I187
stp8
sS'hhints'
p9
((dp10
g6
I-230
sg7
I143
s(dp11
g6
I555
sg7
I135
s(dp12
g6
I1332
sg7
I142
stp13
ss."
HStem: -230 143 555 135 1332 142
VStem: 272 187
LayerCount: 2
Fore
SplineSet
91 1480 m 1
 315 1474 473 1383 473 1186 c 2
 473 936 l 2
 473 806 525 707 665 695 c 1
 665 560 l 1
 550 552 474 472 473 343 c 1
 473 99 l 2
 473 -95 352 -225 90 -225 c 1
 90 -82 l 1
 203 -80 306 -26 306 107 c 2
 306 380 l 2
 306 519 380 598 485 630 c 1
 368 673 306 788 306 895 c 2
 306 1127 l 2
 306 1297 202 1337 91 1337 c 1
 91 1480 l 1
EndSplineSet
EndChar

StartChar: bracketleft
Encoding: 91 91 146
Width: 731
VWidth: 0
GlyphClass: 2
Flags: W
PickledData: "(dp1
S'com.fontlab.hintData'
p2
(dp3
S'vhints'
p4
((dp5
S'position'
p6
I194
sS'width'
p7
I357
s(dp8
g6
I194
sg7
I163
stp9
sS'hhints'
p10
((dp11
g6
I-259
sg7
I122
s(dp12
g6
I1329
sg7
I122
stp13
ss."
HStem: -259 122 1329 122
VStem: 194 357<-200 -78 -200 1510> 194 163<-78 1388 -78 1510 -78 1510>
LayerCount: 2
Fore
SplineSet
194 -200 m 1
 194 1510 l 1
 550 1510 l 1
 550 1388 l 1
 357 1388 l 1
 357 -78 l 1
 551 -78 l 1
 551 -200 l 1
 194 -200 l 1
EndSplineSet
EndChar

StartChar: bracketright
Encoding: 93 93 147
Width: 731
VWidth: 0
GlyphClass: 2
Flags: W
PickledData: "(dp1
S'com.fontlab.hintData'
p2
(dp3
S'vhints'
p4
((dp5
S'position'
p6
I159
sS'width'
p7
I355
s(dp8
g6
I350
sg7
I164
stp9
sS'hhints'
p10
((dp11
g6
I-259
sg7
I122
s(dp12
g6
I1329
sg7
I122
stp13
ss."
HStem: -259 122 1329 122
VStem: 159 355 350 164
LayerCount: 2
Fore
SplineSet
538 1510 m 1
 538 -200 l 1
 182 -200 l 1
 182 -78 l 1
 375 -78 l 1
 375 1388 l 1
 181 1388 l 1
 181 1510 l 1
 538 1510 l 1
EndSplineSet
EndChar

StartChar: breve
Encoding: 728 728 148
Width: 639
VWidth: 0
GlyphClass: 2
Flags: W
PickledData: "(dp1
S'com.fontlab.hintData'
p2
(dp3
S'vhints'
p4
((dp5
S'position'
p6
I42
sS'width'
p7
I87
s(dp8
g6
I520
sg7
I86
stp9
sS'hhints'
p10
((dp11
g6
I1218
sg7
I107
s(dp12
g6
I1434
sg7
I20
stp13
ss."
HStem: 1218 107 1434 20
VStem: 42 87 520 86
AnchorPoint: "top" 327 1046 mark 0
LayerCount: 2
Fore
SplineSet
323 1221 m 0
 209 1221 95 1299 82 1456 c 1
 169 1456 l 1
 184 1369 250 1327 318 1327 c 0
 388 1327 460 1371 480 1456 c 1
 566 1456 l 1
 553 1299 438 1221 323 1221 c 0
EndSplineSet
EndChar

StartChar: brokenbar
Encoding: 166 166 149
Width: 557
VWidth: 0
GlyphClass: 2
Flags: W
PickledData: "(dp1
S'com.fontlab.hintData'
p2
(dp3
S'vhints'
p4
((dp5
S'position'
p6
I200
sS'width'
p7
I157
stp8
sS'hhints'
p9
((dp10
g6
I-491
sg7
I21
stp11
ss."
HStem: -491 21<200 200 200 357>
VStem: 200 157<-491 393 -491 393 677 1545>
LayerCount: 2
Fore
SplineSet
200 677 m 1
 200 1545 l 1
 357 1545 l 1
 357 677 l 1
 200 677 l 1
200 -491 m 1
 200 393 l 1
 357 393 l 1
 357 -491 l 1
 200 -491 l 1
EndSplineSet
EndChar

StartChar: bullet
Encoding: 8226 8226 150
Width: 1029
VWidth: 0
GlyphClass: 2
Flags: W
PickledData: "(dp1
S'com.fontlab.hintData'
p2
(dp3
S'vhints'
p4
((dp5
S'position'
p6
I180
sS'width'
p7
I669
stp8
sS'hhints'
p9
((dp10
g6
I385
sg7
I625
stp11
ss."
HStem: 385 625
VStem: 180 669
LayerCount: 2
Fore
SplineSet
512 427 m 0
 311 427 190 574 190 736 c 0
 190 940 360 1052 517 1052 c 0
 719 1052 839 901 839 743 c 0
 839 546 703 427 512 427 c 0
EndSplineSet
EndChar

StartChar: c
Encoding: 99 99 151
Width: 940
VWidth: 0
GlyphClass: 2
Flags: W
PickledData: "(dp1
S'com.typemytype.robofont.layerData'
p2
(dp3
S'b'
(dp4
S'name'
p5
S'c'
sS'lib'
p6
(dp7
sS'unicodes'
p8
(tsS'width'
p9
I940
sS'contours'
p10
((dp11
S'points'
p12
((dp13
S'segmentType'
p14
S'line'
p15
sS'x'
F883
sS'smooth'
p16
I00
sS'y'
F71
s(dp17
S'y'
F-136
sS'x'
F555
sg16
I00
s(dp18
S'y'
F-1
sS'x'
F84
sg16
I00
s(dp19
g14
S'curve'
p20
sS'x'
F96
sg16
I01
sS'y'
F492
s(dp21
S'y'
F992.6096654275093
sS'x'
F108.4460966542751
sg16
I00
s(dp22
S'y'
F1153
sS'x'
F516
sg16
I00
s(dp23
g14
S'curve'
p24
sS'x'
F871
sg16
I00
sS'y'
F992
s(dp25
g14
S'line'
p26
sS'x'
F837
sg16
I00
sS'y'
F868
s(dp27
S'y'
F993
sS'x'
F574
sg16
I00
s(dp28
S'y'
F905.68852459016398
sS'x'
F280.75409836065575
sg16
I00
s(dp29
g14
S'curve'
p30
sS'x'
F272
sg16
I01
sS'y'
F503
s(dp31
S'y'
F97
sS'x'
F262
sg16
I00
s(dp32
S'y'
F31
sS'x'
F588
sg16
I00
s(dp33
g14
S'curve'
p34
sS'x'
F851
sg16
I00
sS'y'
F189
stp35
stp36
sS'components'
p37
(tsS'anchors'
p38
(tsssS'com.fontlab.hintData'
p39
(dp40
S'vhints'
p41
((dp42
S'position'
p43
I106
sg9
I170
stp44
sS'hhints'
p45
((dp46
g43
I-22
sg9
I136
s(dp47
g43
I915
sg9
I137
stp48
ss."
HStem: -22 136 915 137
VStem: 106 170
AnchorPoint: "top" 591 1152 basechar 0
AnchorPoint: "bottom" 593 0 basechar 0
LayerCount: 2
Fore
SplineSet
855 71 m 1
 539 -135 84 -1 96 492 c 0
 108 993 501 1153 844 992 c 1
 811 868 l 1
 560 993 279 900 271 497 c 1
 261 91 573 35 825 189 c 1
 855 71 l 1
EndSplineSet
EndChar

StartChar: caron
Encoding: 711 711 153
Width: 709
VWidth: 0
GlyphClass: 2
Flags: W
PickledData: "(dp1
S'com.fontlab.hintData'
p2
(dp3
S'vhints'
p4
((dp5
S'position'
p6
I39
sS'width'
p7
I633
stp8
sS'hhints'
p9
((dp10
g6
I1170
sg7
I323
stp11
ss."
HStem: 1170 323
VStem: 39 633<1456 1456>
LayerCount: 2
Fore
SplineSet
278 1133 m 1
 39 1456 l 1
 186 1456 l 1
 350 1241 l 1
 518 1456 l 1
 672 1456 l 1
 434 1133 l 1
 278 1133 l 1
EndSplineSet
EndChar

StartChar: cedilla
Encoding: 184 184 159
Width: 762
VWidth: 0
GlyphClass: 2
Flags: W
PickledData: "(dp1
S'com.fontlab.hintData'
p2
(dp3
S'vhints'
p4
((dp5
S'position'
p6
I445
sS'width'
p7
I143
stp8
sS'hhints'
p9
((dp10
g6
I-396
sg7
I83
s(dp11
g6
I-168
sg7
I78
stp12
ss."
HStem: -396 83<317 364 304 407.5> -168 78<331.5 388>
VStem: 445 143<-269 -211.5>
AnchorPoint: "bottom" 390 0 mark 0
LayerCount: 2
Fore
SplineSet
347 -396 m 0
 287 -396 226 -385 172 -374 c 1
 180 -289 l 1
 230 -301 277 -313 331 -313 c 0
 397 -313 445 -297 445 -241 c 0
 445 -182 396 -168 336 -168 c 0
 327 -168 310 -170 299 -171 c 2
 267 -173 l 1
 300 17 l 1
 397 17 l 1
 379 -90 l 1
 388 -90 l 1
 492 -95 588 -131 588 -239 c 0
 588 -359 468 -396 347 -396 c 0
EndSplineSet
EndChar

StartChar: cent
Encoding: 162 162 160
Width: 1059
VWidth: 0
GlyphClass: 2
Flags: W
PickledData: "(dp1
S'com.fontlab.hintData'
p2
(dp3
S'vhints'
p4
((dp5
S'position'
p6
I55
sS'width'
p7
I173
s(dp8
g6
I503
sg7
I108
stp9
sS'hhints'
p10
((dp11
g6
I-20
sg7
I142
s(dp12
g6
I904
sg7
I145
stp13
ss."
HStem: -20 142<553 553 553 661> 904 145<553 553>
VStem: 55 173 503 108
LayerCount: 2
Fore
SplineSet
553 122 m 1
 553 904 l 1
 373 874 278 714 278 508 c 0
 278 285 390 148 553 122 c 1
553 -235 m 1
 553 -20 l 1
 298 6 105 213 105 503 c 0
 105 805 277 1024 553 1049 c 1
 553 1281 l 1
 661 1281 l 1
 661 1049 l 1
 790 1039 892 991 952 912 c 1
 875 801 l 1
 826 862 753 898 661 907 c 1
 661 120 l 1
 743 129 836 159 932 225 c 1
 968 87 l 1
 862 23 756 -10 661 -20 c 1
 661 -235 l 1
 553 -235 l 1
EndSplineSet
EndChar

StartChar: circumflex
Encoding: 710 710 161
Width: 709
VWidth: 0
GlyphClass: 2
Flags: W
PickledData: "(dp1
S'com.fontlab.hintData'
p2
(dp3
S'vhints'
p4
((dp5
S'position'
p6
I45
sS'width'
p7
I614
stp8
sS'hhints'
p9
((dp10
g6
I1170
sg7
I324
stp11
ss."
HStem: 1170 324
VStem: 45 614<1132 1132>
LayerCount: 2
Fore
SplineSet
273 1456 m 1
 430 1456 l 1
 659 1132 l 1
 527 1132 l 1
 349 1348 l 1
 171 1132 l 1
 45 1132 l 1
 273 1456 l 1
EndSplineSet
EndChar

StartChar: colon
Encoding: 58 58 163
Width: 651
VWidth: 0
GlyphClass: 2
Flags: W
PickledData: "(dp1
S'com.fontlab.hintData'
p2
(dp3
S'vhints'
p4
((dp5
S'position'
p6
I194
sS'width'
p7
I264
stp8
sS'hhints'
p9
((dp10
g6
I48
sg7
I246
s(dp11
g6
I832
sg7
I246
stp12
ss."
HStem: 48 246 832 246
VStem: 194 264
LayerCount: 2
Fore
SplineSet
326.027 1078.46 m 0
 414.013 1078.46 458.056 1016.85 458.056 955.271 c 0
 458.056 893.734 414.079 832.22 326.027 832.22 c 0
 238.042 832.22 194 893.826 194 955.409 c 0
 194 1016.95 237.976 1078.46 326.027 1078.46 c 0
326.027 294.38 m 0
 414.013 294.38 458.056 232.773 458.056 171.19 c 0
 458.056 109.654 414.079 48.1396 326.027 48.1396 c 0
 238.042 48.1396 194 109.746 194 171.329 c 0
 194 232.866 237.976 294.38 326.027 294.38 c 0
EndSplineSet
EndChar

StartChar: comma
Encoding: 44 44 164
Width: 575
VWidth: 0
GlyphClass: 2
Flags: W
PickledData: "(dp1
S'com.fontlab.hintData'
p2
(dp3
S'vhints'
p4
((dp5
S'position'
p6
I131
sS'width'
p7
I294
stp8
sS'hhints'
p9
((dp10
g6
I-310
sg7
I517
stp11
ss."
HStem: -310 517<143 437 250 274>
VStem: 131 294
AnchorPoint: "bottom" 311 346 mark 0
LayerCount: 2
Fore
SplineSet
143 -310 m 1
 250 207 l 1
 437 207 l 1
 274 -310 l 1
 143 -310 l 1
EndSplineSet
EndChar

StartChar: copyright
Encoding: 169 169 166
Width: 1880
VWidth: 0
GlyphClass: 2
Flags: W
PickledData: "(dp1
S'com.fontlab.hintData'
p2
(dp3
S'vhints'
p4
((dp5
S'position'
p6
I185
sS'width'
p7
I127
s(dp8
g6
I533
sg7
I153
s(dp9
g6
I1624
sg7
I127
stp10
sS'hhints'
p11
((dp12
g6
I-32
sg7
I117
s(dp13
g6
I249
sg7
I131
s(dp14
g6
I1080
sg7
I128
s(dp15
g6
I1366
sg7
I117
stp16
ss."
HStem: -32 117 249 131<889.5 1022.5> 1080 128<864 1020.5> 1366 117
VStem: 185 127 533 153 1624 127
LayerCount: 2
Fore
SplineSet
939 80 m 0
 1290 80 1568 374 1568 725 c 0
 1568 1077 1290 1371 939 1371 c 0
 587 1371 309 1077 309 725 c 0
 309 374 587 80 939 80 c 0
940 1480 m 0
 1354 1480 1692 1141 1692 727 c 0
 1692 314 1354 -25 940 -25 c 0
 526 -25 188 314 188 727 c 0
 188 1141 526 1480 940 1480 c 0
965 249 m 0
 670 249 498 473 498 729 c 0
 498 1042 706 1208 975 1208 c 0
 1085 1208 1180 1174 1258 1105 c 1
 1228 985 l 1
 1158 1048 1072 1080 969 1080 c 0
 759 1080 651 920 651 733 c 0
 651 504 784 380 995 380 c 0
 1092 380 1166 411 1224 460 c 1
 1261 339 l 1
 1178 279 1080 249 965 249 c 0
EndSplineSet
EndChar

StartChar: currency
Encoding: 164 164 167
Width: 1227
VWidth: 0
GlyphClass: 2
Flags: W
PickledData: "(dp1
S'com.fontlab.hintData'
p2
(dp3
S'vhints'
p4
((dp5
S'position'
p6
I232
sS'width'
p7
I88
s(dp8
g6
I898
sg7
I92
stp9
sS'hhints'
p10
((dp11
g6
I274
sg7
I77
s(dp12
g6
I965
sg7
I83
stp13
ss."
HStem: 274 77<566.5 659> 965 83
VStem: 232 88<610 707.5> 898 92<651 651>
LayerCount: 2
Fore
SplineSet
609 351 m 0
 771 351 894 482 898 651 c 0
 898.063 653.655 898.094 656.304 898.094 658.945 c 0
 898.094 824.397 775.47 961.063 617 965 c 0
 614.768 965.055 612.542 965.083 610.321 965.083 c 0
 451.306 965.083 320 824.672 320 658 c 0
 320 489 447 351 609 351 c 0
1027 210 m 1
 861 371 l 1
 795 310 707 274 611 274 c 0
 522 274 439 308 374 363 c 1
 214 195 l 1
 178 232 l 1
 337 398 l 1
 273 467 232 559 232 661 c 0
 232 754 268 840 326 908 c 1
 163 1065 l 1
 202 1104 l 1
 362 947 l 1
 429.309 1009.43 518.504 1048.07 612.878 1048.07 c 0
 615.249 1048.07 617.623 1048.05 620 1048 c 0
 708 1046 790 1012 853 956 c 1
 1009 1120 l 1
 1049 1081 l 1
 891 917 l 1
 953.352 847.828 990.077 757.774 990.077 658.859 c 0
 990.077 656.246 990.051 653.626 990 651 c 0
 988 557 953 473 896 408 c 1
 1064 246 l 1
 1027 210 l 1
EndSplineSet
EndChar

StartChar: d
Encoding: 100 100 168
Width: 1168
VWidth: 0
GlyphClass: 2
Flags: W
PickledData: "(dp1
S'com.typemytype.robofont.layerData'
p2
(dp3
S'b'
(dp4
S'name'
p5
S'd'
sS'lib'
p6
(dp7
sS'unicodes'
p8
(tsS'width'
p9
I1168
sS'contours'
p10
((dp11
S'points'
p12
((dp13
S'segmentType'
p14
S'curve'
p15
sS'x'
F522
sS'smooth'
p16
I01
sS'y'
F110
s(dp17
S'y'
F110
sS'x'
F675
sg16
I00
s(dp18
S'y'
F220
sS'x'
F766
sg16
I00
s(dp19
g14
S'curve'
p20
sS'x'
F796
sg16
I00
sS'y'
F303
s(dp21
g14
S'line'
p22
sS'x'
F796
sg16
I00
sS'y'
F894
s(dp23
S'y'
F907
sS'x'
F756
sg16
I00
s(dp24
S'y'
F920
sS'x'
F719
sg16
I00
s(dp25
g14
S'curve'
p26
sS'x'
F647
sg16
I01
sS'y'
F920
s(dp27
S'y'
F920
sS'x'
F425
sg16
I00
s(dp28
S'y'
F737
sS'x'
F265
sg16
I00
s(dp29
g14
S'curve'
p30
sS'x'
F265
sg16
I01
sS'y'
F439
s(dp31
S'y'
F239
sS'x'
F265
sg16
I00
s(dp32
S'y'
F110
sS'x'
F369
sg16
I00
stp33
s(dp34
g12
((dp35
g14
S'curve'
p36
sS'x'
F498
sg16
I01
sS'y'
F-22
s(dp37
S'y'
F-22
sS'x'
F263
sg16
I00
s(dp38
S'y'
F162
sS'x'
F89
sg16
I00
s(dp39
g14
S'curve'
p40
sS'x'
F89
sg16
I01
sS'y'
F438
s(dp41
S'y'
F804
sS'x'
F89
sg16
I00
s(dp42
S'y'
F1052
sS'x'
F324
sg16
I00
s(dp43
g14
S'curve'
p44
sS'x'
F649
sg16
I01
sS'y'
F1052
s(dp45
S'y'
F1052
sS'x'
F776
sg16
I00
s(dp46
S'y'
F1017
sS'x'
F888
sg16
I00
s(dp47
g14
S'curve'
p48
sS'x'
F966
sg16
I00
sS'y'
F976
s(dp49
g14
S'line'
p50
sS'x'
F966
sg16
I01
sS'y'
F348
s(dp51
S'y'
F170
sS'x'
F966
sg16
I00
s(dp52
S'y'
F121
sS'x'
F984
sg16
I00
s(dp53
g14
S'curve'
p54
sS'x'
F1111
sg16
I00
sS'y'
F121
s(dp55
g14
S'line'
p56
sS'x'
F1083
sg16
I00
sS'y'
F-14
s(dp57
S'y'
F-14
sS'x'
F920
sg16
I00
s(dp58
S'y'
F46
sS'x'
F852
sg16
I00
s(dp59
g14
S'curve'
p60
sS'x'
F825
sg16
I00
sS'y'
F158
s(dp61
S'y'
F45
sS'x'
F759
sg16
I00
s(dp62
S'y'
F-22
sS'x'
F647
sg16
I00
stp63
stp64
sS'components'
p65
(tsS'anchors'
p66
(tsssS'com.typemytype.robofont.guides'
p67
(tsS'com.fontlab.hintData'
p68
(dp69
S'vhints'
p70
((dp71
S'position'
p72
I104
sg9
I171
s(dp73
g72
I843
sg9
I165
stp74
sS'hhints'
p75
((dp76
g72
I-22
sg9
I136
s(dp77
g72
I912
sg9
I136
s(dp78
g72
I1506
sg9
I20
stp79
ss."
HStem: -22 136 912 136 1506 20
VStem: 104 171 843 165
AnchorPoint: "top" 784 1536 basechar 0
AnchorPoint: "bottom" 820 0 basechar 0
LayerCount: 2
Fore
SplineSet
824 158 m 1
 765 54 665 -25 500 -22 c 0
 277 -18 96 143 96 438 c 0
 96 813 332 1052 650 1052 c 0
 723 1052 783 1039 795 1036 c 1
 795 1560 l 1
 966 1560 l 1
 966 348 l 2
 966 170 984 121 1111 121 c 1
 1083 -14 l 1
 925 -14 852 42 824 158 c 1
272 443 m 0
 272 213 387 114 520 110 c 0
 693 105 772 244 796 302 c 1
 796 894 l 1
 758 908 712 920 648 920 c 0
 411 920 272 718 272 443 c 0
EndSplineSet
EndChar

StartChar: dagger
Encoding: 8224 8224 169
Width: 1185
VWidth: 0
GlyphClass: 2
Flags: W
PickledData: "(dp1
S'com.fontlab.hintData'
p2
(dp3
S'vhints'
p4
((dp5
S'position'
p6
I513
sS'width'
p7
I128
stp8
sS'hhints'
p9
((dp10
g6
I934
sg7
I132
s(dp11
g6
I1431
sg7
I20
stp12
ss."
HStem: 934 132 1431 20
VStem: 513 128
LayerCount: 2
Fore
SplineSet
513 0 m 1
 513 904 l 1
 190 904 l 1
 190 1026 l 1
 513 1026 l 1
 513 1456 l 1
 654 1456 l 1
 654 1026 l 1
 994 1026 l 1
 994 904 l 1
 654 904 l 1
 654 0 l 1
 513 0 l 1
EndSplineSet
EndChar

StartChar: daggerdbl
Encoding: 8225 8225 170
Width: 1192
VWidth: 0
GlyphClass: 2
Flags: W
PickledData: "(dp1
S'com.fontlab.hintData'
p2
(dp3
S'vhints'
p4
((dp5
S'position'
p6
I531
sS'width'
p7
I123
stp8
sS'hhints'
p9
((dp10
g6
I435
sg7
I127
s(dp11
g6
I983
sg7
I132
s(dp12
g6
I1431
sg7
I20
stp13
ss."
HStem: 435 127 983 132 1431 20
VStem: 531 123
LayerCount: 2
Fore
SplineSet
527 0 m 1
 527 440 l 1
 191 440 l 1
 191 557 l 1
 527 557 l 1
 527 988 l 1
 197 988 l 1
 197 1110 l 1
 527 1110 l 1
 527 1456 l 1
 671 1456 l 1
 671 1110 l 1
 1001 1110 l 1
 1001 988 l 1
 671 988 l 1
 671 557 l 1
 994 557 l 1
 994 440 l 1
 671 440 l 1
 671 0 l 1
 527 0 l 1
EndSplineSet
EndChar

StartChar: dblgravecmb
Encoding: 783 783 171
Width: 4
VWidth: 0
GlyphClass: 2
Flags: W
PickledData: "(dp1
S'com.fontlab.hintData'
p2
(dp3
S'vhints'
p4
((dp5
S'position'
p6
I-797
sS'width'
p7
I656
stp8
sS'hhints'
p9
((dp10
g6
I1174
sg7
I313
stp11
ss."
HStem: 1174 313
VStem: -797 656
AnchorPoint: "top" 186 1048 mark 0
LayerCount: 2
Fore
SplineSet
241 1143 m 1
 -28 1456 l 1
 142 1456 l 1
 359 1143 l 1
 241 1143 l 1
-22 1143 m 1
 -297 1456 l 1
 -121 1456 l 1
 93 1143 l 1
 -22 1143 l 1
EndSplineSet
EndChar

StartChar: degree
Encoding: 176 176 173
Width: 1052
VWidth: 0
GlyphClass: 2
Flags: W
PickledData: "(dp1
S'com.fontlab.hintData'
p2
(dp3
S'vhints'
p4
((dp5
S'position'
p6
I204
sS'width'
p7
I125
s(dp8
g6
I717
sg7
I125
stp9
sS'hhints'
p10
((dp11
g6
I855
sg7
I116
s(dp12
g6
I1328
sg7
I116
stp13
ss."
HStem: 855 116 1328 116
VStem: 204 125 717 125
LayerCount: 2
Fore
SplineSet
526 815 m 0
 321 815 190 975 190 1148 c 0
 190 1365 361 1480 526 1480 c 0
 733 1480 862 1322 862 1148 c 0
 862 930 689 815 526 815 c 0
526 936 m 0
 662 936 730 1043 730 1149 c 0
 730 1283 635 1359 526 1359 c 0
 391 1359 322 1255 322 1149 c 0
 322 1015 409 936 526 936 c 0
EndSplineSet
EndChar

StartChar: dieresis
Encoding: 168 168 174
Width: 896
VWidth: 0
GlyphClass: 2
Flags: W
PickledData: "(dp1
S'com.fontlab.hintData'
p2
(dp3
S'vhints'
p4
((dp5
S'position'
p6
I200
sS'width'
p7
I164
s(dp8
g6
I532
sg7
I164
stp9
sS'hhints'
p10
((dp11
g6
I1183
sg7
I163
stp12
ss."
HStem: 1183 163
VStem: 200 164<1362 1386 1339.37 1408.63> 532 164<1362 1386 1339.37 1408.63>
AnchorPoint: "top" 437 1152 mark 0
LayerCount: 2
Fore
SplineSet
532 1362 m 2
 532 1386 l 2
 532 1431.26 568.736 1468 614 1468 c 0
 659.264 1468 696 1431.26 696 1386 c 2
 696 1362 l 2
 696 1316.74 659.264 1280 614 1280 c 0
 568.736 1280 532 1316.74 532 1362 c 2
200 1362 m 2
 200 1386 l 2
 200 1431.26 236.736 1468 282 1468 c 0
 327.264 1468 364 1431.26 364 1386 c 2
 364 1362 l 2
 364 1316.74 327.264 1280 282 1280 c 0
 236.736 1280 200 1316.74 200 1362 c 2
EndSplineSet
EndChar

StartChar: divide
Encoding: 247 247 175
Width: 1445
VWidth: 0
GlyphClass: 2
Flags: W
PickledData: "(dp1
S'com.fontlab.hintData'
p2
(dp3
S'vhints'
p4
((dp5
S'position'
p6
I622
sS'width'
p7
I208
stp8
sS'hhints'
p9
((dp10
g6
I21
sg7
I210
s(dp11
g6
I485
sg7
I139
s(dp12
g6
I873
sg7
I210
stp13
ss."
HStem: 21 210 485 139 873 210
VStem: 622 208<80 290 80 290 896 1106>
LayerCount: 2
Fore
SplineSet
622 80 m 1
 622 290 l 1
 830 290 l 1
 830 80 l 1
 622 80 l 1
208 527 m 1
 208 666 l 1
 1234 666 l 1
 1234 527 l 1
 208 527 l 1
622 896 m 1
 622 1106 l 1
 830 1106 l 1
 830 896 l 1
 622 896 l 1
EndSplineSet
EndChar

StartChar: dollar
Encoding: 36 36 176
Width: 1102
VWidth: 0
GlyphClass: 2
Flags: W
PickledData: "(dp1
S'com.fontlab.hintData'
p2
(dp3
S'vhints'
p4
((dp5
S'position'
p6
I137
sS'width'
p7
I189
s(dp8
g6
I528
sg7
I119
s(dp9
g6
I880
sg7
I179
stp10
sS'hhints'
p11
((dp12
g6
I-16
sg7
I143
s(dp13
g6
I1299
sg7
I140
stp14
ss."
HStem: -16 143 1299 140
VStem: 137 189 528 119 880 179
LayerCount: 2
Fore
SplineSet
547.354 -196 m 1
 547.354 1747 l 1
 611.354 1747 l 1
 611.354 -196 l 1
 547.354 -196 l 1
EndSplineSet
Refer: 85 83 N 1 0 0 1 0.354019 0 2
EndChar

StartChar: dotaccent
Encoding: 729 729 177
Width: 534
VWidth: 0
GlyphClass: 2
Flags: W
PickledData: "(dp1
S'com.fontlab.hintData'
p2
(dp3
S'vhints'
p4
((dp5
S'position'
p6
I194
sS'width'
p7
I160
stp8
sS'hhints'
p9
((dp10
g6
I1246
sg7
I163
stp11
ss."
HStem: 1246 163
VStem: 194 160<1293 1456 1293 1456>
AnchorPoint: "top" 315 1030 mark 0
LayerCount: 2
Fore
SplineSet
194 1293 m 1
 194 1456 l 1
 354 1456 l 1
 354 1293 l 1
 194 1293 l 1
EndSplineSet
EndChar

StartChar: dotaccentcmb
Encoding: 775 775 178
Width: 534
VWidth: 0
GlyphClass: 2
Flags: W
PickledData: "(dp1
S'com.fontlab.hintData'
p2
(dp3
S'vhints'
p4
((dp5
S'position'
p6
I194
sS'width'
p7
I160
stp8
sS'hhints'
p9
((dp10
g6
I1246
sg7
I163
stp11
ss."
HStem: 1246 163<194 354 194 354>
VStem: 194 160<1246 1409 1246 1409>
AnchorPoint: "top" 315 1030 mark 0
LayerCount: 2
Fore
SplineSet
194 1246 m 1
 194 1409 l 1
 354 1409 l 1
 354 1246 l 1
 194 1246 l 1
EndSplineSet
EndChar

StartChar: dotlessi
Encoding: 305 305 179
Width: 633
VWidth: 0
GlyphClass: 2
Flags: W
PickledData: "(dp1
S'com.fontlab.hintData'
p2
(dp3
S'vhints'
p4
((dp5
S'position'
p6
I177
sS'width'
p7
I165
stp8
sS'hhints'
p9
((dp10
g6
I-5
sg7
I123
s(dp11
g6
I1006
sg7
I20
stp12
ss."
HStem: -5 123 1006 20<193 357 357 357>
VStem: 177 165
AnchorPoint: "top" 272 1023 basechar 0
LayerCount: 2
Fore
SplineSet
659 26 m 1
 589.223 -2.57229 519.266 -18.0283 455.548 -18.0283 c 0
 307.411 -18.0283 193 65.5138 193 262 c 2
 193 1026 l 1
 357 1026 l 1
 357 267 l 2
 357 148.638 410.783 111.139 483.751 111.139 c 0
 529.764 111.139 583.405 126.05 636 145 c 1
 659 26 l 1
EndSplineSet
EndChar

StartChar: dotlessj
Encoding: 567 567 180
Width: 558
VWidth: 0
GlyphClass: 2
Flags: W
PickledData: "(dp1
S'com.fontlab.hintData'
p2
(dp3
S'vhints'
p4
((dp5
S'position'
p6
I185
sS'width'
p7
I165
stp8
sS'hhints'
p9
((dp10
g6
I-429
sg7
I146
s(dp11
g6
I1006
sg7
I20
stp12
ss."
HStem: -429 146 1006 20<216 381 381 381>
VStem: 185 165
AnchorPoint: "top" 299 1152 basechar 0
LayerCount: 2
Fore
SplineSet
101 -464 m 0
 44 -464 -17 -452 -50 -443 c 1
 -35 -311 l 1
 -35 -311 20 -329 78 -329 c 0
 189 -329 216 -269 216 -76 c 2
 216 1026 l 1
 381 1026 l 1
 381 -84 l 2
 381 -360 302 -464 101 -464 c 0
EndSplineSet
EndChar

StartChar: e
Encoding: 101 101 181
Width: 1022
VWidth: 0
GlyphClass: 2
Flags: W
PickledData: "(dp1
S'com.typemytype.robofont.layerData'
p2
(dp3
S'b'
(dp4
S'name'
p5
S'e'
sS'lib'
p6
(dp7
sS'unicodes'
p8
(tsS'width'
p9
I1022
sS'contours'
p10
((dp11
S'points'
p12
((dp13
S'y'
F-126
sS'x'
F593
sS'smooth'
p14
I00
s(dp15
S'y'
F-53
sS'x'
F96
sg14
I00
s(dp16
S'segmentType'
p17
S'curve'
p18
sS'x'
F96
sg14
I01
sS'y'
F469
s(dp19
S'y'
F767
sS'x'
F96
sg14
I00
s(dp20
S'y'
F1052
sS'x'
F299
sg14
I00
s(dp21
g17
S'curve'
p22
sS'x'
F611
sg14
I01
sS'y'
F1052
s(dp23
S'y'
F1052
sS'x'
F815
sg14
I00
s(dp24
S'y'
F922
sS'x'
F927
sg14
I00
s(dp25
g17
S'curve'
p26
sS'x'
F927
sg14
I01
sS'y'
F755
s(dp27
S'y'
F510
sS'x'
F927
sg14
I00
s(dp28
S'y'
F398
sS'x'
F691
sg14
I00
s(dp29
g17
S'curve'
p30
sS'x'
F274
sg14
I00
sS'y'
F398
s(dp31
S'y'
F-35
sS'x'
F318
sg14
I00
s(dp32
S'y'
F124
sS'x'
F763
sg14
I00
s(dp33
g17
S'curve'
p34
sS'x'
F894
sg14
I00
sS'y'
F213
s(dp35
g17
S'line'
p36
sS'x'
F941
sg14
I00
sS'y'
F97
stp37
s(dp38
g12
((dp39
g17
S'curve'
p40
sS'x'
F273
sg14
I00
sS'y'
F519
s(dp41
S'y'
F519
sS'x'
F575
sg14
I00
s(dp42
S'y'
F596
sS'x'
F772
sg14
I00
s(dp43
g17
S'curve'
p44
sS'x'
F772
sg14
I01
sS'y'
F757
s(dp45
S'y'
F851
sS'x'
F772
sg14
I00
s(dp46
S'y'
F923
sS'x'
F711
sg14
I00
s(dp47
g17
S'curve'
p48
sS'x'
F594
sg14
I01
sS'y'
F920
s(dp49
S'y'
F916
sS'x'
F431
sg14
I00
s(dp50
S'y'
F758
sS'x'
F286
sg14
I00
stp51
stp52
sS'components'
p53
(tsS'anchors'
p54
(tsssS'com.fontlab.hintData'
p55
(dp56
S'vhints'
p57
((dp58
S'position'
p59
I106
sg9
I178
s(dp60
g59
I788
sg9
I163
stp61
sS'hhints'
p62
((dp63
g59
I-22
sg9
I136
s(dp64
g59
I912
sg9
I136
stp65
ss."
HStem: -22 136 912 136
VStem: 106 178 788 163
AnchorPoint: "top" 610 1122 basechar 0
AnchorPoint: "bottom" 650 0 basechar 0
AnchorPoint: "ogonek" 863 56 basechar 0
LayerCount: 2
Fore
SplineSet
274 519 m 1
 571 519 759 596 759 757 c 0
 759 851 701 923 586 920 c 0
 425 916 287 758 274 519 c 1
96 469 m 0
 96 767 296 1052 603 1052 c 0
 803 1052 913 922 913 755 c 0
 913 510 685 398 275 398 c 1
 318 -35 752 124 881 213 c 1
 927 97 l 1
 585 -126 96 -53 96 469 c 0
EndSplineSet
EndChar

StartChar: eight
Encoding: 56 56 189
Width: 1316
VWidth: 0
GlyphClass: 2
Flags: W
PickledData: "(dp1
S'com.fontlab.hintData'
p2
(dp3
S'vhints'
p4
((dp5
S'position'
p6
I184
sS'width'
p7
I177
s(dp8
g6
I219
sg7
I171
s(dp9
g6
I926
sg7
I171
s(dp10
g6
I955
sg7
I177
stp11
sS'hhints'
p12
((dp13
g6
I-24
sg7
I144
s(dp14
g6
I1344
sg7
I136
stp15
ss."
HStem: -24 144 1344 136
VStem: 184 177<313.5 502.5> 219 171 926 171 955 177<317.5 502.5 258 511.5>
LayerCount: 2
Fore
SplineSet
657 889 m 1
 808 918 932 1010 932 1199 c 0
 932 1355 807 1454 657 1454 c 0
 496 1454 384 1342 384 1199 c 0
 384 1010 506 918 657 889 c 1
657 114 m 0
 839 114 955 232 955 403 c 0
 955 620 808 730 657 762 c 1
 494 728 361 606 361 403 c 0
 361 224 484 114 657 114 c 0
657 -24 m 0
 381 -24 184 152 184 396 c 0
 184 609 313 770 486 823 c 1
 334 872 219 1004 219 1197 c 0
 219 1457 431 1586 657 1586 c 0
 916 1586 1097 1421 1097 1197 c 0
 1097 1004 973 872 821 823 c 1
 994 770 1132 609 1132 396 c 0
 1132 120 922 -24 657 -24 c 0
EndSplineSet
EndChar

StartChar: ellipsis
Encoding: 8230 8230 190
Width: 1604
VWidth: 0
GlyphClass: 2
Flags: W
PickledData: "(dp1
S'com.fontlab.hintData'
p2
(dp3
S'vhints'
p4
((dp5
S'position'
p6
I169
sS'width'
p7
I217
s(dp8
g6
I696
sg7
I217
s(dp9
g6
I1223
sg7
I217
stp10
sS'hhints'
p11
((dp12
g6
I-11
sg7
I210
stp13
ss."
HStem: -11 210
VStem: 169 217<0 210 0 210> 696 217<0 210 0 210> 1223 217<0 210 0 210>
LayerCount: 2
Fore
SplineSet
1223 0 m 1
 1223 210 l 1
 1440 210 l 1
 1440 0 l 1
 1223 0 l 1
696 0 m 1
 696 210 l 1
 913 210 l 1
 913 0 l 1
 696 0 l 1
169 0 m 1
 169 210 l 1
 386 210 l 1
 386 0 l 1
 169 0 l 1
EndSplineSet
EndChar

StartChar: emdash
Encoding: 8212 8212 192
Width: 2496
VWidth: 0
GlyphClass: 2
Flags: W
PickledData: "(dp1
S'com.fontlab.hintData'
p2
(dp3
S'hhints'
p4
((dp5
S'position'
p6
I489
sS'width'
p7
I137
stp8
ss."
HStem: 489 137<200 2296 200 2296>
LayerCount: 2
Fore
SplineSet
200 489 m 1
 200 626 l 1
 2296 626 l 1
 2296 489 l 1
 200 489 l 1
EndSplineSet
EndChar

StartChar: endash
Encoding: 8211 8211 193
Width: 1466
VWidth: 0
GlyphClass: 2
Flags: W
PickledData: "(dp1
S'com.fontlab.hintData'
p2
(dp3
S'hhints'
p4
((dp5
S'position'
p6
I489
sS'width'
p7
I137
stp8
ss."
HStem: 489 137<200 1266 200 1266>
LayerCount: 2
Fore
SplineSet
200 489 m 1
 200 626 l 1
 1266 626 l 1
 1266 489 l 1
 200 489 l 1
EndSplineSet
EndChar

StartChar: equal
Encoding: 61 61 195
Width: 1274
VWidth: 0
GlyphClass: 2
Flags: W
PickledData: "(dp1
S'com.fontlab.hintData'
p2
(dp3
S'hhints'
p4
((dp5
S'position'
p6
I403
sS'width'
p7
I137
s(dp8
g6
I809
sg7
I138
stp9
ss."
HStem: 403 137<201 1074 201 1074> 809 138<200 1073 200 1073>
LayerCount: 2
Fore
SplineSet
200 809 m 1
 200 947 l 1
 1073 947 l 1
 1073 809 l 1
 200 809 l 1
201 403 m 1
 201 540 l 1
 1074 540 l 1
 1074 403 l 1
 201 403 l 1
EndSplineSet
EndChar

StartChar: eth
Encoding: 240 240 196
Width: 1173
VWidth: 0
GlyphClass: 2
Flags: W
PickledData: "(dp1
S'com.fontlab.hintData'
p2
(dp3
S'vhints'
p4
((dp5
S'position'
p6
I98
sS'width'
p7
I176
s(dp8
g6
I902
sg7
I175
stp9
sS'hhints'
p10
((dp11
g6
I-23
sg7
I141
s(dp12
g6
I757
sg7
I140
s(dp13
g6
I1026
sg7
I137
s(dp14
g6
I1470
sg7
I20
stp15
ss."
HStem: -23 141 757 140 1026 137 1470 20<467 467>
VStem: 98 176<340 539.5 340 592> 902 175
LayerCount: 2
Fore
SplineSet
582 118 m 0
 798 118 887 310 887 536 c 1
 845 664 745 775 582 775 c 0
 391 775 274 638 274 441 c 0
 274 239 408 118 582 118 c 0
589 -22 m 0
 288 -22 98 186 98 446 c 0
 98 738 299 915 556 915 c 0
 729 915 833 838 902 723 c 1
 902 733 l 2
 902.479 927.848 818.156 1075.25 714.537 1180.7 c 1
 529 1061 l 1
 467 1156 l 1
 625.969 1258.34 l 1
 537.06 1325.68 447.31 1366.25 392 1383 c 1
 467 1490 l 1
 551.395 1462.37 653.64 1414.65 750.197 1338.32 c 1
 933 1456 l 1
 994 1361 l 1
 836.876 1259.63 l 1
 961.395 1129.79 1061.64 941.245 1077 672 c 0
 1078.35 648.238 1079.02 624.874 1079.02 601.946 c 0
 1079.02 234.082 906.227 -22 589 -22 c 0
EndSplineSet
EndChar

StartChar: exclam
Encoding: 33 33 197
Width: 587
VWidth: 0
GlyphClass: 2
Flags: W
PickledData: "(dp1
S'com.fontlab.hintData'
p2
(dp3
S'vhints'
p4
((dp5
S'position'
p6
I182
sS'width'
p7
I227
s(dp8
g6
I197
sg7
I187
s(dp9
g6
I248
sg7
I86
stp10
sS'hhints'
p11
((dp12
g6
I-6
sg7
I223
s(dp13
g6
I1436
sg7
I20
stp14
ss."
HStem: -6 223<267.5 323.5> 1436 20
VStem: 182 227<76 135 70 141> 197 187<1560 1560> 248 86
LayerCount: 2
Fore
SplineSet
258 433 m 1
 197 1560 l 1
 384 1560 l 1
 324 433 l 1
 258 433 l 1
295 -6 m 0
 222 -6 182 46 182 106 c 0
 182 176 239 217 296 217 c 0
 369 217 409 165 409 105 c 0
 409 35 352 -6 295 -6 c 0
EndSplineSet
EndChar

StartChar: f
Encoding: 102 102 199
Width: 681
VWidth: 0
GlyphClass: 2
Flags: W
PickledData: "(dp1
S'com.typemytype.robofont.layerData'
p2
(dp3
S'b'
(dp4
S'name'
p5
S'f'
sS'lib'
p6
(dp7
sS'unicodes'
p8
(tsS'width'
p9
I681
sS'contours'
p10
((dp11
S'points'
p12
((dp13
S'segmentType'
p14
S'line'
p15
sS'x'
I31
sS'smooth'
p16
I00
sS'y'
I920
s(dp17
g14
S'line'
p18
sS'x'
I31
sg16
I00
sS'y'
I1026
s(dp19
g14
S'line'
p20
sS'x'
I663
sg16
I00
sS'y'
I1026
s(dp21
g14
S'line'
p22
sS'x'
I663
sg16
I00
sS'y'
I920
stp23
stp24
sS'components'
p25
(tsS'anchors'
p26
(tsssS'com.fontlab.hintData'
p27
(dp28
S'vhints'
p29
((dp30
S'position'
p31
I263
sg9
I159
stp32
sS'hhints'
p33
((dp34
g31
I-404
sg9
I135
s(dp35
g31
I919
sg9
I107
s(dp36
g31
I1406
sg9
I120
stp37
ss."
HStem: -404 135 919 107 1406 120
VStem: 263 159
AnchorPoint: "top" 543 1464 basechar 0
AnchorPoint: "bottom" 377 0 basechar 0
LayerCount: 2
Fore
SplineSet
31 920 m 1
 31 1026 l 1
 663 1026 l 1
 663 920 l 1
 31 920 l 1
404 0 m 1
 234 0 l 1
 234 1147 l 2
 234 1379 314 1560 689 1560 c 2
 711 1560 l 1
 728 1424 l 1
 706 1424 l 2
 452 1424 404 1335 404 1159 c 2
 404 0 l 1
EndSplineSet
EndChar

StartChar: f.alt
Encoding: 65537 -1 200
Width: 711
VWidth: 0
GlyphClass: 2
Flags: W
PickledData: "(dp1
S'com.fontlab.hintData'
p2
(dp3
S'vhints'
p4
((dp5
S'position'
p6
I263
sS'width'
p7
I159
stp8
sS'hhints'
p9
((dp10
g6
I-404
sg7
I135
s(dp11
g6
I919
sg7
I107
s(dp12
g6
I1406
sg7
I120
stp13
ss."
HStem: -404 135<153 173> 919 107<64 266 64 266 425 671> 1406 120<667 721 667 721>
VStem: 263 159
LayerCount: 2
Fore
SplineSet
173 -404 m 1
 153 -269 l 1
 239 -255 266 -227 266 -76 c 2
 266 919 l 1
 64 919 l 1
 64 1026 l 1
 266 1026 l 1
 266 1194 l 2
 266 1447 404 1526 667 1526 c 2
 721 1526 l 1
 721 1406 l 1
 542 1406 425 1393 425 1196 c 2
 425 1026 l 1
 671 1026 l 1
 671 919 l 1
 425 919 l 1
 425 -83 l 2
 425 -215 403 -393 173 -404 c 1
EndSplineSet
EndChar

StartChar: five
Encoding: 53 53 201
Width: 1316
VWidth: 0
GlyphClass: 2
Flags: W
PickledData: "(dp1
S'com.fontlab.hintData'
p2
(dp3
S'vhints'
p4
((dp5
S'position'
p6
I293
sS'width'
p7
I147
s(dp8
g6
I308
sg7
I153
s(dp9
g6
I975
sg7
I160
stp10
sS'hhints'
p11
((dp12
g6
I-24
sg7
I147
s(dp13
g6
I772
sg7
I145
s(dp14
g6
I1306
sg7
I150
stp15
ss."
HStem: -24 147<604.5 765 604.5 820> 772 145 1306 150
VStem: 293 147<714 830> 308 153<1410 1560> 975 160
LayerCount: 2
Fore
SplineSet
666 -24 m 0
 505 -24 330 46 211 179 c 1
 302 295 l 1
 410 171 545 123 664 123 c 0
 866 123 983 271 983 472 c 0
 983 637 889 796 713 796 c 0
 589 796 491 734 450 672 c 1
 293 714 l 1
 308 1560 l 1
 1039 1560 l 1
 1039 1410 l 1
 461 1410 l 1
 440 830 l 1
 502 896 626 944 721 944 c 0
 971 944 1145 740 1145 470 c 0
 1145 198 974 -24 666 -24 c 0
EndSplineSet
EndChar

StartChar: florin
Encoding: 402 402 202
Width: 1088
VWidth: 0
GlyphClass: 2
Flags: W
PickledData: "(dp1
S'com.fontlab.hintData'
p2
(dp3
S'hhints'
p4
((dp5
S'position'
p6
I-332
sS'width'
p7
I138
s(dp8
g6
I803
sg7
I140
s(dp9
g6
I1294
sg7
I142
stp10
ss."
HStem: -332 138 803 140 1294 142
LayerCount: 2
Fore
SplineSet
176 -242 m 0
 145 -242 110 -237 72 -226 c 1
 84 -88 l 1
 111 -99 137 -104 162 -104 c 0
 274 -104 315 5 332 97 c 2
 480 906 l 1
 321 906 l 1
 339 1026 l 1
 501 1026 l 1
 534 1201 l 2
 570 1393 628 1526 845 1526 c 0
 895 1526 944 1518 988 1507 c 1
 980 1362 l 1
 947 1375 911 1384 871 1384 c 0
 756 1384 717 1326 700 1229 c 2
 665 1026 l 1
 862 1026 l 1
 844 906 l 1
 645 906 l 1
 522 210 l 2
 481 -18 424 -242 176 -242 c 0
EndSplineSet
EndChar

StartChar: four
Encoding: 52 52 203
Width: 1316
VWidth: 0
GlyphClass: 2
Flags: W
PickledData: "(dp1
S'com.fontlab.hintData'
p2
(dp3
S'vhints'
p4
((dp5
S'position'
p6
I758
sS'width'
p7
I172
stp8
sS'hhints'
p9
((dp10
g6
I0
sg7
I21
s(dp11
g6
I370
sg7
I139
s(dp12
g6
I1436
sg7
I20
stp13
ss."
HStem: 0 21<787 930 787 787> 370 139<350 787 350 787 930 1158 930 930> 1436 20
VStem: 758 172
LayerCount: 2
Fore
SplineSet
929 868 m 1
 929 509 l 1
 1158 509 l 1
 1158 370 l 1
 930 370 l 1
 930 0 l 1
 787 0 l 1
 787 370 l 1
 161 370 l 1
 161 499 l 1
 596 1560 l 1
 764 1560 l 1
 350 509 l 1
 787 509 l 1
 787 868 l 1
 929 868 l 1
EndSplineSet
EndChar

StartChar: four.alt
Encoding: 65538 -1 204
Width: 1240
VWidth: 0
GlyphClass: 2
Flags: W
PickledData: "(dp1
S'com.fontlab.hintData'
p2
(dp3
S'vhints'
p4
((dp5
S'position'
p6
I754
sS'width'
p7
I191
stp8
sS'hhints'
p9
((dp10
g6
I0
sg7
I21
s(dp11
g6
I386
sg7
I150
s(dp12
g6
I1436
sg7
I20
stp13
ss."
HStem: 0 21<774 774 774 946> 386 150 1436 20<698 945 945 945>
VStem: 754 191
LayerCount: 2
Fore
SplineSet
319 520 m 1
 774 520 l 1
 774 1287 l 1
 622.000333333 1031.667 470.333666667 776.000333333 319 520 c 1
774 0 m 1
 774 386 l 1
 125 386 l 1
 125 515 l 1
 698 1456 l 1
 945 1456 l 1
 945 520 l 1
 1163 520 l 1
 1163 386 l 1
 946 386 l 1
 946 0 l 1
 774 0 l 1
EndSplineSet
EndChar

StartChar: fraction
Encoding: 8260 8260 205
Width: 982
VWidth: 0
GlyphClass: 2
Flags: W
PickledData: "(dp1
S'com.fontlab.hintData'
p2
(dp3
S'hhints'
p4
((dp5
S'position'
p6
I0
sS'width'
p7
I21
stp8
ss."
HStem: 0 21<0 0 0 151>
LayerCount: 2
Fore
SplineSet
0 0 m 1
 833 1456 l 1
 982 1456 l 1
 151 0 l 1
 0 0 l 1
EndSplineSet
EndChar

StartChar: g
Encoding: 103 103 206
Width: 1136
VWidth: 0
GlyphClass: 2
Flags: W
PickledData: "(dp1
S'com.typemytype.robofont.layerData'
p2
(dp3
S'b'
(dp4
S'name'
p5
S'g'
sS'lib'
p6
(dp7
sS'unicodes'
p8
(tsS'width'
p9
I1136
sS'contours'
p10
((dp11
S'points'
p12
((dp13
S'segmentType'
p14
S'curve'
p15
sS'x'
F521
sS'smooth'
p16
I01
sS'y'
F110
s(dp17
S'y'
F110
sS'x'
F706
sg16
I00
s(dp18
S'y'
F260
sS'x'
F810
sg16
I00
s(dp19
g14
S'curve'
p20
sS'x'
F810
sg16
I01
sS'y'
F453
s(dp21
g14
S'line'
p22
sS'x'
F810
sg16
I00
sS'y'
F894
s(dp23
S'y'
F907
sS'x'
F770
sg16
I00
s(dp24
S'y'
F920
sS'x'
F733
sg16
I00
s(dp25
g14
S'curve'
p26
sS'x'
F661
sg16
I01
sS'y'
F920
s(dp27
S'y'
F920
sS'x'
F439
sg16
I00
s(dp28
S'y'
F737
sS'x'
F272
sg16
I00
s(dp29
g14
S'curve'
p30
sS'x'
F272
sg16
I01
sS'y'
F439
s(dp31
S'y'
F239
sS'x'
F272
sg16
I00
s(dp32
S'y'
F110
sS'x'
F368
sg16
I00
stp33
s(dp34
g12
((dp35
g14
S'curve'
p36
sS'x'
F497
sg16
I01
sS'y'
F-22
s(dp37
S'y'
F-22
sS'x'
F262
sg16
I00
s(dp38
S'y'
F162
sS'x'
F96
sg16
I00
s(dp39
g14
S'curve'
p40
sS'x'
F96
sg16
I01
sS'y'
F438
s(dp41
S'y'
F804
sS'x'
F96
sg16
I00
s(dp42
S'y'
F1052
sS'x'
F338
sg16
I00
s(dp43
g14
S'curve'
p44
sS'x'
F663
sg16
I01
sS'y'
F1052
s(dp45
S'y'
F1052
sS'x'
F790
sg16
I00
s(dp46
S'y'
F1017
sS'x'
F902
sg16
I00
s(dp47
g14
S'curve'
p48
sS'x'
F980
sg16
I00
sS'y'
F976
s(dp49
g14
S'line'
p50
sS'x'
F980
sg16
I01
sS'y'
F348
s(dp51
g14
S'line'
p52
sS'x'
F833
sg16
I00
sS'y'
F161
s(dp53
S'y'
F48
sS'x'
F767
sg16
I00
s(dp54
S'y'
F-22
sS'x'
F646
sg16
I00
stp55
stp56
sS'components'
p57
(tsS'anchors'
p58
(tsssS'com.typemytype.robofont.guides'
p59
((dp60
S'angle'
p61
F90
sg5
NsS'magnetic'
p62
I5
sS'isGlobal'
p63
I00
sS'y'
I447
sS'x'
I980
stp64
sS'com.fontlab.hintData'
p65
(dp66
S'vhints'
p67
((dp68
S'position'
p69
I110
sg9
I170
s(dp70
g69
I849
sg9
I164
stp71
sS'hhints'
p72
((dp73
g69
I-494
sg9
I137
s(dp74
g69
I-22
sg9
I136
s(dp75
g69
I912
sg9
I136
stp76
ss."
HStem: -494 137 -22 136 912 136
VStem: 110 170 849 164
AnchorPoint: "top" 652 1027 basechar 0
AnchorPoint: "bottom" 588 -512 basechar 0
LayerCount: 2
Fore
SplineSet
272 439 m 0
 272 737 439 920 661 920 c 0
 733 920 770 907 810 894 c 1
 810 453 l 2
 810 260 706 110 521 110 c 0
 368 110 272 239 272 439 c 0
470 -562 m 0
 817 -562 980 -309 980 9 c 2
 980 976 l 1
 902 1017 790 1052 663 1052 c 0
 338 1052 96 804 96 438 c 0
 96 162 262 -22 497 -22 c 0
 630 -22 741 34 810 126 c 1
 810 -12 l 2
 810 -272 695 -420 462 -420 c 0
 383 -420 293 -407 188 -370 c 1
 170 -513 l 1
 283 -549 382 -562 470 -562 c 0
EndSplineSet
EndChar

StartChar: gcommaaccent
Encoding: 291 291 209
Width: 1129
VWidth: 0
GlyphClass: 2
Flags: W
PickledData: "(dp1
S'com.fontlab.hintData'
p2
(dp3
S'vhints'
p4
((dp5
S'position'
p6
I100
sS'width'
p7
I170
s(dp8
g6
I845
sg7
I164
stp9
sS'hhints'
p10
((dp11
g6
I-494
sg7
I137
s(dp12
g6
I-22
sg7
I138
s(dp13
g6
I907
sg7
I141
stp14
ss."
HStem: -494 137<475.5 611.5 468.5 667.5> -22 138<452 574> 907 141<541 693.5>
VStem: 100 170<348.5 585.5 348.5 621> 845 164<-44 -23 -23 133 133 133 453 872 872 872>
LayerCount: 2
Fore
SplineSet
426 1162 m 1
 583 1625 l 1
 709 1625 l 1
 606 1162 l 1
 426 1162 l 1
530 116 m 0
 719 116 845 261 845 453 c 2
 845 872 l 1
 805 893 730 907 657 907 c 0
 425 907 270 723 270 448 c 0
 270 249 374 116 530 116 c 0
524 -494 m 0
 427 -494 299 -470 199 -433 c 1
 218 -280 l 1
 308 -326 426 -357 511 -357 c 0
 712 -357 845 -232 845 -44 c 2
 845 133 l 1
 773 39 642 -22 506 -22 c 0
 266 -22 100 162 100 438 c 0
 100 804 328 1048 660 1048 c 0
 789 1048 929 1014 1009 962 c 1
 1009 -23 l 2
 1009 -306 811 -494 524 -494 c 0
EndSplineSet
EndChar

StartChar: germandbls
Encoding: 223 223 211
Width: 1263
VWidth: 0
GlyphClass: 2
Flags: W
PickledData: "(dp1
S'com.fontlab.hintData'
p2
(dp3
S'vhints'
p4
((dp5
S'position'
p6
I184
sS'width'
p7
I163
s(dp8
g6
I833
sg7
I188
s(dp9
g6
I996
sg7
I187
stp10
sS'hhints'
p11
((dp12
g6
I-23
sg7
I132
s(dp13
g6
I0
sg7
I21
s(dp14
g6
I1382
sg7
I129
stp15
ss."
HStem: -23 132 0 21<184 349 184 184> 1382 129
VStem: 184 163 833 188 996 187
LayerCount: 2
Fore
SplineSet
1181 341 m 0
 1181 102 988 -22 800 -22 c 0
 656 -22 551 47 479 138 c 1
 544 243 l 1
 605 173 687 109 796 109 c 0
 919 109 1024 199 1024 324 c 0
 1024 580 770 616 585 713 c 0
 551.239 730.594 532.853 759.719 532.853 790.054 c 0
 532.853 823.514 555.222 858.447 604 881 c 0
 750 948 819 1064 819 1164 c 0
 819 1266 747 1351 611 1351 c 0
 421 1351 344 1197 345 1007 c 2
 349 0 l 1
 184 0 l 1
 182 1040 l 2
 182 1325 347 1480 612 1480 c 0
 877 1480 996 1329 996 1168 c 0
 996 1026 902 876 735 819 c 0
 714.252 811.738 701.576 804.208 701.576 796.547 c 0
 701.576 789.439 712.491 782.22 738 775 c 0
 986 704 1181 601 1181 341 c 0
EndSplineSet
EndChar

StartChar: grave
Encoding: 96 96 212
Width: 629
VWidth: 0
GlyphClass: 2
Flags: W
PickledData: "(dp1
S'com.fontlab.hintData'
p2
(dp3
S'vhints'
p4
((dp5
S'position'
p6
I24
sS'width'
p7
I461
stp8
sS'hhints'
p9
((dp10
g6
I1172
sg7
I320
stp11
ss."
HStem: 1172 320
VStem: 24 461
LayerCount: 2
Fore
SplineSet
416 1160 m 1
 84 1480 l 1
 298 1480 l 1
 545 1160 l 1
 416 1160 l 1
EndSplineSet
EndChar

StartChar: greater
Encoding: 62 62 214
Width: 1165
VWidth: 0
GlyphClass: 2
Flags: W
LayerCount: 2
Fore
SplineSet
91 58 m 1
 91 212 l 1
 859 555 l 1
 96 926 l 1
 96 1078 l 1
 1080 594 l 1
 1080 505 l 1
 91 58 l 1
EndSplineSet
EndChar

StartChar: greaterequal
Encoding: 8805 8805 215
Width: 1339
VWidth: 0
GlyphClass: 2
Flags: W
PickledData: "(dp1
S'com.fontlab.hintData'
p2
(dp3
S'hhints'
p4
((dp5
S'position'
p6
I9
sS'width'
p7
I122
stp8
ss."
HStem: 9 122
LayerCount: 2
Fore
SplineSet
206 1252 m 1
 1141 779 l 1
 1141 699 l 1
 202 249 l 1
 202 390 l 1
 963 738 l 1
 206 1112 l 1
 206 1252 l 1
171 0 m 1
 171 122 l 1
 1160 122 l 1
 1160 0 l 1
 171 0 l 1
EndSplineSet
EndChar

StartChar: guillemotleft
Encoding: 171 171 216
Width: 965
VWidth: 0
GlyphClass: 2
Flags: W
LayerCount: 2
Fore
SplineSet
714 173 m 1
 452 543 l 1
 719 916 l 1
 878 916 l 1
 615 543 l 1
 871 173 l 1
 714 173 l 1
355 173 m 1
 87 543 l 1
 361 916 l 1
 514 916 l 1
 257 543 l 1
 506 173 l 1
 355 173 l 1
EndSplineSet
EndChar

StartChar: guillemotright
Encoding: 187 187 217
Width: 990
VWidth: 0
GlyphClass: 2
Flags: W
LayerCount: 2
Fore
SplineSet
253 916 m 1
 515 544 l 1
 248 173 l 1
 88 173 l 1
 352 544 l 1
 95 916 l 1
 253 916 l 1
636 916 m 1
 905 544 l 1
 631 173 l 1
 480 173 l 1
 733 544 l 1
 487 916 l 1
 636 916 l 1
EndSplineSet
EndChar

StartChar: guilsinglleft
Encoding: 8249 8249 218
Width: 652
VWidth: 0
GlyphClass: 2
Flags: W
PickledData: "(dp1
S'com.fontlab.hintData'
p2
(dp3
S'vhints'
p4
((dp5
S'position'
p6
I115
sS'width'
p7
I433
stp8
ss."
VStem: 115 433<541 914>
LayerCount: 2
Fore
SplineSet
384 171 m 1
 115 541 l 1
 389 914 l 1
 548 914 l 1
 285 541 l 1
 540 171 l 1
 384 171 l 1
EndSplineSet
EndChar

StartChar: guilsinglright
Encoding: 8250 8250 219
Width: 652
VWidth: 0
GlyphClass: 2
Flags: W
PickledData: "(dp1
S'com.fontlab.hintData'
p2
(dp3
S'vhints'
p4
((dp5
S'position'
p6
I113
sS'width'
p7
I434
stp8
ss."
VStem: 113 434
LayerCount: 2
Fore
SplineSet
306 914 m 1
 577 542 l 1
 300 171 l 1
 143 171 l 1
 405 542 l 1
 151 914 l 1
 306 914 l 1
EndSplineSet
EndChar

StartChar: h
Encoding: 104 104 220
Width: 1225
VWidth: 0
GlyphClass: 2
Flags: W
PickledData: "(dp1
S'com.typemytype.robofont.layerData'
p2
(dp3
S'b'
(dp4
S'name'
p5
S'h'
sS'lib'
p6
(dp7
sS'unicodes'
p8
(tsS'width'
p9
I1225
sS'contours'
p10
((dp11
S'points'
p12
((dp13
S'segmentType'
p14
S'curve'
p15
sS'x'
F1187
sS'smooth'
p16
I00
sS'y'
F118
s(dp17
g14
S'line'
p18
sS'x'
F1160
sg16
I00
sS'y'
F-14
s(dp19
S'y'
F-14
sS'x'
F921
sg16
I00
s(dp20
S'y'
F111
sS'x'
F849
sg16
I00
s(dp21
g14
S'curve'
p22
sS'x'
F856
sg16
I01
sS'y'
F338
s(dp23
g14
S'line'
p24
sS'x'
F856
sg16
I01
sS'y'
F607
s(dp25
S'y'
F828
sS'x'
F863
sg16
I00
s(dp26
S'y'
F918
sS'x'
F800
sg16
I00
s(dp27
g14
S'curve'
p28
sS'x'
F668
sg16
I01
sS'y'
F920
s(dp29
S'y'
F923
sS'x'
F480
sg16
I00
s(dp30
S'y'
F773
sS'x'
F334
sg16
I00
s(dp31
g14
S'curve'
p32
sS'x'
F334
sg16
I00
sS'y'
F552
s(dp33
g14
S'line'
p34
sS'x'
F246
sg16
I00
sS'y'
F690
s(dp35
S'y'
F939
sS'x'
F323
sg16
I00
s(dp36
S'y'
F1051
sS'x'
F471
sg16
I00
s(dp37
g14
S'curve'
p38
sS'x'
F686
sg16
I01
sS'y'
F1052
s(dp39
S'y'
F1053
sS'x'
F875
sg16
I00
s(dp40
S'y'
F948
sS'x'
F1026
sg16
I00
s(dp41
g14
S'curve'
p42
sS'x'
F1026
sg16
I01
sS'y'
F625
s(dp43
g14
S'line'
p44
sS'x'
F1026
sg16
I01
sS'y'
F345
s(dp45
S'y'
F204
sS'x'
F1026
sg16
I00
s(dp46
S'y'
F130
sS'x'
F1047
sg16
I00
stp47
stp48
sS'components'
p49
(tsS'anchors'
p50
(tsssS'com.fontlab.hintData'
p51
(dp52
S'vhints'
p53
((dp54
S'position'
p55
I143
sg9
I164
s(dp56
g55
I845
sg9
I164
stp57
sS'hhints'
p58
((dp59
g55
I-20
sg9
I130
s(dp60
g55
I0
sg9
I21
s(dp61
g55
I1480
sg9
I20
stp62
ss."
HStem: -20 130 0 21<168 338 168 168> 1480 20
VStem: 143 164 845 164
AnchorPoint: "top" 720 1260 basechar 0
AnchorPoint: "bottom" 628 0 basechar 0
LayerCount: 2
Fore
SplineSet
1170 118 m 1
 1150 -14 l 1
 911 -14 840 111 847 338 c 1
 847 607 l 1
 854 828 795 918 663 920 c 0
 475 923 339 773 339 552 c 1
 251 690 l 1
 328 939 466 1051 681 1052 c 0
 870 1053 1017 948 1017 625 c 2
 1017 345 l 2
 1017 204 1030 130 1170 118 c 1
338 0 m 1
 168 0 l 1
 168 1560 l 1
 338 1560 l 1
 338 0 l 1
EndSplineSet
EndChar

StartChar: hbar
Encoding: 295 295 221
Width: 1233
VWidth: 0
GlyphClass: 2
Flags: W
PickledData: "(dp1
S'com.typemytype.robofont.layerData'
p2
(dp3
S'b'
(dp4
S'name'
p5
S'hbar'
p6
sS'lib'
p7
(dp8
sS'unicodes'
p9
(tsS'width'
p10
I1233
sS'contours'
p11
(tsS'components'
p12
(tsS'anchors'
p13
(tsssS'com.fontlab.hintData'
p14
(dp15
S'vhints'
p16
((dp17
S'position'
p18
I162
sg10
I164
s(dp19
g18
I853
sg10
I165
stp20
sS'hhints'
p21
((dp22
g18
I-19
sg10
I138
s(dp23
g18
I0
sg10
I21
s(dp24
g18
I907
sg10
I141
s(dp25
g18
I1506
sg10
I20
s(dp26
g18
I1624
sg10
I134
stp27
ss."
HStem: -19 138 0 21 907 141 1506 20 1624 134
VStem: 162 164 853 165
LayerCount: 2
Fore
SplineSet
55 1207 m 1
 55 1341 l 1
 606 1341 l 1
 606 1207 l 1
 55 1207 l 1
EndSplineSet
Refer: 220 104 N 1 0 0 1 0 0 2
EndChar

StartChar: hungarumlaut
Encoding: 733 733 223
Width: 972
VWidth: 0
GlyphClass: 2
Flags: W
PickledData: "(dp1
S'com.fontlab.hintData'
p2
(dp3
S'vhints'
p4
((dp5
S'position'
p6
I172
sS'width'
p7
I656
stp8
sS'hhints'
p9
((dp10
g6
I1174
sg7
I313
stp11
ss."
HStem: 1174 313
VStem: 172 656<1143 1456>
AnchorPoint: "top" 316 1152 mark 0
LayerCount: 2
Fore
SplineSet
438 1143 m 1
 652 1456 l 1
 828 1456 l 1
 553 1143 l 1
 438 1143 l 1
172 1143 m 1
 389 1456 l 1
 559 1456 l 1
 290 1143 l 1
 172 1143 l 1
EndSplineSet
EndChar

StartChar: hyphen
Encoding: 45 45 224
Width: 1199
VWidth: 0
GlyphClass: 2
Flags: W
PickledData: "(dp1
S'com.fontlab.hintData'
p2
(dp3
S'hhints'
p4
((dp5
S'position'
p6
I637
sS'width'
p7
I143
stp8
ss."
HStem: 637 143<200 999 200 999>
LayerCount: 2
Fore
SplineSet
200 637 m 1
 200 780 l 1
 999 780 l 1
 999 637 l 1
 200 637 l 1
EndSplineSet
EndChar

StartChar: i
Encoding: 105 105 225
Width: 609
VWidth: 0
GlyphClass: 2
Flags: W
PickledData: "(dp1
S'com.typemytype.robofont.layerData'
p2
(dp3
S'b'
(dp4
S'name'
p5
S'i'
sS'lib'
p6
(dp7
sS'unicodes'
p8
(tsS'width'
p9
I609
sS'contours'
p10
((dp11
S'points'
p12
((dp13
S'segmentType'
p14
S'curve'
p15
sS'x'
I-44
sS'smooth'
p16
I01
sS'y'
I-22
s(dp17
S'y'
I-22
sS'x'
I-279
sg16
I00
s(dp18
S'y'
I162
sS'x'
I-453
sg16
I00
s(dp19
g14
S'curve'
p20
sS'x'
I-453
sg16
I01
sS'y'
I438
s(dp21
S'y'
I804
sS'x'
I-453
sg16
I00
s(dp22
S'y'
I1052
sS'x'
I-218
sg16
I00
s(dp23
g14
S'curve'
p24
sS'x'
I107
sg16
I01
sS'y'
I1052
s(dp25
S'y'
I1052
sS'x'
I234
sg16
I00
s(dp26
S'y'
I1017
sS'x'
I346
sg16
I00
s(dp27
g14
S'curve'
p28
sS'x'
I424
sg16
I00
sS'y'
I976
s(dp29
g14
S'line'
p30
sS'x'
I424
sg16
I01
sS'y'
I348
s(dp31
S'y'
I170
sS'x'
I424
sg16
I00
s(dp32
S'y'
I121
sS'x'
I442
sg16
I00
s(dp33
g14
S'curve'
p34
sS'x'
I569
sg16
I00
sS'y'
I121
s(dp35
g14
S'line'
p36
sS'x'
I541
sg16
I00
sS'y'
I-14
s(dp37
S'y'
I-14
sS'x'
I378
sg16
I00
s(dp38
S'y'
I46
sS'x'
I310
sg16
I00
s(dp39
g14
S'curve'
p40
sS'x'
I283
sg16
I00
sS'y'
I158
s(dp41
S'y'
I45
sS'x'
I217
sg16
I00
s(dp42
S'y'
I-22
sS'x'
I105
sg16
I00
stp43
s(dp44
g12
((dp45
g14
S'curve'
p46
sS'x'
I-20
sg16
I01
sS'y'
I110
s(dp47
S'y'
I110
sS'x'
I133
sg16
I00
s(dp48
S'y'
I220
sS'x'
I224
sg16
I00
s(dp49
g14
S'curve'
p50
sS'x'
I254
sg16
I00
sS'y'
I303
s(dp51
g14
S'line'
p52
sS'x'
I254
sg16
I00
sS'y'
I894
s(dp53
S'y'
I907
sS'x'
I214
sg16
I00
s(dp54
S'y'
I920
sS'x'
I177
sg16
I00
s(dp55
g14
S'curve'
p56
sS'x'
I105
sg16
I01
sS'y'
I920
s(dp57
S'y'
I920
sS'x'
I-117
sg16
I00
s(dp58
S'y'
I737
sS'x'
I-277
sg16
I00
s(dp59
g14
S'curve'
p60
sS'x'
I-277
sg16
I01
sS'y'
I439
s(dp61
S'y'
I239
sS'x'
I-277
sg16
I00
s(dp62
S'y'
I110
sS'x'
I-173
sg16
I00
stp63
stp64
sS'components'
p65
(tsS'anchors'
p66
(tsssS'com.fontlab.hintData'
p67
(dp68
S'vhints'
p69
((dp70
S'position'
p71
I196
sg9
I215
s(dp72
g71
I219
sg9
I164
stp73
sS'hhints'
p74
((dp75
g71
I1006
sg9
I20
s(dp76
g71
I1245
sg9
I199
stp77
ss."
HStem: 1006 20<188 358 358 358> 1245 199
VStem: 196 215 219 164
AnchorPoint: "bottom" 282 1 basechar 0
LayerCount: 2
Fore
SplineSet
548 -10 m 1
 202 -40 188 128 188 326 c 2
 188 1026 l 1
 358 1026 l 1
 358 320 l 2
 358 185 346 112 576 124 c 1
 548 -10 l 1
281 1236 m 2
 221 1236 161 1274 161 1347 c 0
 161 1421 221 1458 281 1458 c 2
 282 1458 l 2
 340 1458 399 1420 399 1346 c 0
 399 1273 341 1236 282 1236 c 2
 281 1236 l 2
EndSplineSet
EndChar

StartChar: infinity
Encoding: 8734 8734 233
Width: 1683
VWidth: 0
GlyphClass: 2
Flags: W
PickledData: "(dp1
S'com.fontlab.hintData'
p2
(dp3
S'vhints'
p4
((dp5
S'position'
p6
I106
sS'width'
p7
I130
s(dp8
g6
I1442
sg7
I139
stp9
sS'hhints'
p10
((dp11
g6
I236
sg7
I119
s(dp12
g6
I829
sg7
I115
stp13
ss."
HStem: 236 119<400.5 544.5 400.5 545 1158 1304.5> 829 115<381 529 1147 1284.5>
VStem: 106 130<518 654 518 715> 1442 139<542 686.5>
LayerCount: 2
Fore
SplineSet
1232 355 m 0
 1377 355 1442 466 1442 618 c 0
 1442 755 1342 829 1227 829 c 0
 1067 829 983 702 911 592 c 1
 999 473 1065 355 1232 355 c 0
464 355 m 0
 625 355 702 481 778 589 c 1
 700 705 604 829 454 829 c 0
 308 829 236 716 236 592 c 0
 236 444 337 355 464 355 c 0
461 236 m 0
 234 236 106 416 106 612 c 0
 106 818 254 944 456 944 c 0
 652 944 750 823 847 692 c 1
 939 817 1049 944 1231 944 c 0
 1453 944 1581 793 1581 595 c 0
 1581 366 1408 236 1229 236 c 0
 1087 236 971 320 845 488 c 1
 752 363 629 236 461 236 c 0
EndSplineSet
EndChar

StartChar: integral
Encoding: 8747 8747 234
Width: 794
VWidth: 0
GlyphClass: 2
Flags: W
PickledData: "(dp1
S'com.fontlab.hintData'
p2
(dp3
S'vhints'
p4
((dp5
S'position'
p6
I402
sS'width'
p7
I164
stp8
sS'hhints'
p9
((dp10
g6
I-399
sg7
I135
s(dp11
g6
I1481
sg7
I21
s(dp12
g6
I1496
sg7
I135
stp13
ss."
HStem: -399 135 1481 21 1496 135
VStem: 402 164
LayerCount: 2
Fore
SplineSet
180 -259 m 0
 121 -259 92 -251 44 -238 c 1
 42 -109 l 1
 68 -119 115 -124 152 -124 c 0
 288 -124 312 -43 312 93 c 2
 312 1150 l 2
 312 1372 388 1526 610 1526 c 0
 665 1526 702 1515 746 1505 c 1
 748 1376 l 1
 722 1386 675 1391 638 1391 c 0
 502 1391 476 1310 476 1174 c 2
 476 117 l 2
 476 -105 402 -259 180 -259 c 0
EndSplineSet
EndChar

StartChar: j
Encoding: 106 106 237
Width: 557
VWidth: 0
GlyphClass: 2
Flags: W
PickledData: "(dp1
S'com.typemytype.robofont.layerData'
p2
(dp3
S'b'
(dp4
S'name'
p5
S'j'
sS'lib'
p6
(dp7
sS'unicodes'
p8
(tsS'width'
p9
I557
sS'contours'
p10
(tsS'components'
p11
(tsS'anchors'
p12
(tsssS'com.fontlab.hintData'
p13
(dp14
S'vhints'
p15
((dp16
S'position'
p17
I193
sg9
I215
s(dp18
g17
I217
sg9
I164
stp19
sS'hhints'
p20
((dp21
g17
I-463
sg9
I131
s(dp22
g17
I1006
sg9
I20
s(dp23
g17
I1245
sg9
I199
stp24
ss."
HStem: -463 131 1006 20<222 392 392 392> 1245 199
VStem: 193 215 217 164
AnchorPoint: "top" 700 1536 basechar 0
AnchorPoint: "bottom" 676 0 basechar 0
LayerCount: 2
Fore
SplineSet
112 -464 m 0
 55 -464 -6 -452 -39 -443 c 1
 -24 -311 l 1
 -24 -311 31 -329 89 -329 c 0
 200 -329 222 -269 222 -76 c 2
 222 1026 l 1
 392 1026 l 1
 392 -84 l 2
 392 -360 313 -464 112 -464 c 0
311 1236 m 2
 251 1236 191 1274 191 1347 c 0
 191 1421 251 1458 311 1458 c 2
 312 1458 l 2
 370 1458 429 1420 429 1346 c 0
 429 1273 371 1236 312 1236 c 2
 311 1236 l 2
EndSplineSet
EndChar

StartChar: k
Encoding: 107 107 239
Width: 1040
VWidth: 0
GlyphClass: 2
Flags: W
PickledData: "(dp1
S'com.typemytype.robofont.layerData'
p2
(dp3
S'b'
(dp4
S'name'
p5
S'k'
sS'lib'
p6
(dp7
sS'unicodes'
p8
(tsS'width'
p9
I1040
sS'contours'
p10
(tsS'components'
p11
(tsS'anchors'
p12
(tsssS'com.fontlab.hintData'
p13
(dp14
S'vhints'
p15
((dp16
S'position'
p17
I154
sg9
I164
stp18
sS'hhints'
p19
((dp20
g17
I1006
sg9
I20
s(dp21
g17
I1506
sg9
I20
stp22
ss."
HStem: 1006 20<779 986 986 986> 1506 20
VStem: 154 164
AnchorPoint: "top" 759 1152 basechar 0
AnchorPoint: "bottom" 608 -1 basechar 0
LayerCount: 2
Fore
SplineSet
338 0 m 1
 168 0 l 1
 168 1560 l 1
 338 1560 l 1
 338 556.47 l 1
 779 1026 l 1
 986 1026 l 1
 494 513 l 1
 1048 0 l 1
 831 0 l 1
 338 459.845 l 1
 338 0 l 1
EndSplineSet
EndChar

StartChar: k.alt
Encoding: 65539 -1 240
Width: 1068
VWidth: 0
GlyphClass: 2
Flags: W
PickledData: "(dp1
S'com.fontlab.hintData'
p2
(dp3
S'vhints'
p4
((dp5
S'position'
p6
I188
sS'width'
p7
I163
stp8
sS'hhints'
p9
((dp10
g6
I0
sg7
I21
s(dp11
g6
I1006
sg7
I20
s(dp12
g6
I1506
sg7
I20
stp13
ss."
HStem: 0 21<188 188 188 313 872 872 872 1053> 1006 20<808 985 985 985> 1506 20<188 351 351 351>
VStem: 188 163<308 1526 308 1526 308 1526>
LayerCount: 2
Fore
SplineSet
188 0 m 1
 188 1526 l 1
 351 1526 l 1
 351 308 l 1
 808 1026 l 1
 985 1026 l 1
 689 580 l 1
 1053 0 l 1
 872 0 l 1
 602 445 l 1
 313 0 l 1
 188 0 l 1
EndSplineSet
EndChar

StartChar: k.alt.2
Encoding: 65540 -1 241
Width: 1126
VWidth: 0
GlyphClass: 2
Flags: W
PickledData: "(dp1
S'com.fontlab.hintData'
p2
(dp3
S'vhints'
p4
((dp5
S'position'
p6
I162
sS'width'
p7
I164
stp8
sS'hhints'
p9
((dp10
g6
I1006
sg7
I20
s(dp11
g6
I1506
sg7
I20
stp12
ss."
HStem: 1006 20<860 860> 1506 20<172 336 336 336>
VStem: 162 164
LayerCount: 2
Fore
SplineSet
1120 131 m 1
 1108 -4 l 1
 1074.54 -17.4617 1043.63 -23.634 1014.67 -23.634 c 0
 897.314 -23.634 811.838 77.6746 718 206 c 2
 582 390 l 1
 317 27 l 1
 293.927 -1.10768 264.693 -14.6078 238.529 -14.6078 c 0
 202.326 -14.6078 172 11.2395 172 60 c 2
 172 1526 l 1
 336 1526 l 1
 336 288 l 1
 860 1026 l 1
 1008 976 l 1
 671 512 l 1
 831 295 l 2
 895.525 207.373 960.051 110.227 1047.83 110.227 c 0
 1070.24 110.227 1094.17 116.559 1120 131 c 1
EndSplineSet
EndChar

StartChar: kgreenlandic
Encoding: 312 312 243
Width: 1071
VWidth: 0
GlyphClass: 2
Flags: W
PickledData: "(dp1
S'com.fontlab.hintData'
p2
(dp3
S'vhints'
p4
((dp5
S'position'
p6
I188
sS'width'
p7
I165
stp8
sS'hhints'
p9
((dp10
g6
I0
sg7
I21
s(dp11
g6
I1006
sg7
I20
stp12
ss."
HStem: 0 21<188 188 188 353 843 843 843 1062> 1006 20<188 353 353 353 800 1024 1024 1024>
VStem: 188 165<0 471 557 1026>
LayerCount: 2
Fore
SplineSet
188 0 m 1
 188 1026 l 1
 353 1026 l 1
 353 557 l 1
 800 1026 l 1
 1024 1026 l 1
 508 512 l 1
 691 338 871 174 1062 0 c 1
 843 0 l 1
 353 471 l 1
 353 0 l 1
 188 0 l 1
EndSplineSet
EndChar

StartChar: l
Encoding: 108 108 244
Width: 617
VWidth: 0
GlyphClass: 2
Flags: W
PickledData: "(dp1
S'com.typemytype.robofont.layerData'
p2
(dp3
S'b'
(dp4
S'name'
p5
S'l'
sS'lib'
p6
(dp7
sS'unicodes'
p8
(tsS'width'
p9
I617
sS'contours'
p10
((dp11
S'points'
p12
((dp13
S'segmentType'
p14
S'curve'
p15
sS'x'
I-35
sS'smooth'
p16
I01
sS'y'
I-22
s(dp17
S'y'
I-22
sS'x'
I-270
sg16
I00
s(dp18
S'y'
I162
sS'x'
I-444
sg16
I00
s(dp19
g14
S'curve'
p20
sS'x'
I-444
sg16
I01
sS'y'
I438
s(dp21
S'y'
I804
sS'x'
I-444
sg16
I00
s(dp22
S'y'
I1052
sS'x'
I-209
sg16
I00
s(dp23
g14
S'curve'
p24
sS'x'
I116
sg16
I01
sS'y'
I1052
s(dp25
S'y'
I1052
sS'x'
I243
sg16
I00
s(dp26
S'y'
I1017
sS'x'
I355
sg16
I00
s(dp27
g14
S'curve'
p28
sS'x'
I433
sg16
I00
sS'y'
I976
s(dp29
g14
S'line'
p30
sS'x'
I433
sg16
I01
sS'y'
I348
s(dp31
S'y'
I170
sS'x'
I433
sg16
I00
s(dp32
S'y'
I121
sS'x'
I451
sg16
I00
s(dp33
g14
S'curve'
p34
sS'x'
I578
sg16
I00
sS'y'
I121
s(dp35
g14
S'line'
p36
sS'x'
I550
sg16
I00
sS'y'
I-14
s(dp37
S'y'
I-14
sS'x'
I387
sg16
I00
s(dp38
S'y'
I46
sS'x'
I319
sg16
I00
s(dp39
g14
S'curve'
p40
sS'x'
I292
sg16
I00
sS'y'
I158
s(dp41
S'y'
I45
sS'x'
I226
sg16
I00
s(dp42
S'y'
I-22
sS'x'
I114
sg16
I00
stp43
s(dp44
g12
((dp45
g14
S'curve'
p46
sS'x'
I-11
sg16
I01
sS'y'
I110
s(dp47
S'y'
I110
sS'x'
I142
sg16
I00
s(dp48
S'y'
I220
sS'x'
I233
sg16
I00
s(dp49
g14
S'curve'
p50
sS'x'
I263
sg16
I00
sS'y'
I303
s(dp51
g14
S'line'
p52
sS'x'
I263
sg16
I00
sS'y'
I894
s(dp53
S'y'
I907
sS'x'
I223
sg16
I00
s(dp54
S'y'
I920
sS'x'
I186
sg16
I00
s(dp55
g14
S'curve'
p56
sS'x'
I114
sg16
I01
sS'y'
I920
s(dp57
S'y'
I920
sS'x'
I-108
sg16
I00
s(dp58
S'y'
I737
sS'x'
I-268
sg16
I00
s(dp59
g14
S'curve'
p60
sS'x'
I-268
sg16
I01
sS'y'
I439
s(dp61
S'y'
I239
sS'x'
I-268
sg16
I00
s(dp62
S'y'
I110
sS'x'
I-164
sg16
I00
stp63
stp64
sS'components'
p65
(tsS'anchors'
p66
(tsssS'com.fontlab.hintData'
p67
(dp68
S'vhints'
p69
((dp70
S'position'
p71
I204
sg9
I164
stp72
sS'hhints'
p73
((dp74
g71
I-18
sg9
I126
s(dp75
g71
I1506
sg9
I20
stp76
ss."
HStem: -18 126 1506 20
VStem: 204 164
AnchorPoint: "top" 298 1474 basechar 0
AnchorPoint: "bottom" 290 0 basechar 0
LayerCount: 2
Fore
SplineSet
558 -10 m 1
 192 -40 168 128 168 326 c 2
 168 1560 l 1
 338 1560 l 1
 338 320 l 2
 338 185 340 110 585 124 c 1
 558 -10 l 1
EndSplineSet
EndChar

StartChar: less
Encoding: 60 60 249
Width: 1161
VWidth: 0
GlyphClass: 2
Flags: W
LayerCount: 2
Fore
SplineSet
1067 48 m 1
 85 508 l 1
 85 595 l 1
 1071 1067 l 1
 1071 914 l 1
 304 552 l 1
 1067 200 l 1
 1067 48 l 1
EndSplineSet
EndChar

StartChar: lessequal
Encoding: 8804 8804 250
Width: 1340
VWidth: 0
GlyphClass: 2
Flags: W
PickledData: "(dp1
S'com.fontlab.hintData'
p2
(dp3
S'hhints'
p4
((dp5
S'position'
p6
I9
sS'width'
p7
I122
stp8
ss."
HStem: 9 122
LayerCount: 2
Fore
SplineSet
171 0 m 1
 171 122 l 1
 1164 122 l 1
 1164 0 l 1
 171 0 l 1
1135 247 m 1
 207 697 l 1
 207 778 l 1
 1135 1250 l 1
 1135 1110 l 1
 382 741 l 1
 1135 388 l 1
 1135 247 l 1
EndSplineSet
EndChar

StartChar: logicalnot
Encoding: 172 172 251
Width: 1417
VWidth: 0
GlyphClass: 2
Flags: W
PickledData: "(dp1
S'com.fontlab.hintData'
p2
(dp3
S'vhints'
p4
((dp5
S'position'
p6
I1068
sS'width'
p7
I150
stp8
sS'hhints'
p9
((dp10
g6
I659
sg7
I139
stp11
ss."
HStem: 659 139<196 1068 196 1218>
VStem: 1068 150<238 659 659 659>
LayerCount: 2
Fore
SplineSet
1068 238 m 1
 1068 659 l 1
 196 659 l 1
 196 798 l 1
 1218 798 l 1
 1218 238 l 1
 1068 238 l 1
EndSplineSet
EndChar

StartChar: lozenge
Encoding: 9674 9674 252
Width: 1197
VWidth: 0
GlyphClass: 2
Flags: W
PickledData: "(dp1
S'com.fontlab.hintData'
p2
(dp3
S'hhints'
p4
((dp5
S'position'
p6
I1450
sS'width'
p7
I20
stp8
ss."
HStem: 1450 20
LayerCount: 2
Fore
SplineSet
542 0 m 1
 100 716 l 1
 550 1456 l 1
 652 1456 l 1
 1097 717 l 1
 644 0 l 1
 542 0 l 1
593 143 m 1
 946 716 l 1
 602 1310 l 1
 249 718 l 1
 593 143 l 1
EndSplineSet
EndChar

StartChar: lslash
Encoding: 322 322 253
Width: 513
VWidth: 0
GlyphClass: 2
Flags: W
PickledData: "(dp1
S'com.fontlab.hintData'
p2
(dp3
S'vhints'
p4
((dp5
S'position'
p6
I178
sS'width'
p7
I165
stp8
sS'hhints'
p9
((dp10
g6
I0
sg7
I21
s(dp11
g6
I1007
sg7
I20
s(dp12
g6
I1472
sg7
I20
stp13
ss."
HStem: 0 21<178 178 178 343> 1007 20<514 514> 1472 20<178 343 343 343>
VStem: 178 165<0 689 689 689 925 1492>
LayerCount: 2
Fore
SplineSet
178 0 m 1
 178 689 l 1
 10 589 l 1
 10 726 l 1
 178 826 l 1
 178 1492 l 1
 343 1492 l 1
 343 925 l 1
 514 1027 l 1
 514 890 l 1
 343 788 l 1
 343 0 l 1
 178 0 l 1
EndSplineSet
EndChar

StartChar: m
Encoding: 109 109 254
Width: 1868
VWidth: 0
GlyphClass: 2
Flags: W
PickledData: "(dp1
S'com.typemytype.robofont.layerData'
p2
(dp3
S'b'
(dp4
S'name'
p5
S'm'
sS'lib'
p6
(dp7
sS'unicodes'
p8
(tsS'width'
p9
F1868
sS'contours'
p10
((dp11
S'points'
p12
((dp13
S'segmentType'
p14
S'line'
p15
sS'x'
F351
sS'smooth'
p16
I00
sS'y'
F0
s(dp17
g14
S'line'
p18
sS'x'
F181
sg16
I01
sS'y'
F0
s(dp19
g14
S'line'
p20
sS'x'
F181
sg16
I01
sS'y'
F634
s(dp21
S'y'
F833
sS'x'
F181
sg16
I00
s(dp22
S'y'
F1026
sS'x'
F138
sg16
I00
s(dp23
g14
S'curve'
p24
sS'x'
F138
sg16
I00
sS'y'
F1026
s(dp25
g14
S'line'
p26
sS'x'
F309
sg16
I00
sS'y'
F1026
s(dp27
S'y'
F1026
sS'x'
F309
sg16
I00
s(dp28
S'y'
F906
sS'x'
F351
sg16
I00
s(dp29
g14
S'curve'
p30
sS'x'
F351
sg16
I01
sS'y'
F667
stp31
s(dp32
g12
((dp33
g14
S'curve'
p34
sS'x'
F1204
sg16
I00
sS'y'
F118
s(dp35
g14
S'line'
p36
sS'x'
F1177
sg16
I00
sS'y'
F-14
s(dp37
S'y'
F-14
sS'x'
F938
sg16
I00
s(dp38
S'y'
F111
sS'x'
F866
sg16
I00
s(dp39
g14
S'curve'
p40
sS'x'
F873
sg16
I01
sS'y'
F338
s(dp41
g14
S'line'
p42
sS'x'
F873
sg16
I01
sS'y'
F607
s(dp43
S'y'
F828
sS'x'
F880
sg16
I00
s(dp44
S'y'
F918
sS'x'
F817
sg16
I00
s(dp45
g14
S'curve'
p46
sS'x'
F685
sg16
I01
sS'y'
F920
s(dp47
S'y'
F923
sS'x'
F497
sg16
I00
s(dp48
S'y'
F773
sS'x'
F351
sg16
I00
s(dp49
g14
S'curve'
p50
sS'x'
F351
sg16
I00
sS'y'
F552
s(dp51
g14
S'line'
p52
sS'x'
F263
sg16
I00
sS'y'
F690
s(dp53
S'y'
F939
sS'x'
F340
sg16
I00
s(dp54
S'y'
F1051
sS'x'
F488
sg16
I00
s(dp55
g14
S'curve'
p56
sS'x'
F703
sg16
I01
sS'y'
F1052
s(dp57
S'y'
F1053
sS'x'
F892
sg16
I00
s(dp58
S'y'
F948
sS'x'
F1043
sg16
I00
s(dp59
g14
S'curve'
p60
sS'x'
F1043
sg16
I01
sS'y'
F625
s(dp61
g14
S'line'
p62
sS'x'
F1043
sg16
I01
sS'y'
F345
s(dp63
S'y'
F204
sS'x'
F1043
sg16
I00
s(dp64
S'y'
F130
sS'x'
F1064
sg16
I00
stp65
stp66
sS'components'
p67
(tsS'anchors'
p68
(tsssS'com.fontlab.hintData'
p69
(dp70
S'vhints'
p71
((dp72
S'position'
p73
I215
sg9
I164
s(dp74
g73
I896
sg9
I165
s(dp75
g73
I1567
sg9
I164
stp76
sS'hhints'
p77
((dp78
g73
I-20
sg9
I131
s(dp79
g73
I0
sg9
I21
s(dp80
g73
I912
sg9
I136
stp81
ss."
HStem: -20 131 0 21<181 351 181 181 1011 1011> 912 136
VStem: 215 164 896 165 1567 164
AnchorPoint: "top" 958 1024 basechar 0
AnchorPoint: "bottom" 949 0 basechar 0
LayerCount: 2
Fore
SplineSet
351 0 m 1
 181 0 l 1
 181 634 l 2
 181 833 138 1026 138 1026 c 1
 309 1026 l 1
 309 1026 351 886 351 667 c 2
 351 0 l 1
1813 121 m 1
 1787 -14 l 1
 1563 -12 1483 87 1483 313 c 2
 1483 600 l 2
 1483 846 1431 917 1291 920 c 0
 1148 923 1011 792 1011 542 c 2
 1011 0 l 1
 840 2 l 1
 840 607 l 2
 840 840 782 920 657 920 c 0
 528 920 351 796 351 555 c 1
 259 689 l 1
 352 954 505 1052 684 1052 c 0
 806.06 1052 912.311 1002.71 967.56 869.573 c 1
 1044.53 988.034 1155.33 1052 1320 1052 c 0
 1501 1052 1653 946 1653 625 c 2
 1653 308 l 2
 1653 178 1710 122 1813 121 c 1
EndSplineSet
EndChar

StartChar: macron
Encoding: 175 175 255
Width: 972
VWidth: 0
GlyphClass: 2
Flags: W
PickledData: "(dp1
S'com.fontlab.hintData'
p2
(dp3
S'vhints'
p4
((dp5
S'position'
p6
I200
sS'width'
p7
I572
stp8
sS'hhints'
p9
((dp10
g6
I1183
sg7
I134
stp11
ss."
HStem: 1183 134
VStem: 200 572<1322 1456 1322 1456>
AnchorPoint: "top" 484 1152 mark 0
LayerCount: 2
Fore
SplineSet
200 1322 m 1
 200 1456 l 1
 772 1456 l 1
 772 1322 l 1
 200 1322 l 1
EndSplineSet
EndChar

StartChar: minus
Encoding: 8722 8722 256
Width: 1445
VWidth: 0
GlyphClass: 2
Flags: W
PickledData: "(dp1
S'com.fontlab.hintData'
p2
(dp3
S'hhints'
p4
((dp5
S'position'
p6
I496
sS'width'
p7
I137
stp8
ss."
HStem: 496 137<208 1235 208 1235>
LayerCount: 2
Fore
SplineSet
208 496 m 1
 208 633 l 1
 1235 633 l 1
 1235 496 l 1
 208 496 l 1
EndSplineSet
EndChar

StartChar: multiply
Encoding: 215 215 257
Width: 1340
VWidth: 0
GlyphClass: 2
Flags: W
LayerCount: 2
Fore
SplineSet
379 154 m 1
 276 257 l 1
 570 554 l 1
 276 851 l 1
 379 954 l 1
 670 657 l 1
 960 954 l 1
 1064 850 l 1
 769 554 l 1
 1064 258 l 1
 960 154 l 1
 670 450 l 1
 379 154 l 1
EndSplineSet
EndChar

StartChar: n
Encoding: 110 110 258
Width: 1239
VWidth: 0
GlyphClass: 2
Flags: W
PickledData: "(dp1
S'com.typemytype.robofont.layerData'
p2
(dp3
S'b'
(dp4
S'name'
p5
S'n'
sS'lib'
p6
(dp7
sS'unicodes'
p8
(tsS'width'
p9
I1239
sS'contours'
p10
((dp11
S'points'
p12
((dp13
S'segmentType'
p14
S'line'
p15
sS'x'
I355
sS'smooth'
p16
I00
sS'y'
I0
s(dp17
g14
S'line'
p18
sS'x'
I185
sg16
I00
sS'y'
I0
s(dp19
g14
S'line'
p20
sS'x'
I185
sg16
I00
sS'y'
I1560
s(dp21
g14
S'line'
p22
sS'x'
I355
sg16
I00
sS'y'
I1560
stp23
s(dp24
g12
((dp25
g14
S'curve'
p26
sS'x'
I1196
sg16
I00
sS'y'
I118
s(dp27
g14
S'line'
p28
sS'x'
I1176
sg16
I00
sS'y'
I-14
s(dp29
S'y'
I-14
sS'x'
I937
sg16
I00
s(dp30
S'y'
I111
sS'x'
I866
sg16
I00
s(dp31
g14
S'curve'
p32
sS'x'
I873
sg16
I01
sS'y'
I338
s(dp33
g14
S'line'
p34
sS'x'
I873
sg16
I01
sS'y'
I607
s(dp35
S'y'
I828
sS'x'
I880
sg16
I00
s(dp36
S'y'
I918
sS'x'
I817
sg16
I00
s(dp37
g14
S'curve'
p38
sS'x'
I685
sg16
I01
sS'y'
I920
s(dp39
S'y'
I923
sS'x'
I497
sg16
I00
s(dp40
S'y'
I773
sS'x'
I356
sg16
I00
s(dp41
g14
S'curve'
p42
sS'x'
I356
sg16
I00
sS'y'
I552
s(dp43
g14
S'line'
p44
sS'x'
I268
sg16
I00
sS'y'
I690
s(dp45
S'y'
I939
sS'x'
I345
sg16
I00
s(dp46
S'y'
I1051
sS'x'
I488
sg16
I00
s(dp47
g14
S'curve'
p48
sS'x'
I703
sg16
I01
sS'y'
I1052
s(dp49
S'y'
I1053
sS'x'
I892
sg16
I00
s(dp50
S'y'
I948
sS'x'
I1043
sg16
I00
s(dp51
g14
S'curve'
p52
sS'x'
I1043
sg16
I01
sS'y'
I625
s(dp53
g14
S'line'
p54
sS'x'
I1043
sg16
I01
sS'y'
I345
s(dp55
S'y'
I204
sS'x'
I1043
sg16
I00
s(dp56
S'y'
I130
sS'x'
I1056
sg16
I00
stp57
stp58
sS'components'
p59
(tsS'anchors'
p60
(tsssS'com.fontlab.hintData'
p61
(dp62
S'vhints'
p63
((dp64
S'position'
p65
I205
sg9
I164
s(dp66
g65
I896
sg9
I164
stp67
sS'hhints'
p68
((dp69
g65
I-14
sg9
I135
s(dp70
g65
I916
sg9
I136
stp71
ss."
HStem: -14 135 916 136
VStem: 205 164 896 164
AnchorPoint: "top" 706 1536 basechar 0
AnchorPoint: "bottom" 682 0 basechar 0
LayerCount: 2
Fore
SplineSet
351 0 m 1
 181 0 l 1
 181 634 l 2
 181 833 138 1026 138 1026 c 1
 309 1026 l 1
 309 1026 351 906 351 667 c 2
 351 0 l 1
1185 118 m 1
 1165 -14 l 1
 909 -12 862 122 862 338 c 2
 862 607 l 1
 869 828 810 918 678 920 c 0
 490 923 351 773 351 552 c 1
 263 690 l 1
 340 939 481 1051 696 1052 c 0
 885 1053 1032 948 1032 625 c 2
 1032 345 l 2
 1032 204 1045 130 1185 118 c 1
EndSplineSet
EndChar

StartChar: nine
Encoding: 57 57 262
Width: 1316
VWidth: 0
GlyphClass: 2
Flags: W
PickledData: "(dp1
S'com.fontlab.hintData'
p2
(dp3
S'vhints'
p4
((dp5
S'position'
p6
I177
sS'width'
p7
I171
s(dp8
g6
I824
sg7
I166
stp9
sS'hhints'
p10
((dp11
g6
I0
sg7
I21
s(dp12
g6
I623
sg7
I135
s(dp13
g6
I1337
sg7
I143
stp14
ss."
HStem: 0 21<824 998 824 824> 623 135 1337 143
VStem: 177 171 824 166
LayerCount: 2
Fore
SplineSet
818 1412 m 1
 804 1421 749 1443 666 1443 c 0
 451 1443 351 1262 351 1097 c 0
 351 957 427 864 540 864 c 0
 667 864 818 993 818 1279 c 2
 818 1412 l 1
998 1489 m 1
 998 0 l 1
 824 0 l 1
 824 874.245 l 1
 735.408 774.407 628.606 715 524 715 c 0
 330 715 177 867 177 1089 c 0
 177 1326 335 1586 647 1586 c 0
 800 1586 921 1547 998 1489 c 1
EndSplineSet
EndChar

StartChar: nine.alt
Encoding: 65541 -1 263
Width: 1176
VWidth: 0
GlyphClass: 2
Flags: W
PickledData: "(dp1
S'com.fontlab.hintData'
p2
(dp3
S'vhints'
p4
((dp5
S'position'
p6
I98
sS'width'
p7
I176
s(dp8
g6
I905
sg7
I175
stp9
sS'hhints'
p10
((dp11
g6
I-22
sg7
I142
s(dp12
g6
I533
sg7
I140
s(dp13
g6
I1312
sg7
I141
stp14
ss."
HStem: -22 142 533 140 1312 141
VStem: 98 176<918.5 1105 918.5 1164.5> 905 175<711 735 735 735>
LayerCount: 2
Fore
SplineSet
572 701 m 0
 768 701 893 825 893 999 c 0
 893 1211 759 1340 573 1340 c 0
 378 1340 274 1193 274 1017 c 0
 274 820 381 701 572 701 c 0
517 -24 m 0
 371 -24 280 21 193 104 c 1
 247 232 l 1
 318 155 409 118 520 118 c 0
 801 118 905 409 905 711 c 2
 905 735 l 1
 836 620 720 561 547 561 c 0
 264 561 98 754 98 1012 c 0
 98 1317 311 1480 581 1480 c 0
 950 1480 1080 1192 1080 786 c 0
 1080 335 885 -24 517 -24 c 0
EndSplineSet
EndChar

StartChar: nine.alt.2
Encoding: 65542 -1 264
Width: 1244
VWidth: 0
GlyphClass: 2
Flags: W
PickledData: "(dp1
S'com.fontlab.hintData'
p2
(dp3
S'vhints'
p4
((dp5
S'position'
p6
I134
sS'width'
p7
I172
s(dp8
g6
I963
sg7
I167
stp9
sS'hhints'
p10
((dp11
g6
I515
sg7
I136
s(dp12
g6
I1334
sg7
I149
stp13
ss."
HStem: 515 136 1334 149
VStem: 134 172 963 167
LayerCount: 2
Fore
SplineSet
641 659 m 0
 860 659 971 791 971 992 c 0
 971 1202 872 1331 646 1331 c 0
 441 1331 314 1205 314 994 c 0
 314 821 397 659 641 659 c 0
545 -76 m 1
 415 0 l 1
 808 575 l 1
 800 569 728 515 622 515 c 0
 324 515 142 724 142 995 c 0
 142 1282 356 1481 635 1481 c 0
 979 1481 1138 1243 1138 991 c 0
 1138 865 1090 729 999 598 c 1
 545 -76 l 1
EndSplineSet
EndChar

StartChar: notequal
Encoding: 8800 8800 265
Width: 1339
VWidth: 0
GlyphClass: 2
Flags: W
PickledData: "(dp1
S'com.fontlab.hintData'
p2
(dp3
S'hhints'
p4
((dp5
S'position'
p6
I325
sS'width'
p7
I120
s(dp8
g6
I728
sg7
I121
stp9
ss."
HStem: 325 120<170 471 170 529 170 599 656 1162> 728 121<170 670 170 725 170 798 854 1160>
LayerCount: 2
Fore
SplineSet
465 46 m 1
 345 64 l 1
 471 325 l 1
 170 325 l 1
 170 445 l 1
 529 445 l 1
 670 728 l 1
 170 728 l 1
 170 849 l 1
 725 849 l 1
 856 1123 l 1
 978 1105 l 1
 854 849 l 1
 1160 849 l 1
 1162 728 l 1
 798 728 l 1
 656 445 l 1
 1162 445 l 1
 1162 325 l 1
 599 325 l 1
 465 46 l 1
EndSplineSet
EndChar

StartChar: numbersign
Encoding: 35 35 267
Width: 1388
VWidth: 0
GlyphClass: 2
Flags: W
PickledData: "(dp1
S'com.fontlab.hintData'
p2
(dp3
S'hhints'
p4
((dp5
S'position'
p6
I485
sS'width'
p7
I126
s(dp8
g6
I886
sg7
I124
stp9
ss."
HStem: 485 126 886 124
LayerCount: 2
Fore
SplineSet
535 583 m 1
 809 583 l 1
 861 899 l 1
 590 899 l 1
 535 583 l 1
305 0 m 1
 389 465 l 1
 137 465 l 1
 145 583 l 1
 409 583 l 1
 460 899 l 1
 202 899 l 1
 215 1026 l 1
 481 1026 l 1
 557 1455 l 1
 687 1455 l 1
 613 1026 l 1
 884 1026 l 1
 957 1455 l 1
 1090 1455 l 1
 1012 1026 l 1
 1253 1026 l 1
 1239 899 l 1
 990 899 l 1
 938 583 l 1
 1187 583 l 1
 1176 465 l 1
 920 465 l 1
 840 0 l 1
 711 0 l 1
 788 465 l 1
 517 465 l 1
 438 0 l 1
 305 0 l 1
EndSplineSet
EndChar

StartChar: o
Encoding: 111 111 268
Width: 1184
VWidth: 0
GlyphClass: 2
Flags: W
PickledData: "(dp1
S'com.typemytype.robofont.layerData'
p2
(dp3
S'b'
(dp4
S'name'
p5
S'o'
sS'lib'
p6
(dp7
sS'unicodes'
p8
(tsS'width'
p9
I1184
sS'contours'
p10
(tsS'components'
p11
(tsS'anchors'
p12
(tsssS'com.fontlab.hintData'
p13
(dp14
S'vhints'
p15
((dp16
S'position'
p17
I106
sg9
I170
s(dp18
g17
I927
sg9
I171
stp19
sS'hhints'
p20
((dp21
g17
I-22
sg9
I136
s(dp22
g17
I916
sg9
I136
stp23
ss."
HStem: -22 136 916 136
VStem: 106 170 927 171
AnchorPoint: "top" 613 1152 basechar 0
AnchorPoint: "bottom" 820 0 basechar 0
AnchorPoint: "ogonek" 720 0 basechar 0
LayerCount: 2
Fore
SplineSet
596 -22 m 0
 303 -22 96 193 96 513 c 0
 96 835 304 1052 596 1052 c 0
 884 1052 1088 834 1088 513 c 0
 1088 192 884 -22 596 -22 c 0
596 110 m 0
 790 110 914 275 914 513 c 0
 914 754 791 920 596 920 c 0
 398 920 270 755 270 513 c 0
 270 276 397 110 596 110 c 0
EndSplineSet
EndChar

StartChar: oe
Encoding: 339 339 273
Width: 1903
VWidth: 0
GlyphClass: 2
Flags: W
PickledData: "(dp1
S'com.fontlab.hintData'
p2
(dp3
S'vhints'
p4
((dp5
S'position'
p6
I102
sS'width'
p7
I173
s(dp8
g6
I928
sg7
I168
s(dp9
g6
I1655
sg7
I173
stp10
sS'hhints'
p11
((dp12
g6
I-28
sg7
I137
s(dp13
g6
I470
sg7
I139
s(dp14
g6
I917
sg7
I136
stp15
ss."
HStem: -28 137 470 139 917 136
VStem: 102 173 928 168 1655 173
LayerCount: 2
Fore
SplineSet
613 114 m 0
 807 114 933 277 933 515 c 0
 933 756 807 916 612 916 c 0
 414 916 282 755 282 513 c 0
 282 276 414 114 613 114 c 0
1106 566 m 1
 1339 566 1615 597 1615 758 c 0
 1615 852 1550 916 1435 916 c 0
 1269 916 1120 794 1106 566 c 1
1433 -22 m 0
 1262 -22 1108 63 1018 222 c 1
 932 67 788 -22 613 -22 c 0
 320 -22 112 191 112 511 c 0
 112 833 320 1052 612 1052 c 0
 789 1052 935 959 1021 801 c 1
 1104 954 1246 1052 1434 1052 c 0
 1641 1052 1778 922 1778 755 c 0
 1778 510 1440 445 1108 445 c 1
 1132 233 1260 114 1444 114 c 0
 1595 114 1686 179 1751 232 c 1
 1819 122 l 1
 1699 25 1589 -22 1433 -22 c 0
EndSplineSet
EndChar

StartChar: ogonek
Encoding: 731 731 274
Width: 518
VWidth: 0
GlyphClass: 2
Flags: W
PickledData: "(dp1
S'com.fontlab.hintData'
p2
(dp3
S'vhints'
p4
((dp5
S'position'
p6
I58
sS'width'
p7
I141
stp8
sS'hhints'
p9
((dp10
g6
I-390
sg7
I109
stp11
ss."
HStem: -390 109<273.5 308>
VStem: 58 141<-224.5 -161>
AnchorPoint: "ogonek" 308 0 mark 0
LayerCount: 2
Fore
SplineSet
276 -390 m 0
 151 -390 58 -335 58 -225 c 0
 58 -97 174 -35 273 12 c 1
 402 0 l 1
 316 -52 199 -117 199 -199 c 0
 199 -250 248 -281 299 -281 c 0
 363 -281 407 -268 453 -250 c 1
 453 -361 l 1
 407 -380 340 -390 276 -390 c 0
EndSplineSet
EndChar

StartChar: one
Encoding: 49 49 278
Width: 775
VWidth: 0
GlyphClass: 2
Flags: W
PickledData: "(dp1
S'com.fontlab.hintData'
p2
(dp3
S'vhints'
p4
((dp5
S'position'
p6
I572
sS'width'
p7
I172
stp8
sS'hhints'
p9
((dp10
g6
I0
sg7
I21
s(dp11
g6
I1436
sg7
I20
stp12
ss."
HStem: 0 21<302 474 302 302> 1436 20
VStem: 572 172
LayerCount: 2
Fore
SplineSet
474 0 m 1
 302 0 l 1
 302 1560 l 1
 474 1560 l 1
 474 0 l 1
EndSplineSet
EndChar

StartChar: one.alt
Encoding: 65543 -1 279
Width: 1258
VWidth: 0
GlyphClass: 2
Flags: W
PickledData: "(dp1
S'com.fontlab.hintData'
p2
(dp3
S'vhints'
p4
((dp5
S'position'
p6
I668
sS'width'
p7
I172
stp8
sS'hhints'
p9
((dp10
g6
I0
sg7
I21
s(dp11
g6
I1436
sg7
I20
stp12
ss."
HStem: 0 21<668 668 668 840> 1436 20<675 840 840 840>
VStem: 668 172<0 1288 1288 1288>
LayerCount: 2
Fore
SplineSet
668 0 m 1
 668 1288 l 1
 602 1238 516 1190 410 1146 c 1
 369 1277 l 1
 485 1330 607 1405 675 1456 c 1
 840 1456 l 1
 840 0 l 1
 668 0 l 1
EndSplineSet
EndChar

StartChar: onehalf
Encoding: 189 189 280
Width: 1949
VWidth: 0
GlyphClass: 2
Flags: W
PickledData: "(dp1
S'com.fontlab.hintData'
p2
(dp3
S'vhints'
p4
((dp5
S'position'
p6
I576
sS'width'
p7
I116
s(dp8
g6
I1684
sg7
I122
stp9
sS'hhints'
p10
((dp11
g6
I0
sg7
I21
s(dp12
g6
I604
sg7
I119
s(dp13
g6
I803
sg7
I107
stp14
ss."
HStem: 0 21<339 339 339 490 1236 1795 1236 1236> 604 119 803 107
VStem: 576 116 1684 122
LayerCount: 2
Fore
SplineSet
1507 1052 m 0
 1687 1052 1810 930 1815 747 c 0
 1815.08 744.066 1815.12 741.147 1815.12 738.245 c 0
 1815.12 592.76 1717.57 486.163 1596 344 c 2
 1404 119 l 1
 1795 119 l 1
 1795 0 l 1
 1236 0 l 1
 1236 126 l 1
 1514 451 l 2
 1615.97 571.072 1664.35 644.83 1664.35 738.045 c 0
 1664.35 742.646 1664.24 747.296 1664 752 c 0
 1659 861 1608 926 1503 926 c 0
 1364 926 1275 832 1275 833 c 2
 1217 950 l 1
 1217 950 1316 1052 1507 1052 c 0
209 426 m 1
 209 1351 l 1
 124 1351 l 1
 124 1456 l 1
 350 1456 l 1
 350 426 l 1
 209 426 l 1
339 0 m 1
 1172 1456 l 1
 1321 1456 l 1
 490 0 l 1
 339 0 l 1
EndSplineSet
Ligature2: "fracDiagonalFractionslookup0 subtable" one fraction two
Ligature2: "fracDiagonalFractionslookup0 subtable" one slash two
EndChar

StartChar: onequarter
Encoding: 188 188 281
Width: 1812
VWidth: 0
GlyphClass: 2
Flags: W
PickledData: "(dp1
S'com.fontlab.hintData'
p2
(dp3
S'vhints'
p4
((dp5
S'position'
p6
I536
sS'width'
p7
I116
s(dp8
g6
I1644
sg7
I122
stp9
sS'hhints'
p10
((dp11
g6
I0
sg7
I21
s(dp12
g6
I604
sg7
I119
s(dp13
g6
I803
sg7
I107
stp14
ss."
HStem: 0 21<286 286 286 437 1406 1538 1406 1406> 604 119 803 107
VStem: 536 116 1644 122
LayerCount: 2
Fore
SplineSet
1537 617 m 1
 1537 363 l 1
 1726 363 l 1
 1726 264 l 1
 1538 264 l 1
 1538 0 l 1
 1406 0 l 1
 1406 264 l 1
 967 264 l 1
 967 355 l 1
 1328 1026 l 1
 1465 1026 l 1
 1128 363 l 1
 1406 363 l 1
 1406 617 l 1
 1537 617 l 1
169 426 m 1
 169 1351 l 1
 84 1351 l 1
 84 1456 l 1
 310 1456 l 1
 310 426 l 1
 169 426 l 1
286 0 m 1
 1119 1456 l 1
 1268 1456 l 1
 437 0 l 1
 286 0 l 1
EndSplineSet
Ligature2: "fracDiagonalFractionslookup0 subtable" one fraction four
Ligature2: "fracDiagonalFractionslookup0 subtable" one slash four
EndChar

StartChar: ordmasculine
Encoding: 186 186 283
Width: 1094
VWidth: 0
GlyphClass: 2
Flags: W
PickledData: "(dp1
S'com.fontlab.hintData'
p2
(dp3
S'vhints'
p4
((dp5
S'position'
p6
I191
sS'width'
p7
I140
s(dp8
g6
I765
sg7
I138
stp9
sS'hhints'
p10
((dp11
g6
I767
sg7
I108
s(dp12
g6
I1369
sg7
I107
stp13
ss."
HStem: 767 108 1369 107
VStem: 191 140<1054 1197.5 1054 1242.5> 765 138<1053 1195.5>
LayerCount: 2
Fore
SplineSet
549 879 m 0
 686 879 765 983 765 1123 c 0
 765 1268 686 1373 546 1373 c 0
 409 1373 331 1268 331 1127 c 0
 331 981 407 879 549 879 c 0
549 771 m 0
 329 771 191 905 191 1128 c 0
 191 1357 341 1480 548 1480 c 0
 775 1480 903 1326 903 1125 c 0
 903 896 757 771 549 771 c 0
EndSplineSet
EndChar

StartChar: oslash
Encoding: 248 248 284
Width: 1216
VWidth: 0
GlyphClass: 2
Flags: W
PickledData: "(dp1
S'com.typemytype.robofont.layerData'
p2
(dp3
S'b'
(dp4
S'name'
p5
S'oslash'
p6
sS'lib'
p7
(dp8
sS'unicodes'
p9
(tsS'width'
p10
I1216
sS'contours'
p11
(tsS'components'
p12
(tsS'anchors'
p13
(tsssS'com.fontlab.hintData'
p14
(dp15
S'vhints'
p16
((dp17
S'position'
p18
I102
sg10
I170
s(dp19
g18
I954
sg10
I170
stp20
sS'hhints'
p21
((dp22
g18
I-22
sg10
I138
s(dp23
g18
I907
sg10
I141
stp24
ss."
HStem: -22 138 907 141
VStem: 102 170 954 170
LayerCount: 2
Fore
SplineSet
353 -261 m 1
 257 -229 l 1
 869 1277 l 1
 969 1245 l 1
 353 -261 l 1
EndSplineSet
Refer: 268 111 N 1 0 0 1 0 0 2
EndChar

StartChar: p
Encoding: 112 112 286
Width: 1178
VWidth: 0
GlyphClass: 2
Flags: W
PickledData: "(dp1
S'com.typemytype.robofont.layerData'
p2
(dp3
S'b'
(dp4
S'name'
p5
S'p'
sS'lib'
p6
(dp7
sS'unicodes'
p8
(tsS'width'
p9
I1178
sS'contours'
p10
((dp11
S'points'
p12
((dp13
S'segmentType'
p14
S'line'
p15
sS'x'
F307
sS'smooth'
p16
I00
sS'y'
F830
s(dp17
S'y'
F1000
sS'x'
F379
sg16
I00
s(dp18
S'y'
F1052
sS'x'
F516
sg16
I00
s(dp19
g14
S'curve'
p20
sS'x'
F672
sg16
I01
sS'y'
F1052
s(dp21
S'y'
F1052
sS'x'
F929
sg16
I00
s(dp22
S'y'
F853
sS'x'
F1086
sg16
I00
s(dp23
g14
S'curve'
p24
sS'x'
F1086
sg16
I01
sS'y'
F543
s(dp25
S'y'
F186
sS'x'
F1086
sg16
I00
s(dp26
S'y'
F-22
sS'x'
F884
sg16
I00
s(dp27
g14
S'curve'
p28
sS'x'
F594
sg16
I01
sS'y'
F-22
s(dp29
S'y'
F-22
sS'x'
F516
sg16
I00
s(dp30
S'y'
F-7
sS'x'
F436
sg16
I00
s(dp31
g14
S'curve'
p32
sS'x'
F348
sg16
I00
sS'y'
F24
s(dp33
g14
S'line'
p34
sS'x'
F348
sg16
I00
sS'y'
F166
s(dp35
S'y'
F132
sS'x'
F424
sg16
I00
s(dp36
S'y'
F110
sS'x'
F496
sg16
I00
s(dp37
g14
S'curve'
p38
sS'x'
F568
sg16
I01
sS'y'
F110
s(dp39
S'y'
F110
sS'x'
F761
sg16
I00
s(dp40
S'y'
F239
sS'x'
F912
sg16
I00
s(dp41
g14
S'curve'
p42
sS'x'
F912
sg16
I01
sS'y'
F541
s(dp43
S'y'
F785
sS'x'
F912
sg16
I00
s(dp44
S'y'
F920
sS'x'
F815
sg16
I00
s(dp45
g14
S'curve'
p46
sS'x'
F637
sg16
I01
sS'y'
F920
s(dp47
S'y'
F920
sS'x'
F491
sg16
I00
s(dp48
S'y'
F800
sS'x'
F348
sg16
I00
s(dp49
g14
S'curve'
p50
sS'x'
F348
sg16
I00
sS'y'
F508
stp51
s(dp52
g12
((dp53
g14
S'line'
p54
sS'x'
F349
sg16
I00
sS'y'
F-574
s(dp55
g14
S'line'
p56
sS'x'
F179
sg16
I01
sS'y'
F-574
s(dp57
g14
S'line'
p58
sS'x'
F179
sg16
I01
sS'y'
F634
s(dp59
S'y'
F833
sS'x'
F179
sg16
I00
s(dp60
S'y'
F1026
sS'x'
F136
sg16
I00
s(dp61
g14
S'curve'
p62
sS'x'
F136
sg16
I00
sS'y'
F1026
s(dp63
g14
S'line'
p64
sS'x'
F307
sg16
I00
sS'y'
F1026
s(dp65
S'y'
F1026
sS'x'
F307
sg16
I00
s(dp66
S'y'
F906
sS'x'
F349
sg16
I00
s(dp67
g14
S'curve'
p68
sS'x'
F349
sg16
I01
sS'y'
F667
stp69
stp70
sS'components'
p71
(tsS'anchors'
p72
(tsssS'com.fontlab.hintData'
p73
(dp74
S'vhints'
p75
((dp76
S'position'
p77
I183
sg9
I164
s(dp78
g77
I920
sg9
I169
stp79
sS'hhints'
p80
((dp81
g77
I-457
sg9
I21
s(dp82
g77
I-22
sg9
I136
s(dp83
g77
I912
sg9
I136
stp84
ss."
HStem: -457 21 -22 136 912 136
VStem: 183 164 920 169
AnchorPoint: "top" 656 1536 basechar 0
AnchorPoint: "bottom" 826 0 basechar 0
AnchorPoint: "ogonek" 850 0 basechar 0
LayerCount: 2
Fore
SplineSet
349 -574 m 1
 179 -574 l 1
 179 634 l 2
 179 833 136 1026 136 1026 c 1
 307 1026 l 1
 307 1026 349 906 349 667 c 2
 349 -574 l 1
267 680 m 1
 300 881 392 1052 672 1052 c 0
 929 1052 1082 853 1082 543 c 0
 1082 186 880 -22 590 -22 c 0
 452 -22 332 24 264 55 c 1
 264 197 l 1
 340 163 442 110 564 110 c 0
 757 110 908 239 908 541 c 0
 908 785 815 920 637 920 c 0
 434 920 349 721 349 500 c 1
 267 680 l 1
EndSplineSet
EndChar

StartChar: paragraph
Encoding: 182 182 287
Width: 1150
VWidth: 0
GlyphClass: 2
Flags: W
PickledData: "(dp1
S'com.fontlab.hintData'
p2
(dp3
S'vhints'
p4
((dp5
S'position'
p6
I128
sS'width'
p7
I469
s(dp8
g6
I459
sg7
I138
s(dp9
g6
I798
sg7
I129
stp10
sS'hhints'
p11
((dp12
g6
I1327
sg7
I124
stp13
ss."
HStem: 1327 124
VStem: 128 469 459 138 798 129
LayerCount: 2
Fore
SplineSet
468 0 m 1
 468 830 l 1
 253 830 137 946 137 1134 c 0
 137 1398 389 1455 642 1455 c 2
 1023 1455 l 1
 1023 1331 l 1
 936 1331 l 1
 936 0 l 1
 807 0 l 1
 807 1331 l 1
 606 1331 l 1
 606 0 l 1
 468 0 l 1
EndSplineSet
EndChar

StartChar: parenleft
Encoding: 40 40 288
Width: 640
VWidth: 0
GlyphClass: 2
Flags: W
LayerCount: 2
Fore
SplineSet
410.505 -205 m 1
 229.273 80.6533 136 374.371 136 671.347 c 0
 136 965.924 227.773 1263.71 416.505 1560 c 1
 563.505 1560 l 1
 387.548 1283.42 302.735 978.599 302.735 676.448 c 0
 302.735 368.999 390.549 64.3213 559.505 -205 c 1
 410.505 -205 l 1
EndSplineSet
EndChar

StartChar: parenright
Encoding: 41 41 289
Width: 640
VWidth: 0
GlyphClass: 2
Flags: W
LayerCount: 2
Fore
SplineSet
80.4951 -205 m 1
 249.451 64.3213 337.265 368.999 337.265 676.448 c 0
 337.265 978.599 252.452 1283.42 76.4951 1560 c 1
 223.495 1560 l 1
 412.227 1263.71 504 965.924 504 671.347 c 0
 504 374.371 410.727 80.6533 229.495 -205 c 1
 80.4951 -205 l 1
EndSplineSet
EndChar

StartChar: partialdiff
Encoding: 8706 8706 290
Width: 1153
VWidth: 0
GlyphClass: 2
Flags: W
PickledData: "(dp1
S'com.fontlab.hintData'
p2
(dp3
S'vhints'
p4
((dp5
S'position'
p6
I93
sS'width'
p7
I169
s(dp8
g6
I890
sg7
I171
stp9
sS'hhints'
p10
((dp11
g6
I-24
sg7
I135
s(dp12
g6
I869
sg7
I133
s(dp13
g6
I1399
sg7
I134
stp14
ss."
HStem: -24 135 869 133 1399 134
VStem: 93 169<331 546.5 331 600.5> 890 171<905.5 1024.5 615 1054.5>
LayerCount: 2
Fore
SplineSet
495 113 m 0
 755 113 841 389 872 660 c 1
 829 779 741 874 605 874 c 0
 375 874 262 671 262 422 c 0
 262 240 350 113 495 113 c 0
492 -22 m 0
 224 -22 93 177 93 425 c 0
 93 776 322 1007 583 1007 c 0
 727 1007 819 932 889 841 c 1
 889 861 890 895 890 916 c 0
 890 1193 781 1346 562 1346 c 0
 453 1346 366 1298 299 1251 c 1
 289 1389 l 1
 361 1439 468 1480 585 1480 c 0
 941 1480 1061 1192 1061 857 c 0
 1061 373 875 -22 492 -22 c 0
EndSplineSet
EndChar

StartChar: percent
Encoding: 37 37 291
Width: 1788
VWidth: 0
GlyphClass: 2
Flags: W
PickledData: "(dp1
S'com.fontlab.hintData'
p2
(dp3
S'vhints'
p4
((dp5
S'position'
p6
I198
sS'width'
p7
I144
s(dp8
g6
I764
sg7
I143
s(dp9
g6
I1127
sg7
I144
s(dp10
g6
I1675
sg7
I144
stp11
sS'hhints'
p12
((dp13
g6
I-27
sg7
I113
s(dp14
g6
I-5
sg7
I21
s(dp15
g6
I622
sg7
I113
s(dp16
g6
I686
sg7
I113
s(dp17
g6
I1335
sg7
I112
stp18
ss."
HStem: -27 113 -5 21 622 113 686 113 1335 112
VStem: 198 144 764 143 1127 144 1675 144
LayerCount: 2
Fore
SplineSet
432 824 m 0
 204 824 88 997 88 1202 c 0
 88 1441 232 1586 437 1586 c 0
 656 1586 780 1433 780 1207 c 0
 780 969 636 824 432 824 c 0
1356 89 m 0
 1497 89 1557 214 1557 360 c 0
 1557 507 1497 625 1357 625 c 0
 1215 625 1153 500 1153 353 c 0
 1153 198 1218 89 1356 89 c 0
435 937 m 0
 576 937 636 1062 636 1208 c 0
 636 1355 576 1473 436 1473 c 0
 294 1473 232 1348 232 1201 c 0
 232 1046 297 937 435 937 c 0
1353 -24 m 0
 1125 -24 1009 149 1009 354 c 0
 1009 593 1153 738 1358 738 c 0
 1577 738 1701 585 1701 359 c 0
 1701 121 1557 -24 1353 -24 c 0
366 0 m 1
 1266 1560 l 1
 1415 1560 l 1
 520 0 l 1
 366 0 l 1
EndSplineSet
EndChar

StartChar: period
Encoding: 46 46 292
Width: 603
VWidth: 0
GlyphClass: 2
Flags: W
PickledData: "(dp1
S'com.fontlab.hintData'
p2
(dp3
S'vhints'
p4
((dp5
S'position'
p6
I195
sS'width'
p7
I215
stp8
sS'hhints'
p9
((dp10
g6
I-16
sg7
I211
stp11
ss."
HStem: -16 211<276 329>
VStem: 195 215<61.5 117.5 56 123>
LayerCount: 2
Fore
SplineSet
302 -16 m 0
 233 -16 195 33 195 90 c 0
 195 156 249 195 303 195 c 0
 372 195 410 146 410 89 c 0
 410 23 356 -16 302 -16 c 0
EndSplineSet
EndChar

StartChar: periodcentered
Encoding: 183 183 293
Width: 617
VWidth: 0
GlyphClass: 2
Flags: W
PickledData: "(dp1
S'com.fontlab.hintData'
p2
(dp3
S'vhints'
p4
((dp5
S'position'
p6
I167
sS'width'
p7
I217
stp8
sS'hhints'
p9
((dp10
g6
I513
sg7
I210
stp11
ss."
HStem: 513 210
VStem: 167 217
LayerCount: 2
Fore
SplineSet
308.5 1134.5 m 0
 402.55 1134.5 449.6 1061.47 449.6 988.46 c 0
 449.6 915.474 402.584 842.5 308.5 842.5 c 0
 214.326 842.5 167.025 915.72 167.025 988.83 c 0
 167.025 1061.72 214.042 1134.5 308.5 1134.5 c 0
EndSplineSet
EndChar

StartChar: perthousand
Encoding: 8240 8240 294
Width: 2567
VWidth: 0
GlyphClass: 2
Flags: W
PickledData: "(dp1
S'com.fontlab.hintData'
p2
(dp3
S'vhints'
p4
((dp5
S'position'
p6
I83
sS'width'
p7
I146
s(dp8
g6
I614
sg7
I145
s(dp9
g6
I845
sg7
I145
s(dp10
g6
I1362
sg7
I144
s(dp11
g6
I1613
sg7
I145
s(dp12
g6
I2131
sg7
I143
stp13
sS'hhints'
p14
((dp15
g6
I-27
sg7
I113
s(dp16
g6
I567
sg7
I114
s(dp17
g6
I740
sg7
I113
s(dp18
g6
I1335
sg7
I112
stp19
ss."
HStem: -27 113 567 114 740 113 1335 112
VStem: 83 146 614 145 845 145 1362 144 1613 145 2131 143
LayerCount: 2
Fore
SplineSet
2151 -24 m 0
 1923 -24 1807 149 1807 354 c 0
 1807 593 1951 738 2156 738 c 0
 2375 738 2499 585 2499 359 c 0
 2499 121 2355 -24 2151 -24 c 0
2154 89 m 0
 2295 89 2355 214 2355 360 c 0
 2355 507 2295 625 2155 625 c 0
 2013 625 1951 500 1951 353 c 0
 1951 198 2016 89 2154 89 c 0
EndSplineSet
Refer: 291 37 N 1 0 0 1 0 0 2
EndChar

StartChar: pi
Encoding: 960 960 295
Width: 1278
VWidth: 0
GlyphClass: 2
Flags: W
PickledData: "(dp1
S'com.fontlab.hintData'
p2
(dp3
S'vhints'
p4
((dp5
S'position'
p6
I182
sS'width'
p7
I202
s(dp8
g6
I842
sg7
I159
stp9
sS'hhints'
p10
((dp11
g6
I-8
sg7
I155
s(dp12
g6
I907
sg7
I133
stp13
ss."
HStem: -8 155 907 133
VStem: 182 202 842 159<265 893>
LayerCount: 2
Fore
SplineSet
1052 -22 m 0
 879 -22 842 90 842 265 c 2
 842 893 l 1
 527 893 l 1
 527 618 443 161 351 0 c 1
 170 0 l 1
 293 216 375 655 375 893 c 1
 281 893 174 854 107 782 c 1
 77 933 l 1
 156 993 278 1026 420 1026 c 2
 1205 1026 l 1
 1205 893 l 1
 1001 893 l 1
 1001 242 l 2
 1001 160 1015 101 1099 101 c 0
 1124 101 1150 105 1179 114 c 1
 1189 -8 l 1
 1144 -16 1099 -22 1052 -22 c 0
EndSplineSet
EndChar

StartChar: plus
Encoding: 43 43 296
Width: 1383
VWidth: 0
GlyphClass: 2
Flags: W
PickledData: "(dp1
S'com.fontlab.hintData'
p2
(dp3
S'vhints'
p4
((dp5
S'position'
p6
I616
sS'width'
p7
I149
stp8
sS'hhints'
p9
((dp10
g6
I675
sg7
I139
stp11
ss."
HStem: 675 139<195 616 195 619 767 1188>
VStem: 616 149<202 675 202 675>
LayerCount: 2
Fore
SplineSet
616 202 m 1
 616 675 l 1
 195 675 l 1
 195 814 l 1
 619 814 l 1
 619 1282 l 1
 767 1282 l 1
 767 814 l 1
 1188 814 l 1
 1188 675 l 1
 765 675 l 1
 765 202 l 1
 616 202 l 1
EndSplineSet
EndChar

StartChar: plusminus
Encoding: 177 177 297
Width: 1425
VWidth: 0
GlyphClass: 2
Flags: W
PickledData: "(dp1
S'com.fontlab.hintData'
p2
(dp3
S'vhints'
p4
((dp5
S'position'
p6
I633
sS'width'
p7
I149
stp8
sS'hhints'
p9
((dp10
g6
I0
sg7
I138
s(dp11
g6
I595
sg7
I138
stp12
ss."
HStem: 0 138<196 1228 196 1228> 595 138
VStem: 633 149<818 1192 818 1192>
LayerCount: 2
Fore
SplineSet
196 0 m 1
 196 138 l 1
 1228 138 l 1
 1228 0 l 1
 196 0 l 1
635 308 m 1
 635 680 l 1
 196 680 l 1
 196 818 l 1
 633 818 l 1
 633 1192 l 1
 782 1192 l 1
 782 818 l 1
 1224 818 l 1
 1224 680 l 1
 785 680 l 1
 785 308 l 1
 635 308 l 1
EndSplineSet
EndChar

StartChar: product
Encoding: 8719 8719 298
Width: 1549
VWidth: 0
GlyphClass: 2
Flags: W
PickledData: "(dp1
S'com.fontlab.hintData'
p2
(dp3
S'vhints'
p4
((dp5
S'position'
p6
I261
sS'width'
p7
I175
s(dp8
g6
I1130
sg7
I178
stp9
sS'hhints'
p10
((dp11
g6
I1278
sg7
I145
stp12
ss."
HStem: 1278 145
VStem: 261 175 1130 178
LayerCount: 2
Fore
SplineSet
301 0 m 1
 301 1311 l 1
 100 1311 l 1
 100 1456 l 1
 1449 1456 l 1
 1449 1311 l 1
 1270 1311 l 1
 1270 0 l 1
 1092 0 l 1
 1092 1311 l 1
 476 1311 l 1
 476 0 l 1
 301 0 l 1
EndSplineSet
EndChar

StartChar: q
Encoding: 113 113 299
Width: 1157
VWidth: 0
GlyphClass: 2
Flags: W
PickledData: "(dp1
S'com.typemytype.robofont.layerData'
p2
(dp3
S'b'
(dp4
S'name'
p5
S'q'
sS'lib'
p6
(dp7
sS'unicodes'
p8
(tsS'width'
p9
I1157
sS'contours'
p10
(tsS'components'
p11
(tsS'anchors'
p12
(tsssS'com.fontlab.hintData'
p13
(dp14
S'vhints'
p15
((dp16
S'position'
p17
I110
sg9
I170
s(dp18
g17
I901
sg9
I164
stp19
sS'hhints'
p20
((dp21
g17
I-22
sg9
I136
s(dp22
g17
I912
sg9
I136
s(dp23
g17
I1006
sg9
I20
stp24
ss."
HStem: -22 136 912 136 1006 20
VStem: 110 170 901 164
LayerCount: 2
Fore
SplineSet
917 -555 m 0
 936 -555 954 -551 970 -544 c 2
 1287 -405 l 1
 1241 -285 l 1
 980 -394 l 1
 980 976 l 1
 902 1017 790 1052 663 1052 c 0
 338 1052 96 804 96 438 c 0
 96 162 262 -22 497 -22 c 0
 630 -22 741 34 810 126 c 1
 810 -441 l 2
 810 -526 867 -555 917 -555 c 0
272 439 m 0
 272 737 439 920 661 920 c 0
 733 920 770 907 810 894 c 1
 810 453 l 2
 810 260 706 110 521 110 c 0
 368 110 272 239 272 439 c 0
EndSplineSet
EndChar

StartChar: question
Encoding: 63 63 300
Width: 990
VWidth: 0
GlyphClass: 2
Flags: W
PickledData: "(dp1
S'com.fontlab.hintData'
p2
(dp3
S'vhints'
p4
((dp5
S'position'
p6
I275
sS'width'
p7
I213
s(dp8
g6
I313
sg7
I125
s(dp9
g6
I680
sg7
I169
stp10
sS'hhints'
p11
((dp12
g6
I0
sg7
I211
s(dp13
g6
I1330
sg7
I153
stp14
ss."
HStem: 0 211<356 409> 1330 153
VStem: 275 213<77.5 133.5 72 139> 313 125<401 556 401 582> 680 169<1060 1303.72>
LayerCount: 2
Fore
SplineSet
382 0 m 0
 313 0 275 49 275 106 c 0
 275 172 329 211 383 211 c 0
 451 211 488 162 488 105 c 0
 488 39 436 0 382 0 c 0
680 1228 m 0
 680 1379.45 561.719 1435.86 424.052 1435.86 c 0
 323.709 1435.86 209.787 1404.49 140 1365 c 1
 140 1516 l 1
 220 1555 323 1586 429 1586 c 0
 706 1586 849 1441 849 1236 c 0
 849 863 438 711 438 401 c 1
 313 401 l 1
 313 763 680 892 680 1228 c 0
EndSplineSet
EndChar

StartChar: quotedbl
Encoding: 34 34 302
Width: 847
VWidth: 0
GlyphClass: 2
Flags: W
PickledData: "(dp1
S'com.fontlab.hintData'
p2
(dp3
S'vhints'
p4
((dp5
S'position'
p6
I182
sS'width'
p7
I455
stp8
sS'hhints'
p9
((dp10
g6
I931
sg7
I525
stp11
ss."
HStem: 931 525<191 191 191 300 490 490 490 598>
VStem: 182 455
LayerCount: 2
Fore
SplineSet
490 931 m 1
 489 1456 l 1
 656 1456 l 1
 598 931 l 1
 490 931 l 1
191 931 m 1
 190 1456 l 1
 356 1456 l 1
 300 931 l 1
 191 931 l 1
EndSplineSet
EndChar

StartChar: quotedblbase
Encoding: 8222 8222 303
Width: 933
VWidth: 0
GlyphClass: 2
Flags: W
PickledData: "(dp1
S'com.fontlab.hintData'
p2
(dp3
S'vhints'
p4
((dp5
S'position'
p6
I144
sS'width'
p7
I646
stp8
sS'hhints'
p9
((dp10
g6
I-238
sg7
I439
stp11
ss."
HStem: -238 439<144 431 249 278 249 503 607 636>
VStem: 144 646<-238 201>
LayerCount: 2
Fore
SplineSet
503 -238 m 1
 607 201 l 1
 790 201 l 1
 636 -238 l 1
 503 -238 l 1
144 -238 m 1
 249 201 l 1
 431 201 l 1
 278 -238 l 1
 144 -238 l 1
EndSplineSet
EndChar

StartChar: quotedblleft
Encoding: 8220 8220 304
Width: 923
VWidth: 0
GlyphClass: 2
Flags: W
PickledData: "(dp1
S'com.fontlab.hintData'
p2
(dp3
S'vhints'
p4
((dp5
S'position'
p6
I144
sS'width'
p7
I636
stp8
sS'hhints'
p9
((dp10
g6
I1023
sg7
I440
stp11
ss."
HStem: 1023 440
VStem: 144 636<1016 1560>
LayerCount: 2
Fore
SplineSet
493 1016 m 1
 647 1560 l 1
 780 1560 l 1
 676 1016 l 1
 493 1016 l 1
144 1016 m 1
 298 1560 l 1
 431 1560 l 1
 326 1016 l 1
 144 1016 l 1
EndSplineSet
EndChar

StartChar: quotedblright
Encoding: 8221 8221 305
Width: 899
VWidth: 0
GlyphClass: 2
Flags: W
PickledData: "(dp1
S'com.fontlab.hintData'
p2
(dp3
S'vhints'
p4
((dp5
S'position'
p6
I146
sS'width'
p7
I613
stp8
sS'hhints'
p9
((dp10
g6
I1023
sg7
I440
stp11
ss."
HStem: 1023 440
VStem: 146 613<1016 1560>
LayerCount: 2
Fore
SplineSet
472 1016 m 1
 577 1560 l 1
 759 1560 l 1
 605 1016 l 1
 472 1016 l 1
146 1016 m 1
 250 1560 l 1
 432 1560 l 1
 279 1016 l 1
 146 1016 l 1
EndSplineSet
EndChar

StartChar: quoteleft
Encoding: 8216 8216 306
Width: 573
VWidth: 0
GlyphClass: 2
Flags: W
PickledData: "(dp1
S'com.fontlab.hintData'
p2
(dp3
S'vhints'
p4
((dp5
S'position'
p6
I144
sS'width'
p7
I286
stp8
sS'hhints'
p9
((dp10
g6
I1023
sg7
I440
stp11
ss."
HStem: 1023 440
VStem: 144 286
LayerCount: 2
Fore
SplineSet
430 1456 m 1
 326 1016 l 1
 144 1016 l 1
 298 1456 l 1
 430 1456 l 1
EndSplineSet
EndChar

StartChar: quoteright
Encoding: 8217 8217 307
Width: 571
VWidth: 0
GlyphClass: 2
Flags: W
PickledData: "(dp1
S'com.fontlab.hintData'
p2
(dp3
S'vhints'
p4
((dp5
S'position'
p6
I145
sS'width'
p7
I286
stp8
sS'hhints'
p9
((dp10
g6
I1023
sg7
I440
stp11
ss."
HStem: 1023 440
VStem: 145 286
LayerCount: 2
Fore
SplineSet
145 1016 m 1
 250 1456 l 1
 431 1456 l 1
 277 1016 l 1
 145 1016 l 1
EndSplineSet
EndChar

StartChar: quotesinglbase
Encoding: 8218 8218 308
Width: 572
VWidth: 0
GlyphClass: 2
Flags: W
PickledData: "(dp1
S'com.fontlab.hintData'
p2
(dp3
S'vhints'
p4
((dp5
S'position'
p6
I143
sS'width'
p7
I287
stp8
sS'hhints'
p9
((dp10
g6
I-238
sg7
I439
stp11
ss."
HStem: -238 439<143 430 249 276>
VStem: 143 287
LayerCount: 2
Fore
SplineSet
143 -238 m 1
 249 201 l 1
 430 201 l 1
 276 -238 l 1
 143 -238 l 1
EndSplineSet
EndChar

StartChar: quotesingle
Encoding: 39 39 309
Width: 548
VWidth: 0
GlyphClass: 2
Flags: W
PickledData: "(dp1
S'com.fontlab.hintData'
p2
(dp3
S'vhints'
p4
((dp5
S'position'
p6
I177
sS'width'
p7
I166
s(dp8
g6
I213
sg7
I130
stp9
sS'hhints'
p10
((dp11
g6
I989
sg7
I462
stp12
ss."
HStem: 989 462
VStem: 177 166 213 130
LayerCount: 2
Fore
SplineSet
192 994 m 1
 190 1456 l 1
 356 1456 l 1
 306 994 l 1
 192 994 l 1
EndSplineSet
EndChar

StartChar: r
Encoding: 114 114 310
Width: 770
VWidth: 0
GlyphClass: 2
Flags: W
PickledData: "(dp1
S'com.typemytype.robofont.layerData'
p2
(dp3
S'b'
(dp4
S'name'
p5
S'r'
sS'lib'
p6
(dp7
sS'unicodes'
p8
(tsS'width'
p9
I770
sS'contours'
p10
(tsS'components'
p11
(tsS'anchors'
p12
(tsssS'com.fontlab.hintData'
p13
(dp14
S'vhints'
p15
((dp16
S'position'
p17
I203
sg9
I164
stp18
sS'hhints'
p19
((dp20
g17
I0
sg9
I21
s(dp21
g17
I907
sg9
I141
s(dp22
g17
I1005
sg9
I20
stp23
ss."
HStem: 0 21<181 351 181 181> 907 141 1005 20
VStem: 203 164
AnchorPoint: "top" 495 1152 basechar 0
AnchorPoint: "bottom" 352 -3 basechar 0
LayerCount: 2
Fore
SplineSet
351 0 m 1
 181 0 l 1
 181 634 l 2
 181 833 138 1026 138 1026 c 1
 309 1026 l 1
 309 1026 351 906 351 667 c 2
 351 0 l 1
311 829 m 1
 345.914 936.178 436.207 1047.31 609.715 1047.31 c 0
 649.897 1047.31 694.544 1041.35 744 1028 c 1
 730 883 l 1
 686.288 897.62 647.135 904.345 612.146 904.345 c 0
 410.202 904.345 351 680 351 457 c 1
 311 829 l 1
EndSplineSet
EndChar

StartChar: radical
Encoding: 8730 8730 312
Width: 1238
VWidth: 0
GlyphClass: 2
Flags: W
PickledData: "(dp1
S'com.fontlab.hintData'
p2
(dp3
S'vhints'
p4
((dp5
S'position'
p6
I1067
sS'width'
p7
I130
stp8
ss."
VStem: 1067 130
LayerCount: 2
Fore
SplineSet
551 0 m 1
 300 673 l 1
 128 645 l 1
 108 757 l 1
 401 808 l 1
 551 367 l 1
 613 162 l 1
 667 370 l 1
 1008 1456 l 1
 1138 1456 l 1
 680 0 l 1
 551 0 l 1
EndSplineSet
EndChar

StartChar: registered
Encoding: 174 174 315
Width: 1880
VWidth: 0
GlyphClass: 2
Flags: W
PickledData: "(dp1
S'com.fontlab.hintData'
p2
(dp3
S'vhints'
p4
((dp5
S'position'
p6
I185
sS'width'
p7
I127
s(dp8
g6
I664
sg7
I142
s(dp9
g6
I1191
sg7
I149
s(dp10
g6
I1618
sg7
I127
stp11
sS'hhints'
p12
((dp13
g6
I-32
sg7
I117
s(dp14
g6
I664
sg7
I119
s(dp15
g6
I1072
sg7
I120
s(dp16
g6
I1366
sg7
I117
stp17
ss."
HStem: -32 117 664 119 1072 120<787 858 787 787> 1366 117
VStem: 185 127 664 142 1191 149 1618 127
LayerCount: 2
Fore
SplineSet
789 293 m 1
 647 293 l 1
 647 1192 l 1
 861 1192 l 2
 1141 1192 1275 1116 1275 950 c 0
 1275 802 1178 731 1052 706 c 1
 1293 293 l 1
 1132 293 l 1
 917 684 l 1
 789 684 l 1
 789 293 l 1
787 803 m 1
 859 803 l 2
 866.333 803 873.676 802.988 881.004 802.988 c 0
 1005.58 802.988 1126 806.556 1126 935 c 0
 1126 1062.38 1039.89 1072.34 924.711 1072.34 c 0
 903.353 1072.34 880.994 1072 858 1072 c 2
 787 1072 l 1
 787 803 l 1
939 80 m 0
 1290 80 1568 374 1568 725 c 0
 1568 1077 1290 1371 939 1371 c 0
 587 1371 309 1077 309 725 c 0
 309 374 587 80 939 80 c 0
940 1480 m 0
 1354 1480 1692 1141 1692 727 c 0
 1692 314 1354 -25 940 -25 c 0
 526 -25 188 314 188 727 c 0
 188 1141 526 1480 940 1480 c 0
EndSplineSet
EndChar

StartChar: ring
Encoding: 730 730 316
Width: 616
VWidth: 0
GlyphClass: 2
Flags: W
PickledData: "(dp1
S'com.fontlab.hintData'
p2
(dp3
S'vhints'
p4
((dp5
S'position'
p6
I100
sS'width'
p7
I99
s(dp8
g6
I420
sg7
I100
stp9
sS'hhints'
p10
((dp11
g6
I1149
sg7
I86
s(dp12
g6
I1445
sg7
I85
stp13
ss."
HStem: 1149 86 1445 85
VStem: 100 99 420 100
AnchorPoint: "top" 316 1152 mark 0
LayerCount: 2
Fore
SplineSet
308 1195 m 0
 365 1195 409 1243 409 1301 c 0
 409 1358 365 1406 308 1406 c 0
 250 1406 207 1358 207 1301 c 0
 207 1243 250 1195 308 1195 c 0
308 1480 m 0
 413 1480 498 1404 498 1300 c 0
 498 1195 413 1120 308 1120 c 0
 204 1120 118 1195 118 1300 c 0
 118 1404 204 1480 308 1480 c 0
EndSplineSet
EndChar

StartChar: s
Encoding: 115 115 317
Width: 890
VWidth: 0
GlyphClass: 2
Flags: W
PickledData: "(dp1
S'com.typemytype.robofont.layerData'
p2
(dp3
S'b'
(dp4
S'name'
p5
S's'
sS'lib'
p6
(dp7
sS'unicodes'
p8
(tsS'width'
p9
I890
sS'contours'
p10
((dp11
S'points'
p12
((dp13
S'segmentType'
p14
S'line'
p15
sS'x'
I783
sS'smooth'
p16
I00
sS'y'
I71
s(dp17
S'y'
I-136
sS'x'
I455
sg16
I00
s(dp18
S'y'
I-1
sS'x'
I-8
sg16
I00
s(dp19
g14
S'curve'
p20
sS'x'
I4
sg16
I01
sS'y'
I492
s(dp21
S'y'
I993
sS'x'
I16
sg16
I00
s(dp22
S'y'
I1153
sS'x'
I428
sg16
I00
s(dp23
g14
S'curve'
p24
sS'x'
I783
sg16
I00
sS'y'
I992
s(dp25
g14
S'line'
p26
sS'x'
I749
sg16
I00
sS'y'
I868
s(dp27
S'y'
I993
sS'x'
I486
sg16
I00
s(dp28
S'y'
I906
sS'x'
I189
sg16
I00
s(dp29
g14
S'curve'
p30
sS'x'
I180
sg16
I01
sS'y'
I503
s(dp31
S'y'
I97
sS'x'
I170
sg16
I00
s(dp32
S'y'
I33
sS'x'
I488
sg16
I00
s(dp33
g14
S'curve'
p34
sS'x'
I751
sg16
I00
sS'y'
I191
stp35
stp36
sS'components'
p37
(tsS'anchors'
p38
(tsssS'com.fontlab.hintData'
p39
(dp40
S'vhints'
p41
((dp42
S'position'
p43
I130
sg9
I164
s(dp44
g43
I661
sg9
I162
stp45
sS'hhints'
p46
((dp47
g43
I-22
sg9
I136
s(dp48
g43
I912
sg9
I136
stp49
ss."
HStem: -22 136 912 136
VStem: 130 164 661 162
AnchorPoint: "top" 509 1152 basechar 0
AnchorPoint: "bottom" 510 0 basechar 0
LayerCount: 2
Fore
SplineSet
795 290 m 0
 795 85 654 -22 461 -22 c 0
 296 -22 174 35 115 72 c 1
 164 202 l 1
 238 152 344 110 450 110 c 0
 546 110 624 156 632 267 c 0
 639 360 592 392 438 465 c 0
 298 532 126 575 123 771 c 0
 120 966 279 1052 465 1052 c 0
 597 1052 698 1021 766 984 c 1
 731 857 l 1
 681 884 588 922 470 920 c 0
 370 918 291 872 291 784 c 0
 291 695 367 670 512 601 c 0
 671 525 795 468 795 290 c 0
EndSplineSet
EndChar

StartChar: section
Encoding: 167 167 323
Width: 1071
VWidth: 0
GlyphClass: 2
Flags: W
PickledData: "(dp1
S'com.fontlab.hintData'
p2
(dp3
S'vhints'
p4
((dp5
S'position'
p6
I182
sS'width'
p7
I177
s(dp8
g6
I218
sg7
I171
s(dp9
g6
I698
sg7
I172
s(dp10
g6
I715
sg7
I178
stp11
sS'hhints'
p12
((dp13
g6
I-48
sg7
I137
s(dp14
g6
I1356
sg7
I137
stp15
ss."
HStem: -48 137 1356 137
VStem: 182 177 218 171 698 172 715 178
LayerCount: 2
Fore
SplineSet
578 557 m 1
 640 596 714 649 714 728 c 0
 714 849 563 887 486 920 c 1
 428 889 358 834 358 746 c 0
 358 622 471 599 578 557 c 1
473 -24 m 0
 375 -24 284 -4 208 27 c 1
 206 172 l 1
 289 136 368 110 468 110 c 0
 595 110 697 172 697 260 c 0
 697 371 600 385 495 431 c 2
 415 466 l 2
 296 518 181 599 181 734 c 0
 181 861 282 931 370 974 c 1
 285 1025 217 1087 217 1211 c 0
 217 1405 397 1480 589 1480 c 0
 678 1480 738 1462 813 1440 c 1
 815 1296 l 1
 755 1323 675 1346 594 1346 c 0
 489 1346 388 1319 388 1215 c 0
 388 1135 440 1100 496 1069 c 0
 648 985 892 931 892 742 c 0
 892 614 789 541 706 491 c 1
 791 449 869 392 869 269 c 0
 869 57 685 -24 473 -24 c 0
EndSplineSet
EndChar

StartChar: semicolon
Encoding: 59 59 324
Width: 617
VWidth: 0
GlyphClass: 2
Flags: W
PickledData: "(dp1
S'com.fontlab.hintData'
p2
(dp3
S'vhints'
p4
((dp5
S'position'
p6
I205
sS'width'
p7
I217
stp8
sS'hhints'
p9
((dp10
g6
I816
sg7
I210
stp11
ss."
HStem: 816 210
VStem: 205 217
LayerCount: 2
Fore
SplineSet
146 -256 m 1
 252 207 l 1
 440 207 l 1
 277 -256 l 1
 146 -256 l 1
335.027 1078.46 m 0
 423.013 1078.46 467.056 1016.85 467.056 955.271 c 0
 467.056 893.734 423.079 832.22 335.027 832.22 c 0
 247.042 832.22 203 893.826 203 955.409 c 0
 203 1016.95 246.976 1078.46 335.027 1078.46 c 0
EndSplineSet
EndChar

StartChar: seven
Encoding: 55 55 325
Width: 1316
VWidth: 0
GlyphClass: 2
Flags: W
PickledData: "(dp1
S'com.fontlab.hintData'
p2
(dp3
S'hhints'
p4
((dp5
S'position'
p6
I0
sS'width'
p7
I21
s(dp8
g6
I1311
sg7
I145
stp9
ss."
HStem: 0 21<407 407 407 593> 1311 145
LayerCount: 2
Fore
SplineSet
407 0 m 1
 931 1415 l 1
 209 1415 l 1
 209 1560 l 1
 1131 1560 l 1
 1131 1469 l 1
 593 0 l 1
 407 0 l 1
EndSplineSet
EndChar

StartChar: six
Encoding: 54 54 326
Width: 1316
VWidth: 0
GlyphClass: 2
Flags: W
PickledData: "(dp1
S'com.fontlab.hintData'
p2
(dp3
S'vhints'
p4
((dp5
S'position'
p6
I173
sS'width'
p7
I170
s(dp8
g6
I968
sg7
I167
stp9
sS'hhints'
p10
((dp11
g6
I-24
sg7
I150
s(dp12
g6
I802
sg7
I144
s(dp13
g6
I1359
sg7
I133
stp14
ss."
HStem: -24 150<573 769.5 573 820.5> 802 144<657 792.5> 1359 133
VStem: 173 170 968 167
LayerCount: 2
Fore
SplineSet
681 126 m 0
 858 126 984 254 984 459 c 0
 984 652 895 802 690 802 c 0
 505 802 355 683 355 492 c 0
 355 263 465 126 681 126 c 0
686 -24 m 0
 312.858 -24 185.009 248.666 185.009 584.543 c 0
 185.009 959.438 352.574 1450.53 915 1587 c 1
 951 1452 l 1
 574 1352 408 1082 368 781 c 1
 433 903 604 946 710 946 c 0
 974 946 1151 754 1151 464 c 0
 1151 175 955 -24 686 -24 c 0
EndSplineSet
EndChar

StartChar: slash
Encoding: 47 47 327
Width: 952
VWidth: 0
GlyphClass: 2
Flags: W
PickledData: "(dp1
S'com.fontlab.hintData'
p2
(dp3
S'hhints'
p4
((dp5
S'position'
p6
I0
sS'width'
p7
I21
s(dp8
g6
I1436
sg7
I20
stp9
ss."
HStem: 0 21<80 80 80 243> 1436 20
LayerCount: 2
Fore
SplineSet
80 0 m 1
 705 1560 l 1
 872 1560 l 1
 243 0 l 1
 80 0 l 1
EndSplineSet
EndChar

StartChar: sterling
Encoding: 163 163 329
Width: 1273
VWidth: 0
GlyphClass: 2
Flags: W
PickledData: "(dp1
S'com.fontlab.hintData'
p2
(dp3
S'vhints'
p4
((dp5
S'position'
p6
I280
sS'width'
p7
I171
stp8
sS'hhints'
p9
((dp10
g6
I0
sg7
I141
s(dp11
g6
I690
sg7
I142
s(dp12
g6
I1307
sg7
I141
stp13
ss."
HStem: 0 141<387 1137 387 1137> 690 142 1307 141
VStem: 280 171
LayerCount: 2
Fore
SplineSet
194 0 m 1
 194 138 l 1
 298 199 351 332 351 500 c 2
 351 711 l 1
 168 711 l 1
 168 843 l 1
 350 843 l 1
 350 1029 l 2
 350 1379 473 1586 769 1586 c 0
 908 1586 1017 1556 1094 1495 c 1
 1042 1364 l 1
 972 1407 886 1436 779 1436 c 0
 579 1436 522 1294 522 1085 c 2
 522 843 l 1
 863 843 l 1
 863 711 l 1
 524 711 l 1
 524 551 l 2
 524 352 481 217 387 141 c 1
 1137 141 l 1
 1137 0 l 1
 194 0 l 1
EndSplineSet
EndChar

StartChar: summation
Encoding: 8721 8721 330
Width: 1175
VWidth: 0
GlyphClass: 2
Flags: W
PickledData: "(dp1
S'com.fontlab.hintData'
p2
(dp3
S'hhints'
p4
((dp5
S'position'
p6
I-329
sS'width'
p7
I148
s(dp8
g6
I1281
sg7
I142
stp9
ss."
HStem: -329 148 1281 142
LayerCount: 2
Fore
SplineSet
156 0 m 1
 156 123 l 1
 564 739 l 1
 178 1338 l 1
 178 1456 l 1
 1010 1456 l 1
 1010 1314 l 1
 386 1314 l 1
 760 741 l 1
 356 148 l 1
 1055 148 l 1
 1055 0 l 1
 156 0 l 1
EndSplineSet
EndChar

StartChar: t
Encoding: 116 116 331
Width: 755
VWidth: 0
GlyphClass: 2
Flags: W
PickledData: "(dp1
S'com.typemytype.robofont.layerData'
p2
(dp3
S'b'
(dp4
S'name'
p5
S't'
sS'lib'
p6
(dp7
sS'unicodes'
p8
(tsS'width'
p9
I755
sS'contours'
p10
((dp11
S'points'
p12
((dp13
S'segmentType'
p14
S'curve'
p15
sS'x'
I78
sS'smooth'
p16
I01
sS'y'
I-22
s(dp17
S'y'
I-22
sS'x'
I-157
sg16
I00
s(dp18
S'y'
I162
sS'x'
I-331
sg16
I00
s(dp19
g14
S'curve'
p20
sS'x'
I-331
sg16
I01
sS'y'
I438
s(dp21
S'y'
I804
sS'x'
I-331
sg16
I00
s(dp22
S'y'
I1052
sS'x'
I-96
sg16
I00
s(dp23
g14
S'curve'
p24
sS'x'
I229
sg16
I01
sS'y'
I1052
s(dp25
S'y'
I1052
sS'x'
I356
sg16
I00
s(dp26
S'y'
I1017
sS'x'
I468
sg16
I00
s(dp27
g14
S'curve'
p28
sS'x'
I546
sg16
I00
sS'y'
I976
s(dp29
g14
S'line'
p30
sS'x'
I546
sg16
I01
sS'y'
I348
s(dp31
S'y'
I170
sS'x'
I546
sg16
I00
s(dp32
S'y'
I121
sS'x'
I564
sg16
I00
s(dp33
g14
S'curve'
p34
sS'x'
I691
sg16
I00
sS'y'
I121
s(dp35
g14
S'line'
p36
sS'x'
I663
sg16
I00
sS'y'
I-14
s(dp37
S'y'
I-14
sS'x'
I500
sg16
I00
s(dp38
S'y'
I46
sS'x'
I432
sg16
I00
s(dp39
g14
S'curve'
p40
sS'x'
I405
sg16
I00
sS'y'
I158
s(dp41
S'y'
I45
sS'x'
I339
sg16
I00
s(dp42
S'y'
I-22
sS'x'
I227
sg16
I00
stp43
s(dp44
g12
((dp45
g14
S'curve'
p46
sS'x'
I102
sg16
I01
sS'y'
I110
s(dp47
S'y'
I110
sS'x'
I255
sg16
I00
s(dp48
S'y'
I220
sS'x'
I346
sg16
I00
s(dp49
g14
S'curve'
p50
sS'x'
I376
sg16
I00
sS'y'
I303
s(dp51
g14
S'line'
p52
sS'x'
I376
sg16
I00
sS'y'
I894
s(dp53
S'y'
I907
sS'x'
I336
sg16
I00
s(dp54
S'y'
I920
sS'x'
I299
sg16
I00
s(dp55
g14
S'curve'
p56
sS'x'
I227
sg16
I01
sS'y'
I920
s(dp57
S'y'
I920
sS'x'
I5
sg16
I00
s(dp58
S'y'
I737
sS'x'
I-155
sg16
I00
s(dp59
g14
S'curve'
p60
sS'x'
I-155
sg16
I01
sS'y'
I439
s(dp61
S'y'
I239
sS'x'
I-155
sg16
I00
s(dp62
S'y'
I110
sS'x'
I-51
sg16
I00
stp63
stp64
sS'components'
p65
(tsS'anchors'
p66
(tsssS'com.fontlab.hintData'
p67
(dp68
S'vhints'
p69
((dp70
S'position'
p71
I286
sg9
I161
stp72
sS'hhints'
p73
((dp74
g71
I-8
sg9
I127
stp75
ss."
HStem: -8 127
VStem: 286 161
AnchorPoint: "top" 543 1152 basechar 0
AnchorPoint: "bottom" 544 6 basechar 0
LayerCount: 2
Fore
SplineSet
672 -10 m 1
 286 -40 240 128 240 326 c 2
 240 1382 l 1
 410 1382 l 1
 410 320 l 2
 410 185 425 112 699 124 c 1
 672 -10 l 1
41 920 m 1
 41 1026 l 1
 687 1026 l 1
 687 920 l 1
 41 920 l 1
EndSplineSet
EndChar

StartChar: thorn
Encoding: 254 254 334
Width: 1223
VWidth: 0
GlyphClass: 2
Flags: W
PickledData: "(dp1
S'com.fontlab.hintData'
p2
(dp3
S'vhints'
p4
((dp5
S'position'
p6
I168
sS'width'
p7
I165
s(dp8
g6
I947
sg7
I176
stp9
sS'hhints'
p10
((dp11
g6
I-23
sg7
I132
s(dp12
g6
I917
sg7
I134
s(dp13
g6
I1435
sg7
I20
stp14
ss."
HStem: -23 132 917 134 1435 20
VStem: 168 165<-508 135 378.5 613> 947 176<408.5 633>
LayerCount: 2
Fore
SplineSet
641 109 m 0
 858 109 947 296 947 521 c 0
 947 745 863 916 647 916 c 0
 418 916 333 732 333 494 c 0
 333 263 443 109 641 109 c 0
168 -508 m 1
 168 1456 l 1
 335 1456 l 1
 335 882 l 1
 406 982 509 1052 664 1052 c 0
 978 1052 1123 807 1123 527 c 0
 1123 197 952 -22 664 -22 c 0
 526 -22 416 30 333 135 c 1
 333 -508 l 1
 168 -508 l 1
EndSplineSet
EndChar

StartChar: three
Encoding: 51 51 335
Width: 1316
VWidth: 0
GlyphClass: 2
Flags: W
PickledData: "(dp1
S'com.fontlab.hintData'
p2
(dp3
S'vhints'
p4
((dp5
S'position'
p6
I884
sS'width'
p7
I165
s(dp8
g6
I933
sg7
I170
stp9
sS'hhints'
p10
((dp11
g6
I-24
sg7
I149
s(dp12
g6
I696
sg7
I148
s(dp13
g6
I1330
sg7
I151
stp14
ss."
HStem: -24 149<592 748 592 782.5> 696 148 1330 151
VStem: 884 165 933 170
LayerCount: 2
Fore
SplineSet
658 -24 m 0
 515 -24 350 16 235 85 c 1
 288 225 l 1
 413 159 538 125 646 125 c 0
 850 125 956.033 252.587 950 446 c 0
 943.964 639.491 805 736 566 736 c 2
 488 736 l 1
 488 884 l 1
 552 884 l 2
 778 884 901 990 901 1179 c 0
 901 1344.82 786.13 1435 630 1435 c 0
 487 1435 380 1391 281 1291 c 1
 185 1400 l 1
 288 1523 464 1586 626 1586 c 0
 857.506 1586 1066 1446.22 1066 1185 c 0
 1066 1022 980 867 818 819 c 1
 1008 780 1120 623 1120 434 c 0
 1120 128 907 -24 658 -24 c 0
EndSplineSet
EndChar

StartChar: threequarters
Encoding: 190 190 336
Width: 2060
VWidth: 0
GlyphClass: 2
Flags: W
PickledData: "(dp1
S'com.fontlab.hintData'
p2
(dp3
S'vhints'
p4
((dp5
S'position'
p6
I583
sS'width'
p7
I116
s(dp8
g6
I1691
sg7
I122
stp9
sS'hhints'
p10
((dp11
g6
I0
sg7
I21
s(dp12
g6
I604
sg7
I119
s(dp13
g6
I803
sg7
I107
stp14
ss."
HStem: 0 21<543 543 543 694 1654 1786 1654 1654> 604 119 803 107
VStem: 583 116 1691 122
LayerCount: 2
Fore
SplineSet
347 411 m 0
 213 411 118 478 110 483 c 1
 148 596 l 1
 174 579 247 529 340 529 c 0
 451 529 540 599 540 718 c 0
 540 855.824 462.331 914.013 321.616 914.013 c 0
 320.415 914.013 319.21 914.008 318 914 c 2
 263 914 l 1
 263 1028 l 1
 311 1028 l 2
 444.108 1028 519.444 1090.36 519.444 1199.27 c 0
 519.444 1204.09 519.297 1209 519 1214 c 0
 515 1304 436 1364 348 1364 c 0
 249 1364 176 1320 136 1277 c 1
 82 1370 l 1
 140 1440 243 1482 361 1482 c 0
 497 1482 642 1398 648 1224 c 0
 648.134 1219.92 648.2 1215.86 648.2 1211.84 c 0
 648.2 1095.52 592.554 1002.93 493 972 c 1
 606.99 944.763 670.018 847.592 670.018 711.373 c 0
 670.018 516.687 509.991 411 347 411 c 0
1785 617 m 1
 1785 363 l 1
 1974 363 l 1
 1974 264 l 1
 1786 264 l 1
 1786 0 l 1
 1654 0 l 1
 1654 264 l 1
 1215 264 l 1
 1215 355 l 1
 1576 1026 l 1
 1713 1026 l 1
 1376 363 l 1
 1654 363 l 1
 1654 617 l 1
 1785 617 l 1
543 0 m 1
 1376 1456 l 1
 1525 1456 l 1
 694 0 l 1
 543 0 l 1
EndSplineSet
Ligature2: "fracDiagonalFractionslookup0 subtable" three fraction four
Ligature2: "fracDiagonalFractionslookup0 subtable" three slash four
EndChar

StartChar: tilde
Encoding: 732 732 337
Width: 673
VWidth: 0
GlyphClass: 2
Flags: W
PickledData: "(dp1
S'com.fontlab.hintData'
p2
(dp3
S'vhints'
p4
((dp5
S'position'
p6
I24
sS'width'
p7
I105
s(dp8
g6
I560
sg7
I108
stp9
sS'hhints'
p10
((dp11
g6
I1220
sg7
I125
s(dp12
g6
I1288
sg7
I125
stp13
ss."
HStem: 1220 125 1288 125
VStem: 24 105 560 108
AnchorPoint: "top" 339 1152 mark 0
LayerCount: 2
Fore
SplineSet
443 1264 m 0
 341.597 1264 295.639 1354.56 220.105 1354.56 c 0
 174.989 1354.56 165.547 1316.31 159 1263 c 1
 54 1263 l 1
 64 1379 129 1479 253 1479 c 0
 360.085 1479 417.956 1388.67 469.969 1388.67 c 0
 516.434 1388.67 523.321 1436.34 530 1485 c 1
 638 1485 l 1
 625 1372 567 1264 443 1264 c 0
EndSplineSet
EndChar

StartChar: trademark
Encoding: 8482 8482 338
Width: 1839
VWidth: 0
GlyphClass: 2
Flags: W
PickledData: "(dp1
S'com.fontlab.hintData'
p2
(dp3
S'vhints'
p4
((dp5
S'position'
p6
I333
sS'width'
p7
I124
s(dp8
g6
I814
sg7
I121
s(dp9
g6
I1524
sg7
I122
stp10
sS'hhints'
p11
((dp12
g6
I1350
sg7
I101
stp13
ss."
HStem: 1350 101
VStem: 333 124<690 1354 690 1354> 814 121 1524 122
LayerCount: 2
Fore
SplineSet
333 690 m 1
 333 1354 l 1
 80 1354 l 1
 80 1455 l 1
 707 1455 l 1
 707 1354 l 1
 457 1354 l 1
 457 690 l 1
 333 690 l 1
814 690 m 1
 814 1455 l 1
 961 1455 l 1
 1229 846 l 1
 1508 1455 l 1
 1646 1455 l 1
 1646 690 l 1
 1530 690 l 1
 1530 1274 l 1
 1280 719 l 1
 1178 719 l 1
 929 1273 l 1
 929 690 l 1
 814 690 l 1
EndSplineSet
EndChar

StartChar: two
Encoding: 50 50 339
Width: 1316
VWidth: 0
GlyphClass: 2
Flags: W
PickledData: "(dp1
S'com.fontlab.hintData'
p2
(dp3
S'vhints'
p4
((dp5
S'position'
p6
I880
sS'width'
p7
I171
stp8
sS'hhints'
p9
((dp10
g6
I0
sg7
I138
s(dp11
g6
I1330
sg7
I150
stp12
ss."
HStem: 0 138 1330 150
VStem: 880 171
LayerCount: 2
Fore
SplineSet
888.579 1156.52 m 0
 888.579 1323.23 788.04 1436 621 1436 c 0
 424 1436 290 1240 289 1241 c 2
 191 1369 l 1
 191 1369 360 1586 618 1586 c 0
 885.301 1586 1059.23 1421.54 1059.23 1151.7 c 0
 1059.23 947.963 977 815 811 605 c 2
 448 144 l 1
 1060 144 l 1
 1060 0 l 1
 237 0 l 1
 237 135 l 1
 701 725 l 2
 840 902 888.579 1021.99 888.579 1156.52 c 0
EndSplineSet
EndChar

StartChar: u
Encoding: 117 117 340
Width: 1202
VWidth: 0
GlyphClass: 2
Flags: W
PickledData: "(dp1
S'com.typemytype.robofont.layerData'
p2
(dp3
S'b'
(dp4
S'name'
p5
S'u'
sS'lib'
p6
(dp7
sS'unicodes'
p8
(tsS'width'
p9
I1202
sS'contours'
p10
(tsS'components'
p11
(tsS'anchors'
p12
(tsssS'com.fontlab.hintData'
p13
(dp14
S'vhints'
p15
((dp16
S'position'
p17
I193
sg9
I165
s(dp18
g17
I876
sg9
I164
stp19
sS'hhints'
p20
((dp21
g17
I-22
sg9
I136
s(dp22
g17
I1006
sg9
I20
stp23
ss."
HStem: -22 136 1006 20<132 300 300 300 832 1002 1002 1002>
VStem: 193 165 876 164
AnchorPoint: "top" 633 1152 basechar 0
AnchorPoint: "bottom" 620 0 basechar 0
AnchorPoint: "ogonek" 980 0 basechar 0
LayerCount: 2
Fore
SplineSet
511 -22 m 0
 330 -22 154 78 154 347 c 0
 154 398 161 553 161 634 c 0
 161 833 132 1026 132 1026 c 1
 300 1026 l 1
 300 1026 332 906 332 667 c 0
 332 550 325 426 325 352 c 0
 325 165 423 110 536 110 c 0
 701 110 832 259 832 482 c 2
 832 1026 l 1
 1002 1026 l 1
 1002 328 l 2
 1002 182 1021 121 1147 121 c 1
 1118 -14 l 1
 981 -14 887 32 857 167 c 1
 781 41 676 -22 511 -22 c 0
EndSplineSet
EndChar

StartChar: underscore
Encoding: 95 95 348
Width: 1383
VWidth: 0
GlyphClass: 2
Flags: W
PickledData: "(dp1
S'com.fontlab.hintData'
p2
(dp3
S'hhints'
p4
((dp5
S'position'
p6
I-273
sS'width'
p7
I128
stp8
ss."
HStem: -273 128
LayerCount: 2
Fore
SplineSet
200 -152 m 1
 200 -24 l 1
 1183 -24 l 1
 1183 -152 l 1
 200 -152 l 1
EndSplineSet
EndChar

StartChar: uni00B2
Encoding: 178 178 351
Width: 927
VWidth: 0
GlyphClass: 2
Flags: W
PickledData: "(dp1
S'com.fontlab.hintData'
p2
(dp3
S'vhints'
p4
((dp5
S'position'
p6
I606
sS'width'
p7
I129
stp8
sS'hhints'
p9
((dp10
g6
I604
sg7
I118
s(dp11
g6
I1323
sg7
I117
stp12
ss."
HStem: 604 118<370 734 370 734> 1323 117<418.5 505.5>
VStem: 606 129<1197 1230.5 1160.5 1248.5>
LayerCount: 2
Fore
SplineSet
188 604 m 1
 188 715 l 1
 294 812 400 908 489 1006 c 0
 526 1047 554 1084 575 1118 c 0
 596 1152 606 1183 606 1211 c 0
 606 1286 545 1323 466 1323 c 0
 371 1323 314 1262 281 1192 c 1
 196 1270 l 1
 239 1370 334 1440 472 1440 c 0
 590 1440 676 1388 715 1307 c 0
 728 1279 735 1248 735 1213 c 0
 735 1108 683 1033 629 968 c 0
 555 879 462 802 370 722 c 1
 734 722 l 1
 734 604 l 1
 188 604 l 1
EndSplineSet
EndChar

StartChar: uni00B3
Encoding: 179 179 352
Width: 862
VWidth: 0
GlyphClass: 2
Flags: W
PickledData: "(dp1
S'com.fontlab.hintData'
p2
(dp3
S'vhints'
p4
((dp5
S'position'
p6
I548
sS'width'
p7
I133
s(dp8
g6
I573
sg7
I129
stp9
sS'hhints'
p10
((dp11
g6
I586
sg7
I115
s(dp12
g6
I970
sg7
I119
s(dp13
g6
I1322
sg7
I119
stp14
ss."
HStem: 586 115<365.5 423> 970 119<302 328 302 351> 1322 119<366 447.5>
VStem: 548 133<1168.5 1231.5 1168.5 1250.5> 573 129<791 885.5 771 892.5>
LayerCount: 2
Fore
SplineSet
403 586 m 0
 296 586 214 626 157 683 c 1
 217 779 l 1
 273 727 333 701 398 701 c 0
 492 701 573 745 573 837 c 0
 573 948 471 971 358 971 c 0
 351 971 337 970 328 970 c 2
 302 970 l 1
 302 1089 l 1
 351 1089 l 2
 452 1089 548 1110 548 1210 c 0
 548 1291 488 1322 407 1322 c 0
 325 1322 264 1284 215 1244 c 1
 157 1340 l 1
 212 1394 305 1441 409 1441 c 0
 528 1441 616 1388 658 1310 c 0
 673 1282 681 1250 681 1213 c 0
 681 1124 636 1065 574 1032 c 1
 648 999 702 937 702 834 c 0
 702 708 616 634 518 603 c 0
 482 592 443 586 403 586 c 0
EndSplineSet
EndChar

StartChar: uni00B9
Encoding: 185 185 353
Width: 721
VWidth: 0
GlyphClass: 2
Flags: W
PickledData: "(dp1
S'com.fontlab.hintData'
p2
(dp3
S'vhints'
p4
((dp5
S'position'
p6
I317
sS'width'
p7
I121
stp8
sS'hhints'
p9
((dp10
g6
I604
sg7
I119
stp11
ss."
HStem: 604 119<195 317 195 317 195 560>
VStem: 317 121<723 1008 1008 1037.5>
LayerCount: 2
Fore
SplineSet
195 604 m 1
 195 723 l 1
 317 723 l 1
 317 1008 l 2
 317 1067 316 1116 316 1168 c 2
 316 1271 l 1
 272 1248 214 1222 164 1203 c 1
 165 1333 l 1
 232 1354 281 1381 333 1412 c 1
 438 1427 l 1
 438 720 l 1
 560 720 l 1
 560 604 l 1
 195 604 l 1
EndSplineSet
EndChar

StartChar: uni0311
Encoding: 785 785 380
Width: 639
VWidth: 0
GlyphClass: 2
Flags: W
PickledData: "(dp1
S'com.fontlab.hintData'
p2
(dp3
S'vhints'
p4
((dp5
S'position'
p6
I42
sS'width'
p7
I87
s(dp8
g6
I520
sg7
I86
stp9
sS'hhints'
p10
((dp11
g6
I1347
sg7
I107
stp12
ss."
HStem: 1347 107<268 370>
VStem: 42 87<1218 1218> 520 86<1218 1218>
AnchorPoint: "top" 318 1152 mark 0
LayerCount: 2
Fore
SplineSet
42 1218 m 1
 55 1378 155 1454 326 1454 c 0
 492 1454 593 1372 606 1218 c 1
 520 1218 l 1
 500 1302 421 1347 319 1347 c 0
 217 1347 144 1306 129 1218 c 1
 42 1218 l 1
EndSplineSet
EndChar

StartChar: uni0326
Encoding: 806 806 381
Width: 10
VWidth: 0
GlyphClass: 2
Flags: W
PickledData: "(dp1
S'com.fontlab.hintData'
p2
(dp3
S'vhints'
p4
((dp5
S'position'
p6
I-452
sS'width'
p7
I294
stp8
sS'hhints'
p9
((dp10
g6
I-625
sg7
I463
stp11
ss."
HStem: -625 463
VStem: -452 294
LayerCount: 2
Fore
SplineSet
-183 -463 m 1
 -76 0 l 1
 111 0 l 1
 -52 -463 l 1
 -183 -463 l 1
EndSplineSet
EndChar

StartChar: uni03A9
Encoding: 937 937 382
Width: 1572
VWidth: 0
GlyphClass: 2
Flags: W
PickledData: "(dp1
S'com.fontlab.hintData'
p2
(dp3
S'vhints'
p4
((dp5
S'position'
p6
I124
sS'width'
p7
I179
s(dp8
g6
I1273
sg7
I178
stp9
sS'hhints'
p10
((dp11
g6
I0
sg7
I138
s(dp12
g6
I1309
sg7
I140
stp13
ss."
HStem: 0 138<103 114 103 641> 1309 140
VStem: 124 179<665.5 941.5 633.5 1021.5> 1273 178<650 955.5>
LayerCount: 2
Fore
SplineSet
114 0 m 1
 103 138 l 1
 439 137 l 1
 262 273 124 524 124 807 c 0
 124 1236 383 1480 798 1480 c 0
 1212 1480 1451 1221 1451 803 c 0
 1451 497 1297 273 1131 137 c 1
 1453 138 l 1
 1444 0 l 1
 937 0 l 1
 933 121 l 1
 1123 253 1273 509 1273 785 c 0
 1273 1126 1094 1330 794 1330 c 0
 468 1330 303 1093 303 790 c 0
 303 477 454 246 638 121 c 1
 641 0 l 1
 114 0 l 1
EndSplineSet
EndChar

StartChar: uni03BC
Encoding: 956 956 383
Width: 1239
VWidth: 0
GlyphClass: 2
Flags: W
PickledData: "(dp1
S'com.fontlab.hintData'
p2
(dp3
S'vhints'
p4
((dp5
S'position'
p6
I167
sS'width'
p7
I165
s(dp8
g6
I888
sg7
I165
stp9
sS'hhints'
p10
((dp11
g6
I-23
sg7
I132
s(dp12
g6
I0
sg7
I21
s(dp13
g6
I1006
sg7
I20
stp14
ss."
HStem: -23 132 0 21 1006 20<291 291 862 1026 1026 1026>
VStem: 167 165 888 165
LayerCount: 2
Fore
SplineSet
541 -22 m 0
 471 -22 401 -8 342 26 c 1
 342 -202 l 1
 187 -202 l 1
 185 582 l 2
 185.559 601.8 185.821 620.752 185.821 638.886 c 0
 185.821 912.908 126 1000 126 1000 c 1
 291 1026 l 1
 291 1026 350.821 951.224 350.821 656.453 c 0
 350.821 636.946 350.559 616.476 350 595 c 2
 344 365 l 2
 343.886 360.494 343.83 356.063 343.83 351.706 c 0
 343.83 164.615 447.64 114 561 114 c 0
 726 114 862 259 862 482 c 2
 862 1026 l 1
 1026 1026 l 1
 1026 328 l 2
 1026 182 1045 121 1171 121 c 1
 1142 -14 l 1
 1005 -14 911 32 881 161 c 1
 806 37 693 -22 541 -22 c 0
EndSplineSet
EndChar

StartChar: uni2074
Encoding: 8308 8308 398
Width: 907
VWidth: 0
GlyphClass: 2
Flags: W
PickledData: "(dp1
S'com.fontlab.hintData'
p2
(dp3
S'vhints'
p4
((dp5
S'position'
p6
I366
sS'width'
p7
I122
stp8
sS'hhints'
p9
((dp10
g6
I803
sg7
I107
stp11
ss."
HStem: 803 107<127 366 127 366 488 597>
VStem: 366 122<615 1412 803 1412 910 1244 1244 1244>
LayerCount: 2
Fore
SplineSet
127 910 m 1
 366 910 l 1
 366 1244 l 1
 127 910 l 1
366 615 m 1
 366 803 l 1
 -12 803 l 1
 -12 894 l 1
 354 1412 l 1
 488 1412 l 1
 488 910 l 1
 597 910 l 1
 607 803 l 1
 486 803 l 1
 486 615 l 1
 366 615 l 1
EndSplineSet
EndChar

StartChar: uni2611
Encoding: 9745 9745 399
Width: 1629
VWidth: 0
Flags: W
PickledData: "(dp1
S'com.typemytype.robofont.layerData'
p2
(dp3
S'b'
(dp4
S'name'
p5
S'uni2713'
p6
sS'lib'
p7
(dp8
sS'unicodes'
p9
(tsS'width'
p10
I1629
sS'contours'
p11
((dp12
S'points'
p13
((dp14
S'segmentType'
p15
S'line'
p16
sS'x'
F113
sS'smooth'
p17
I01
sS'y'
F706
s(dp18
S'y'
F845
sS'x'
F77
sg17
I00
s(dp19
S'y'
F909
sS'x'
F264
sg17
I00
s(dp20
g15
S'curve'
p21
sS'x'
F316
sg17
I01
sS'y'
F756
s(dp22
g15
S'line'
p23
sS'x'
F453
sg17
I00
sS'y'
F354
s(dp24
g15
S'line'
p25
sS'x'
F1380
sg17
I01
sS'y'
F1336
s(dp26
S'y'
F1416
sS'x'
F1455
sg17
I00
s(dp27
S'y'
F1342
sS'x'
F1541
sg17
I00
s(dp28
g15
S'curve'
p29
sS'x'
F1480
sg17
I01
sS'y'
F1263
s(dp30
g15
S'line'
p31
sS'x'
F567
sg17
I01
sS'y'
F87
s(dp32
S'y'
F19
sS'x'
F514
sg17
I00
s(dp33
S'y'
F-1
sS'x'
F462
sg17
I00
s(dp34
g15
S'curve'
p35
sS'x'
F408
sg17
I01
sS'y'
F-1
s(dp36
S'y'
F-1
sS'x'
F342
sg17
I00
s(dp37
S'y'
F40
sS'x'
F285
sg17
I00
s(dp38
g15
S'curve'
p39
sS'x'
F260
sg17
I01
sS'y'
F135
stp40
stp41
sS'components'
p42
(tsS'anchors'
p43
(tsss."
LayerCount: 2
Fore
SplineSet
178 0 m 1
 1451 0 l 1
 1451 1307 l 1
 178 1307 l 1
 178 0 l 1
321 606 m 2
 410 216 l 1
 429 124 513 115 563 177 c 2
 1285 1072 l 2
 1320 1115 1261 1182 1217 1133 c 2
 528 371 l 1
 436 631 l 2
 408 711 305 676 321 606 c 2
266 82 m 1
 266 1225 l 1
 1363 1225 l 1
 1363 82 l 1
 266 82 l 1
EndSplineSet
EndChar

StartChar: uni2713
Encoding: 10003 10003 400
Width: 1709
VWidth: 0
Flags: W
PickledData: "(dp1
S'com.typemytype.robofont.layerData'
p2
(dp3
S'b'
(dp4
S'name'
p5
S'uni2713'
p6
sS'lib'
p7
(dp8
g2
(dp9
S'b'
(dp10
g5
S'uni2714'
p11
sg7
(dp12
sS'unicodes'
p13
(tsS'width'
p14
F1781.2721567406634
sS'contours'
p15
((dp16
S'points'
p17
((dp18
S'segmentType'
p19
S'line'
p20
sS'x'
F305.56811637137713
sS'smooth'
p21
I01
sS'y'
F706
s(dp22
S'y'
F845
sS'x'
F269.56811637137713
sg21
I00
s(dp23
S'y'
F909
sS'x'
F456.56811637137713
sg21
I00
s(dp24
g19
S'curve'
p25
sS'x'
F508.56811637137713
sg21
I01
sS'y'
F756
s(dp26
g19
S'line'
p27
sS'x'
F645.56811637137707
sg21
I00
sS'y'
F354
s(dp28
g19
S'line'
p29
sS'x'
F1572.5681163713771
sg21
I01
sS'y'
F1336
s(dp30
S'y'
F1416
sS'x'
F1647.5681163713771
sg21
I00
s(dp31
S'y'
F1342
sS'x'
F1733.5681163713771
sg21
I00
s(dp32
g19
S'curve'
p33
sS'x'
F1672.5681163713771
sg21
I01
sS'y'
F1263
s(dp34
g19
S'line'
p35
sS'x'
F760
sg21
I01
sS'y'
F87
s(dp36
S'y'
F19
sS'x'
F707
sg21
I00
s(dp37
S'y'
F-1
sS'x'
F654.56811637137707
sg21
I00
s(dp38
g19
S'curve'
p39
sS'x'
F600.56811637137707
sg21
I01
sS'y'
F-1
s(dp40
S'y'
F-1
sS'x'
F534.56811637137707
sg21
I00
s(dp41
S'y'
F40
sS'x'
F477.56811637137713
sg21
I00
s(dp42
g19
S'curve'
p43
sS'x'
F452.56811637137713
sg21
I01
sS'y'
F135
stp44
stp45
sS'components'
p46
(tsS'anchors'
p47
(tssssg13
(tsg14
F1709.9679246000001
sg15
((dp48
g17
((dp49
g19
S'line'
p50
sS'x'
F236.52318572277767
sg21
I01
sS'y'
F588
s(dp51
S'y'
F652
sS'x'
F221.52318572277767
sg21
I00
s(dp52
S'y'
F685
sS'x'
F321.52318572277767
sg21
I00
s(dp53
g19
S'curve'
p54
sS'x'
F345.52318572277767
sg21
I01
sS'y'
F615
s(dp55
g19
S'line'
p56
sS'x'
F462.52318572277767
sg21
I01
sS'y'
F275
s(dp57
S'y'
F180
sS'x'
F495.52318572277767
sg21
I00
s(dp58
S'y'
F182
sS'x'
F479.52318572277767
sg21
I00
s(dp59
g19
S'curve'
p60
sS'x'
F626.52318572277773
sg21
I01
sS'y'
F346
s(dp61
g19
S'line'
p62
sS'x'
F1516.5231857227777
sg21
I01
sS'y'
F1351
s(dp63
S'y'
F1394
sS'x'
F1555.5231857227777
sg21
I00
s(dp64
S'y'
F1359
sS'x'
F1610.5231857227777
sg21
I00
s(dp65
g19
S'curve'
p66
sS'x'
F1575.5231857227777
sg21
I01
sS'y'
F1308
s(dp67
g19
S'line'
p68
sS'x'
F749.52318572277773
sg21
I01
sS'y'
F253
s(dp69
S'y'
F23
sS'x'
F569.52318572277773
sg21
I00
s(dp70
S'y'
F-21
sS'x'
F540.52318572277773
sg21
I00
s(dp71
g19
S'curve'
p72
sS'x'
F469.52318572277767
sg21
I01
sS'y'
F-21
s(dp73
S'y'
F-21
sS'x'
F412.52318572277767
sg21
I00
s(dp74
S'y'
F-2
sS'x'
F370.52318572277767
sg21
I00
s(dp75
g19
S'curve'
p76
sS'x'
F346.52318572277767
sg21
I01
sS'y'
F102
stp77
stp78
sg46
(tsg47
(tsss."
LayerCount: 2
Fore
SplineSet
238.523185723 603 m 2
 217.523185723 692 333.523185723 738 367.523185723 634 c 2
 486.523185723 267 l 2
 492.523185723 249 502.523185723 245 515.523185723 259 c 2
 1507.52318572 1350 l 2
 1564.52318572 1414 1630.52318572 1350 1584.52318572 1293 c 2
 565.523185723 44 l 2
 498.523185723 -38 384.523185723 -26 358.523185723 92 c 1
 238.523185723 603 l 2
EndSplineSet
EndChar

StartChar: uni2714
Encoding: 10004 10004 401
Width: 1781
VWidth: 0
Flags: W
PickledData: "(dp1
S'com.typemytype.robofont.layerData'
p2
(dp3
S'b'
(dp4
S'name'
p5
S'uni2714'
p6
sS'lib'
p7
(dp8
sS'unicodes'
p9
(tsS'width'
p10
F1781.2721567399999
sS'contours'
p11
((dp12
S'points'
p13
((dp14
S'segmentType'
p15
S'line'
p16
sS'x'
F305.56811637137713
sS'smooth'
p17
I01
sS'y'
F706
s(dp18
S'y'
F845
sS'x'
F269.56811637137713
sg17
I00
s(dp19
S'y'
F909
sS'x'
F456.56811637137713
sg17
I00
s(dp20
g15
S'curve'
p21
sS'x'
F508.56811637137713
sg17
I01
sS'y'
F756
s(dp22
g15
S'line'
p23
sS'x'
F645.56811637137707
sg17
I00
sS'y'
F354
s(dp24
g15
S'line'
p25
sS'x'
F1572.5681163713771
sg17
I01
sS'y'
F1336
s(dp26
S'y'
F1416
sS'x'
F1647.5681163713771
sg17
I00
s(dp27
S'y'
F1342
sS'x'
F1733.5681163713771
sg17
I00
s(dp28
g15
S'curve'
p29
sS'x'
F1672.5681163713771
sg17
I01
sS'y'
F1263
s(dp30
g15
S'line'
p31
sS'x'
F760
sg17
I01
sS'y'
F87
s(dp32
S'y'
F19
sS'x'
F707
sg17
I00
s(dp33
S'y'
F-1
sS'x'
F654.56811637137707
sg17
I00
s(dp34
g15
S'curve'
p35
sS'x'
F600.56811637137707
sg17
I01
sS'y'
F-1
s(dp36
S'y'
F-1
sS'x'
F534.56811637137707
sg17
I00
s(dp37
S'y'
F40
sS'x'
F477.56811637137713
sg17
I00
s(dp38
g15
S'curve'
p39
sS'x'
F452.56811637137713
sg17
I01
sS'y'
F135
stp40
stp41
sS'components'
p42
(tsS'anchors'
p43
(tsss."
LayerCount: 2
Fore
SplineSet
297 617 m 1
 272 733 450 793 491 667 c 1
 581 426 l 2
 621 320 621 314 712 415 c 2
 1548 1336 l 2
 1608 1403 1694 1346 1638 1271 c 2
 920 305 l 2
 723 41 688 -21 580 -21 c 0
 494 -21 435 10 393 196 c 2
 297 617 l 1
EndSplineSet
EndChar

StartChar: uniF6C3
Encoding: 63171 63171 402
Width: 609
VWidth: 0
GlyphClass: 2
Flags: W
PickledData: "(dp1
S'com.fontlab.hintData'
p2
(dp3
S'vhints'
p4
((dp5
S'position'
p6
I120
sS'width'
p7
I294
stp8
sS'hhints'
p9
((dp10
g6
I-603
sg7
I463
stp11
ss."
HStem: -603 463
VStem: 120 294
LayerCount: 2
Fore
SplineSet
120 -463 m 1
 227 0 l 1
 414 0 l 1
 251 -463 l 1
 120 -463 l 1
EndSplineSet
EndChar

StartChar: v
Encoding: 118 118 406
Width: 1038
VWidth: 0
GlyphClass: 2
Flags: W
PickledData: "(dp1
S'com.typemytype.robofont.layerData'
p2
(dp3
S'b'
(dp4
S'name'
p5
S'v'
sS'lib'
p6
(dp7
sS'unicodes'
p8
(tsS'width'
p9
I1038
sS'contours'
p10
(tsS'components'
p11
(tsS'anchors'
p12
(tsssS'com.fontlab.hintData'
p13
(dp14
S'hhints'
p15
((dp16
S'position'
p17
I0
sg9
I21
s(dp18
g17
I1006
sg9
I20
stp19
ss."
HStem: 0 21<434 434 434 602> 1006 20<38 220 220 220 817 1000 1000 1000>
LayerCount: 2
Fore
SplineSet
434 0 m 1
 38 1026 l 1
 220 1026 l 1
 467 353 l 1
 524 167 l 1
 581 353 l 1
 817 1026 l 1
 1000 1026 l 1
 602 0 l 1
 434 0 l 1
EndSplineSet
EndChar

StartChar: w
Encoding: 119 119 407
Width: 1629
VWidth: 0
GlyphClass: 2
Flags: W
PickledData: "(dp1
S'com.typemytype.robofont.layerData'
p2
(dp3
S'b'
(dp4
S'name'
p5
S'w'
sS'lib'
p6
(dp7
sS'unicodes'
p8
(tsS'width'
p9
I1629
sS'contours'
p10
(tsS'components'
p11
(tsS'anchors'
p12
(tsss."
AnchorPoint: "top" 847 1024 basechar 0
AnchorPoint: "bottom" 840 0 basechar 0
LayerCount: 2
Fore
SplineSet
535 0 m 1
 827 831 l 1
 1093 0 l 1
 1253 0 l 1
 1597 1026 l 1
 1428 1026 l 1
 1212 287 l 1
 1178 189 l 1
 1149 286 l 1
 912 1026 l 1
 753 1026 l 1
 493 276 l 1
 462 186 l 1
 433 284 l 1
 208 1026 l 1
 32 1026 l 1
 373 0 l 1
 535 0 l 1
EndSplineSet
EndChar

StartChar: x
Encoding: 120 120 412
Width: 990
VWidth: 0
GlyphClass: 2
Flags: W
PickledData: "(dp1
S'com.typemytype.robofont.layerData'
p2
(dp3
S'b'
(dp4
S'name'
p5
S'x'
sS'lib'
p6
(dp7
sS'unicodes'
p8
(tsS'width'
p9
I990
sS'contours'
p10
(tsS'components'
p11
(tsS'anchors'
p12
(tsssS'com.fontlab.hintData'
p13
(dp14
S'hhints'
p15
((dp16
S'position'
p17
I0
sg9
I21
s(dp18
g17
I1006
sg9
I20
stp19
ss."
HStem: 0 21<14 14 14 204 775 775 775 976> 1006 20<33 235 235 235 784 963 963 963>
LayerCount: 2
Fore
SplineSet
14 0 m 1
 406 514 l 1
 33 1026 l 1
 235 1026 l 1
 507 638 l 1
 784 1026 l 1
 963 1026 l 1
 593 518 l 1
 976 0 l 1
 775 0 l 1
 496 396 l 1
 204 0 l 1
 14 0 l 1
EndSplineSet
EndChar

StartChar: y
Encoding: 121 121 413
Width: 1173
VWidth: 0
GlyphClass: 2
Flags: W
PickledData: "(dp1
S'com.typemytype.robofont.layerData'
p2
(dp3
S'b'
(dp4
S'name'
p5
S'y'
sS'lib'
p6
(dp7
sS'unicodes'
p8
(tsS'width'
p9
I1173
sS'contours'
p10
(tsS'components'
p11
(tsS'anchors'
p12
(tsssS'com.fontlab.hintData'
p13
(dp14
S'vhints'
p15
((dp16
S'position'
p17
I237
sg9
I165
s(dp18
g17
I924
sg9
I164
stp19
sS'hhints'
p20
((dp21
g17
I-494
sg9
I137
s(dp22
g17
I-22
sg9
I136
s(dp23
g17
I1006
sg9
I20
stp24
ss."
HStem: -494 137 -22 136 1006 20<132 303 303 303 849 1019 1019 1019>
VStem: 237 165 924 164
AnchorPoint: "top" 598 1024 basechar 0
LayerCount: 2
Fore
SplineSet
849 114.454 m 1
 777.961 33.0391 683.575 -22 542 -22 c 0
 359.58 -22 153.77 76.1113 153.77 348.747 c 0
 153.77 354.097 153.846 359.515 154 365 c 2
 160 582 l 2
 160.976 616.591 161.411 648.899 161.411 679.016 c 0
 161.411 926.639 132 1026 132 1026 c 1
 303 1026 l 1
 303 1026 332.411 958.435 332.411 698.572 c 0
 332.411 666.968 331.976 632.519 331 595 c 2
 325 365 l 2
 324.905 361.239 324.858 357.531 324.858 353.874 c 0
 324.858 165.006 452.203 110 566 110 c 0
 724 110 849 230 849 427 c 2
 849 1026 l 1
 1019 1026 l 1
 1019 9 l 2
 1019 -309.231 857.425 -565.759 509.922 -565.759 c 0
 421.725 -565.759 321.55 -549.234 209 -513 c 1
 227 -370 l 1
 331.51 -406.781 423.408 -424.323 502.368 -424.323 c 0
 734.685 -424.323 849 -272.471 849 -12 c 2
 849 114.454 l 1
EndSplineSet
EndChar

StartChar: yen
Encoding: 165 165 417
Width: 1530
VWidth: 0
GlyphClass: 2
Flags: W
PickledData: "(dp1
S'com.fontlab.hintData'
p2
(dp3
S'vhints'
p4
((dp5
S'position'
p6
I684
sS'width'
p7
I172
stp8
sS'hhints'
p9
((dp10
g6
I0
sg7
I21
s(dp11
g6
I283
sg7
I140
s(dp12
g6
I574
sg7
I142
s(dp13
g6
I1436
sg7
I20
stp14
ss."
HStem: 0 21 283 140 574 142 1436 20
VStem: 684 172
LayerCount: 2
Fore
SplineSet
315 283 m 1
 315 403 l 1
 694 403 l 1
 694 574 l 1
 309 574 l 1
 309 696 l 1
 1213 696 l 1
 1213 574 l 1
 835 574 l 1
 835 403 l 1
 1216 403 l 1
 1216 283 l 1
 315 283 l 1
EndSplineSet
Refer: 113 89 N 1 0 0 1 148 0 2
EndChar

StartChar: z
Encoding: 122 122 419
Width: 974
VWidth: 0
GlyphClass: 2
Flags: W
PickledData: "(dp1
S'com.typemytype.robofont.layerData'
p2
(dp3
S'b'
(dp4
S'name'
p5
S'z'
sS'lib'
p6
(dp7
sS'unicodes'
p8
(tsS'width'
p9
I974
sS'contours'
p10
(tsS'components'
p11
(tsS'anchors'
p12
(tsssS'com.fontlab.hintData'
p13
(dp14
S'hhints'
p15
((dp16
S'position'
p17
I0
sg9
I134
s(dp18
g17
I891
sg9
I135
stp19
ss."
HStem: 0 134<352 891 352 891> 891 135<153 651 153 874>
AnchorPoint: "top" 492 1024 basechar 0
AnchorPoint: "bottom" 541 0 basechar 0
LayerCount: 2
Fore
SplineSet
127 0 m 1
 127 89 l 1
 651 891 l 1
 153 891 l 1
 153 1026 l 1
 874 1026 l 1
 874 939 l 1
 352 134 l 1
 891 134 l 1
 891 0 l 1
 127 0 l 1
EndSplineSet
EndChar

StartChar: zero
Encoding: 48 48 423
Width: 1316
VWidth: 0
GlyphClass: 2
Flags: W
PickledData: "(dp1
S'com.fontlab.hintData'
p2
(dp3
S'vhints'
p4
((dp5
S'position'
p6
I162
sS'width'
p7
I184
s(dp8
g6
I970
sg7
I184
stp9
sS'hhints'
p10
((dp11
g6
I-24
sg7
I150
s(dp12
g6
I1330
sg7
I150
stp13
ss."
HStem: -24 150<519.5 781.5 519.5 839> 1330 150
VStem: 162 184<642.5 923 642.5 992.5> 970 184<651 929>
LayerCount: 2
Fore
SplineSet
656 -24 m 0
 281 -24 162 355 162 786 c 0
 162 1199 284 1586 656 1586 c 0
 1048 1586 1154 1213 1154 786 c 0
 1154 361 1022 -24 656 -24 c 0
656 126 m 0
 907 126 970 516 970 786 c 0
 970 1072 928 1436 656 1436 c 0
 401 1436 346 1060 346 786 c 0
 346 499 383 126 656 126 c 0
EndSplineSet
EndChar
